<svg width="74" height="86" viewBox="0 0 74 86" fill="none" xmlns="http://www.w3.org/2000/svg">
<path d="M24.6308 16.5054C24.1209 17.0154 23.7002 17.5913 23.3654 18.2239C23.1394 18.651 19.3538 28.0112 19.3538 28.0112C16.454 35.097 12.2386 41.4348 6.82497 46.8484L4.18002 49.4934C-1.32947 55.0029 -1.40202 63.9203 4.01821 69.372C6.66245 72.0315 10.1821 73.4958 13.9285 73.4958C13.9323 73.4958 13.9362 73.4958 13.9401 73.4958C16.0162 73.4958 18.0228 73.0443 19.85 72.1905L24.7603 77.1007C25.0206 77.3612 25.362 77.4914 25.7032 77.4914C26.0167 77.4914 26.3293 77.3801 26.5802 77.1605L33.4942 84.0745C34.778 85.3583 36.4644 86.0002 38.1508 86.0002C39.8371 86.0002 41.5235 85.3583 42.8073 84.0745C45.3749 81.5069 45.3749 77.3292 42.8073 74.7616L35.8965 67.8508L36.8307 66.9166C37.0809 66.6666 37.2213 66.3273 37.2213 65.9737C37.2213 65.62 37.0809 65.2807 36.8307 65.0307L32.9425 61.1425C36.7793 58.2877 40.9584 55.9277 45.4375 54.0946C45.4375 54.0946 54.7733 50.339 55.5114 49.9263C56.2851 49.4939 56.944 48.8184 56.944 48.8184C61.9987 44.1076 58.5602 33.0086 49.5005 23.9489C40.4406 14.8891 29.5166 11.6195 24.6308 16.5054ZM22.2151 70.7838C22.7795 70.3674 23.317 69.9063 23.8223 69.401L26.5999 66.6234C27.0217 66.2016 27.4509 65.79 27.8837 65.3828L31.238 68.7372L25.7032 74.2719L22.2151 70.7838ZM35.3803 82.1887L28.4694 75.2778L31.0961 72.6512L38.0074 79.5627C38.7473 80.3026 39.1547 81.2863 39.1547 82.3327C39.1547 82.3357 39.1547 82.3387 39.1547 82.3418C39.1533 82.8983 38.6805 83.3338 38.1239 83.3307C37.1294 83.3252 36.1374 82.9458 35.3803 82.1887ZM40.9212 76.6477C42.1145 77.841 42.3713 79.6175 41.7002 81.0667C41.4531 79.7903 40.833 78.6164 39.8935 77.6769L32.982 70.7653L34.0104 69.7369L40.9212 76.6477ZM34.0017 65.9737L33.124 66.8513L29.8701 63.5974C30.1857 63.3269 30.5027 63.0588 30.8237 62.7958L34.0017 65.9737ZM44.427 51.626C37.0117 54.6608 30.3793 59.0721 24.7141 64.7375L21.9365 67.5151C19.7995 69.652 16.9601 70.8286 13.939 70.8286C13.9358 70.8286 13.9326 70.8286 13.9296 70.8286C10.8976 70.8286 8.0492 69.6435 5.9096 67.4915C1.52334 63.0798 1.5934 55.8519 6.06589 51.3794L8.71084 48.7345C14.3763 43.069 18.7874 36.4367 21.8221 29.0216L22.8716 26.4573C24.0446 31.1581 27.2319 36.5329 32.0742 41.375C36.2843 45.5851 41.1017 48.7129 45.6397 50.1826C46.1002 50.3317 46.5529 50.4619 46.9978 50.5739L44.427 51.626ZM33.9688 31.0897C33.9891 31.1581 34.0079 31.2261 34.0303 31.2952C34.5689 32.9581 35.7018 34.7101 37.2205 36.2288C38.8787 37.8871 40.6917 38.9959 42.3556 39.4826L38.4628 43.3754C36.9185 42.2358 35.4037 40.9323 33.9603 39.4888C32.5166 38.0451 31.2127 36.5302 30.0731 34.9854L33.9688 31.0897ZM44.9819 36.8566L44.9818 36.8565L44.9789 36.8593C44.3052 37.5236 41.6247 36.8611 39.1063 34.3429C37.8981 33.1347 36.9728 31.7243 36.5677 30.4736C36.2688 29.5504 36.2784 28.7817 36.5928 28.4673C36.7544 28.3057 37.0359 28.2246 37.397 28.2246C37.7382 28.2246 38.1504 28.2972 38.599 28.4424C39.8498 28.8475 41.26 29.7728 42.4684 30.981C44.9899 33.5026 45.651 36.1874 44.9819 36.8566ZM55.0578 46.9325C54.7502 47.2401 54.6051 47.3733 54.0836 47.6612C53.562 47.9491 53.0466 48.0981 53.0466 48.0981C51.3255 48.6251 49.0458 48.482 46.4615 47.645C44.5792 47.0355 42.6362 46.1021 40.7088 44.9012L46.8637 38.7463C46.8651 38.745 46.8666 38.7438 46.868 38.7425C48.9014 36.7089 47.8207 32.5614 44.3543 29.095C42.8356 27.5763 41.0836 26.4435 39.4207 25.9049C37.4541 25.268 35.7796 25.5082 34.7066 26.5813L34.7058 26.5806L28.5472 32.7392C27.3466 30.8119 26.4136 28.8693 25.8041 26.9874C24.9657 24.3988 24.8232 22.1157 25.3533 20.3936C25.3533 20.3936 25.5265 19.8196 25.7338 19.4638C25.9411 19.108 26.207 18.7007 26.5165 18.3911C27.5345 17.3731 29.0032 16.8932 30.7593 16.8932C35.3867 16.8932 42.0066 20.2272 47.6143 25.8346C55.3498 33.5703 58.7584 43.2319 55.0578 46.9325Z" fill="#49C5B6"/>
<path d="M72.383 31.397H60.1851C59.4487 31.397 58.8516 31.9941 58.8516 32.7306C58.8516 33.4671 59.4487 34.0641 60.1851 34.0641H72.383C73.1195 34.0641 73.7166 33.4671 73.7166 32.7306C73.7166 31.9941 73.1195 31.397 72.383 31.397Z" fill="#49C5B6"/>
<path d="M54.6307 25.8529C54.8569 26.3382 55.338 26.6232 55.8402 26.6232C56.029 26.6232 56.2207 26.5828 56.403 26.4978L69.9006 20.2033C70.5681 19.892 70.8569 19.0986 70.5456 18.4311C70.2342 17.7636 69.4408 17.475 68.7733 17.7861L55.2756 24.0807C54.6083 24.392 54.3195 25.1854 54.6307 25.8529Z" fill="#49C5B6"/>
<path d="M49.8951 20.793C50.1449 21.0026 50.4492 21.1051 50.7516 21.1051C51.1321 21.1051 51.5102 20.9431 51.7739 20.6287L61.7935 8.68866C62.2671 8.12446 62.1934 7.28323 61.6292 6.8099C61.0649 6.33639 60.2236 6.41 59.7505 6.9742L49.7308 18.9142C49.2573 19.4784 49.3309 20.3195 49.8951 20.793Z" fill="#49C5B6"/>
<path d="M44.237 16.4738C44.3526 16.5047 44.4687 16.5195 44.5831 16.5195C45.1718 16.5195 45.7107 16.1265 45.8704 15.5307L49.5813 1.67915C49.772 0.967725 49.3497 0.236385 48.6382 0.0457711C47.9273 -0.144843 47.1956 0.277282 47.0049 0.988884L43.2939 14.8404C43.1033 15.552 43.5256 16.2832 44.237 16.4738Z" fill="#49C5B6"/>
</svg>
