<svg width="25" height="36" viewBox="0 0 25 36" fill="none" xmlns="http://www.w3.org/2000/svg">
<path d="M0 12.4164C0 19.2747 12.0761 35.5643 12.4164 35.5643C12.8825 35.5643 24.8328 19.2747 24.8328 12.4164C24.8328 10.7858 24.5116 9.17126 23.8876 7.66484C23.2636 6.15841 22.3491 4.78964 21.1961 3.63667C20.0431 2.48371 18.6743 1.56912 17.1679 0.945141C15.6615 0.321159 14.0469 0 12.4164 0C10.7858 0 9.17126 0.321159 7.66484 0.945141C6.15841 1.56912 4.78964 2.48371 3.63667 3.63667C2.48371 4.78964 1.56912 6.15841 0.945141 7.66484C0.321159 9.17126 -2.4297e-08 10.7858 0 12.4164Z" fill="#005F5A"/>
<path d="M12.4164 22.6072C17.9983 22.6072 22.5233 18.0822 22.5233 12.5003C22.5233 6.91835 17.9983 2.39332 12.4164 2.39332C6.83445 2.39332 2.30942 6.91835 2.30942 12.5003C2.30942 18.0822 6.83445 22.6072 12.4164 22.6072Z" fill="white"/>
<g clip-path="url(#clip0_24501_139289)">
<path d="M15.9409 11.236C16.2592 10.7217 16.4342 10.1318 16.4479 9.52715C16.4615 8.92253 16.3132 8.32527 16.0183 7.79724C15.7235 7.2692 15.2928 6.82961 14.771 6.524C14.2491 6.21839 13.655 6.05787 13.0502 6.05908H9.65173C9.3942 6.05908 9.14722 6.16138 8.96512 6.34348C8.78303 6.52558 8.68073 6.77256 8.68073 7.03008V16.7401C8.68073 16.9976 8.78303 17.2446 8.96512 17.4267C9.14722 17.6088 9.3942 17.7111 9.65173 17.7111H14.5067C15.2803 17.7119 16.031 17.4485 16.6346 16.9646C17.2381 16.4806 17.6583 15.8051 17.8256 15.0498C17.9929 14.2945 17.8972 13.5047 17.5545 12.8112C17.2118 12.1176 16.6425 11.5619 15.9409 11.236ZM10.6227 8.00108H13.0502C13.4365 8.00108 13.807 8.15453 14.0801 8.42768C14.3533 8.70083 14.5067 9.07129 14.5067 9.45758C14.5067 9.84387 14.3533 10.2143 14.0801 10.4875C13.807 10.7606 13.4365 10.9141 13.0502 10.9141H10.6227V8.00108ZM14.5067 15.7691H10.6227V12.8561H14.5067C14.893 12.8561 15.2635 13.0095 15.5366 13.2827C15.8098 13.5558 15.9632 13.9263 15.9632 14.3126C15.9632 14.6989 15.8098 15.0693 15.5366 15.3425C15.2635 15.6156 14.893 15.7691 14.5067 15.7691Z" fill="#F0643E"/>
</g>
<defs>
<clipPath id="clip0_24501_139289">
<rect width="11.652" height="11.652" fill="white" transform="translate(7.22424 6.05905)"/>
</clipPath>
</defs>
</svg>
