<svg width="64" height="64" viewBox="0 0 64 64" fill="none" xmlns="http://www.w3.org/2000/svg">
<path d="M20.0493 26.5039L19.916 26.7348" stroke="#9AA7A6" stroke-width="4.66667" stroke-linecap="round" stroke-linejoin="round" stroke-dasharray="4 8"/>
<path d="M18.3239 45.995C15.0322 43.9795 12.5255 40.8075 11.3695 37.0441M35.9061 48.3395H28.9965M11.3614 27.6614C12.5194 23.8683 15.0486 20.6737 18.3713 18.6551M11.3649 37.0433H8V27.6361H11.3553M18.3617 18.624V11L27.4645 16.3437M28.9853 48.3486V53.6729H18.3186V45.9883M46.5749 46.9185V53.6729H35.9083V48.3526M56 32.3438C56 38.8403 52.128 44.4326 46.5659 46.9387" stroke="#9AA7A6" stroke-width="4.66667" stroke-linecap="round" stroke-linejoin="round" stroke-dasharray="5.33 8"/>
<path d="M34.7585 21.7139L49.1526 28.1114M34.7681 21.7189C34.7014 21.2689 34.667 20.8085 34.667 20.3399C34.667 15.1853 38.8457 11.0066 44.0003 11.0066C49.155 11.0066 53.3337 15.1853 53.3337 20.3399C53.3337 23.5842 51.6785 26.4418 49.1662 28.1143L34.7681 21.7189Z" stroke="#9AA7A6" stroke-width="4.66667" stroke-linecap="round" stroke-linejoin="round" stroke-dasharray="5.33 8"/>
</svg>
