<?xml version="1.0" encoding="utf-8"?>
<!-- Generator: Adobe Illustrator 25.4.1, SVG Export Plug-In . SVG Version: 6.00 Build 0)  -->
<svg version="1.1" id="Capa_1" xmlns="http://www.w3.org/2000/svg" xmlns:xlink="http://www.w3.org/1999/xlink" x="0px" y="0px"
	 viewBox="0 0 360 320" style="enable-background:new 0 0 360 320;" xml:space="preserve">
<style type="text/css">
	.st0{fill:#F0643C;}
	.st1{fill:#005F5A;}
</style>
<path class="st0" d="M359.8,258c0.1,0,0.3,0,0.4,0v-19.8c-0.1,0-0.3,0-0.4,0c-16.7,0-30.1-13.5-30.1-30.1V208H310v0.1
	C310.1,235.7,332.4,258,359.8,258z"/>
<path class="st1" d="M45.2,120c0,24.8-20.2,45-44.9,45c-0.1,0-0.2,0-0.3,0l0-17.8c0.1,0,0.2,0,0.3,0c15,0,27.1-12.1,27.1-27.2
	S15.3,92.8,0.3,92.8c-0.1,0-0.2,0-0.3,0L0,75c0.1,0,0.2,0,0.3,0C25.1,75,45.2,95.2,45.2,120z"/>
</svg>
