<svg xmlns="http://www.w3.org/2000/svg" width="219.568" height="228.501" viewBox="0 0 219.568 228.501">
    <defs>
        <style>
            .cls-error-1{fill:#e3e3e3}.cls-error-2{fill:#707070}.cls-error-3{fill:#fff}
        </style>
    </defs>
    <g id="Grupo_2142" transform="translate(-99 -215)">
        <path id="Trazado_5777" d="M50.027 7.72c-4.066 0-10.927 12.452-12.96 16.772-1.271 2.541-5.083.762-3.812-1.779C35.542 17.631 43.674 3.4 50.027 3.4S64.512 17.631 66.8 22.459a2.106 2.106 0 1 1-3.812 1.779C60.955 19.918 54.093 7.72 50.027 7.72" class="cls-error-1" transform="rotate(149 58.03 145.359)"/>
        <path id="Trazado_5778" d="M50.027 7.72c-4.066 0-10.927 12.452-12.96 16.772-1.271 2.541-5.083.762-3.812-1.779C35.542 17.631 43.674 3.4 50.027 3.4S64.512 17.631 66.8 22.459a2.106 2.106 0 1 1-3.812 1.779C60.955 19.918 54.093 7.72 50.027 7.72" class="cls-error-1" transform="rotate(-115 305.855 138.932)"/>
        <path id="Trazado_5781" d="M50.027 7.72c-4.066 0-10.927 12.452-12.96 16.772-1.271 2.541-5.083.762-3.812-1.779C35.542 17.631 43.674 3.4 50.027 3.4S64.512 17.631 66.8 22.459a2.106 2.106 0 1 1-3.812 1.779C60.955 19.918 54.093 7.72 50.027 7.72" class="cls-error-1" transform="rotate(36 -474.653 319.729)"/>
        <path id="Trazado_5783" d="M50.027 7.72c-4.066 0-10.927 12.452-12.96 16.772-1.271 2.541-5.083.762-3.812-1.779C35.542 17.631 43.674 3.4 50.027 3.4S64.512 17.631 66.8 22.459a2.106 2.106 0 1 1-3.812 1.779C60.955 19.918 54.093 7.72 50.027 7.72" class="cls-error-1" transform="rotate(-125.03 224.559 64.022)"/>
        <path id="Trazado_7" d="M39.3 5c-1.5 0-4.044 4.608-4.8 6.207a.778.778 0 1 1-1.411-.658C33.94 8.666 36.95 3.4 39.3 3.4s5.36 5.266 6.207 7.053a.779.779 0 1 1-1.411.658C43.345 9.513 40.805 5 39.3 5" class="cls-error-1" transform="rotate(51 -204.494 209.867)"/>
        <path id="Trazado_5779" d="M39.3 5c-1.5 0-4.044 4.608-4.8 6.207a.778.778 0 1 1-1.411-.658C33.94 8.666 36.95 3.4 39.3 3.4s5.36 5.266 6.207 7.053a.779.779 0 1 1-1.411.658C43.345 9.513 40.805 5 39.3 5" class="cls-error-1" transform="rotate(-89.03 357.27 79.237)"/>
        <path id="Trazado_5821" d="M39.3 5c-1.5 0-4.044 4.608-4.8 6.207a.778.778 0 1 1-1.411-.658C33.94 8.666 36.95 3.4 39.3 3.4s5.36 5.266 6.207 7.053a.779.779 0 1 1-1.411.658C43.345 9.513 40.805 5 39.3 5" class="cls-error-1" transform="rotate(138 101.16 224.299)"/>
        <path id="Trazado_5782" d="M39.3 5c-1.5 0-4.044 4.608-4.8 6.207a.778.778 0 1 1-1.411-.658C33.94 8.666 36.95 3.4 39.3 3.4s5.36 5.266 6.207 7.053a.779.779 0 1 1-1.411.658C43.345 9.513 40.805 5 39.3 5" class="cls-error-1" transform="rotate(65 -30.478 338.725)"/>
        <path id="Trazado_5780" d="M39.3 5c-1.5 0-4.044 4.608-4.8 6.207a.778.778 0 1 1-1.411-.658C33.94 8.666 36.95 3.4 39.3 3.4s5.36 5.266 6.207 7.053a.779.779 0 1 1-1.411.658C43.345 9.513 40.805 5 39.3 5" class="cls-error-1" transform="rotate(-121 206.288 182.662)"/>
        <circle id="Elipse_942" cx="2.5" cy="2.5" r="2.5" class="cls-error-2" transform="translate(115.142 299.168)"/>
        <circle id="Elipse_944" cx="3" cy="3" r="3" class="cls-error-2" transform="translate(106.142 311.168)"/>
        <circle id="Elipse_945" cx="3" cy="3" r="3" class="cls-error-2" transform="translate(270.142 412.168)"/>
        <circle id="Elipse_950" cx="3" cy="3" r="3" class="cls-error-2" transform="translate(174.142 241.168)"/>
        <circle id="Elipse_947" cx="3" cy="3" r="3" class="cls-error-2" transform="translate(112.142 413.168)"/>
        <circle id="Elipse_948" cx="1.5" cy="1.5" r="1.5" class="cls-error-2" transform="translate(115.142 404.168)"/>
        <circle id="Elipse_949" cx="1.5" cy="1.5" r="1.5" class="cls-error-2" transform="translate(297.142 382.168)"/>
        <circle id="Elipse_960" cx="1.5" cy="1.5" r="1.5" class="cls-error-2" transform="translate(296.142 326.168)"/>
        <circle id="Elipse_946" cx="3" cy="3" r="3" class="cls-error-2" transform="translate(282.142 266.168)"/>
        <circle id="Elipse_943" cx="2" cy="2" r="2" class="cls-error-2" transform="translate(307.142 244.168)"/>
        <g id="Page-1" transform="translate(144 250.973)">
            <g id="_038---Cloud-Error" transform="translate(0 .027)">
                <path id="Shape" d="M29.918 87.76h-2.41a26.508 26.508 0 1 1 0-53.017 24.822 24.822 0 0 1 4.482.386 21.689 21.689 0 0 1 18.725-12.436 31.328 31.328 0 0 1 61.138 9.639 22.244 22.244 0 0 1 0 2.53c.819 0 1.687-.12 2.41-.12a26.508 26.508 0 0 1 0 53.017z" class="cls-error-1" transform="translate(1.41 1.34)"/>
                <path id="Shape-2" d="M51.869 16.411a2.41 2.41 0 0 1-1.831-.843A19.279 19.279 0 0 0 35.41 8.82a2.41 2.41 0 1 1 0-4.82 24.1 24.1 0 0 1 18.29 8.41 2.437 2.437 0 0 1-1.831 4z" class="cls-error-3" transform="translate(46.526 5.574)"/>
                <path id="Shape-3" fill="#e8edfc" d="M68.012 121.077h48.2a16.869 16.869 0 0 0 14.1-25.978l-48.2-72.561a16.869 16.869 0 0 0-28.147 0L5.741 95.051a16.869 16.869 0 0 0 14.074 26.026z" transform="translate(4.284 21.039)"/>
                <path id="Shape-4" d="M14.239 105.743a7.061 7.061 0 0 1-6.386-3.783 6.916 6.916 0 0 1 .337-7.23l48.2-72.489a7.23 7.23 0 0 1 12.049 0l48.2 72.561a6.868 6.868 0 0 1 .337 7.23 7.061 7.061 0 0 1-6.338 3.711z" class="cls-error-3" transform="translate(9.86 26.734)"/>
                <path id="Shape-5" d="M41.459 34.23c0 4-7.23 26.508-7.23 26.508S27 38.23 27 34.23a7.23 7.23 0 1 1 14.459 0z" class="cls-error-1" transform="translate(38.066 38.001)"/>
                <path id="Oval" d="M7.23 0A7.23 7.23 0 1 1 0 7.23 7.23 7.23 0 0 1 7.23 0z" class="cls-error-1" transform="translate(65.066 108.378)"/>
                <path id="Shape-6" d="M27.275 66.88a26.508 26.508 0 0 1 3.808-51.619 26.508 26.508 0 1 0-4.338 52.752" class="cls-error-3" transform="translate(1.258 21.087)"/>
                <path id="Shape-7" d="M7.23 18l3.615 3.205A24.315 24.315 0 0 0 4.82 37.279H0A29.039 29.039 0 0 1 7.23 18z" class="cls-error-3" transform="translate(0 25.312)"/>
                <g id="Grupo_2136">
                    <path id="Shape-8" d="M50.038 15.567A2.418 2.418 0 0 0 53.7 12.41 24.1 24.1 0 0 0 35.41 4a2.41 2.41 0 0 0 0 4.82 19.279 19.279 0 0 1 14.628 6.748z" class="cls-error-2" transform="translate(46.526 5.574)"/>
                    <path id="Shape-9" d="M3.14 25.89a2.41 2.41 0 1 0-2.41-2.41 2.41 2.41 0 0 0 2.41 2.41z" class="cls-error-2" transform="translate(1.029 29.64)"/>
                    <path id="Shape-10" d="M144.592 62.618A28.918 28.918 0 0 0 115.673 33.7a33.738 33.738 0 0 0-65.307-11.833A23.93 23.93 0 0 0 32.1 33.917a28.172 28.172 0 0 0-3.181-.217A28.918 28.918 0 0 0 7.23 43.339a2.41 2.41 0 0 0 .289 3.47 2.554 2.554 0 0 0 3.326-.265 24.1 24.1 0 0 1 18.074-8.025 23.785 23.785 0 0 1 13.351 4.049 2.433 2.433 0 1 0 2.7-4.049 28.533 28.533 0 0 0-7.856-3.687 19.279 19.279 0 0 1 15.204-8.362h.53a19.5 19.5 0 0 1 8.8 2.024 2.41 2.41 0 1 0 2.145-4.314 24.316 24.316 0 0 0-8.194-2.41 28.918 28.918 0 0 1 55.255 11.93v.41a28.46 28.46 0 0 0-11.23 4.41 2.413 2.413 0 1 0 2.7 4 23.785 23.785 0 0 1 13.351-4 24.121 24.121 0 0 1 2.1 48.2L88.394 42.3a19.355 19.355 0 0 0-32.172-.024L26.774 86.717A24.1 24.1 0 0 1 4.82 62.618a2.41 2.41 0 0 0-4.82 0 28.75 28.75 0 0 0 23.81 28.436L8.025 114.767A19.158 19.158 0 0 0 24.1 144.553h96.394a19.279 19.279 0 0 0 16.1-29.738l-15.86-23.761a28.726 28.726 0 0 0 23.858-28.436zm-11.4 69.524a14.266 14.266 0 0 1-12.7 7.591H24.1a14.266 14.266 0 0 1-12.772-7.615 14.074 14.074 0 0 1 .723-14.676l48.2-72.489a14.484 14.484 0 0 1 24.1.024l48.2 72.537a14.025 14.025 0 0 1 .642 14.629z" class="cls-error-2" transform="translate(0 -.027)"/>
                    <path id="Shape-11" d="M63.816 18a9.639 9.639 0 0 0-8.025 4.29L7.594 94.778a9.35 9.35 0 0 0-.458 9.639 9.639 9.639 0 0 0 8.483 5.157h96.394a9.639 9.639 0 0 0 8.507-5.061 9.326 9.326 0 0 0-.434-9.639l-48.2-72.561A9.639 9.639 0 0 0 63.816 18zm52.39 84.345a4.651 4.651 0 0 1-4.193 2.41H15.619a4.651 4.651 0 0 1-4.265-2.41 4.482 4.482 0 0 1 .241-4.82l48.2-72.489a4.82 4.82 0 0 1 8.073 0l48.2 72.537a4.434 4.434 0 0 1 .145 4.772z" class="cls-error-2" transform="translate(8.48 25.312)"/>
                    <path id="Shape-12" d="M26 35.639c0 4.169 6.121 23.424 7.35 27.256a2.41 2.41 0 0 0 4.579 0c1.229-3.832 7.35-23.086 7.35-27.256a9.639 9.639 0 1 0-19.279 0zm14.459 0a137.626 137.626 0 0 1-4.82 18.435 137.628 137.628 0 0 1-4.82-18.435 4.82 4.82 0 0 1 9.639 0z" class="cls-error-2" transform="translate(36.657 36.591)"/>
                    <path id="Shape-13" d="M35.639 44a9.639 9.639 0 1 0 9.639 9.639A9.639 9.639 0 0 0 35.639 44zm0 14.459a4.82 4.82 0 1 1 4.82-4.82 4.82 4.82 0 0 1-4.82 4.82z" class="cls-error-2" transform="translate(36.657 61.968)"/>
                </g>
            </g>
        </g>
    </g>
</svg>
