<svg width="40" height="49" viewBox="0 0 40 49" fill="none" xmlns="http://www.w3.org/2000/svg">
<g clip-path="url(#clip0)">
<path d="M26.1599 8.24646V17.2434C29.5511 19.4927 31.7311 23.2414 31.7311 27.7399C31.7311 34.4876 26.4022 39.9857 19.8622 39.9857C13.3222 39.9857 7.99332 34.4876 7.99332 27.7399C7.99332 23.4913 10.1733 19.7426 13.3222 17.4933V8.49638C5.57111 11.2454 0 18.9928 0 27.7399C0 38.9861 8.96221 48.2329 19.8622 48.2329C30.7622 48.2329 39.7244 38.9861 39.7244 27.7399C39.7244 18.7429 34.1533 10.9955 26.1599 8.24646Z" fill="#005F5A"/>
<path d="M23.2523 0H16.4701V21.4927H23.2523V0Z" fill="#F0643C"/>
</g>
<defs>
<clipPath id="clip0">
<rect width="40" height="48.75" fill="white"/>
</clipPath>
</defs>
</svg>
