<svg width="64" height="14" viewBox="0 0 64 14" fill="none" xmlns="http://www.w3.org/2000/svg">
<g clip-path="url(#clip0_15656_126366)">
<path d="M30.7423 13.7824L24.5939 7.10879V13.7824H22.3581V2.32123H23.0568L29.1354 8.70465V2.32123H31.3712V13.7824H30.7423Z" fill="#005F5A"/>
<path d="M40.6637 5.0777C38.4978 3.62692 35.2838 5.00516 35.2838 8.05179C35.2838 11.2435 38.7074 12.5492 40.8035 10.9533L42.2008 12.6217C41.2227 13.4922 39.965 14 38.5677 14C35.4235 14 32.8384 11.316 32.8384 8.05179C32.8384 4.78755 35.4235 2.10361 38.5677 2.10361C39.8952 2.10361 41.0829 2.61138 42.0611 3.33677L40.6637 5.0777Z" fill="#005F5A"/>
<path d="M63.441 13.7824L57.2227 7.10879V13.7824H54.9869V2.32123H55.6855L61.7641 8.70465V2.32123H64V13.7824H63.441Z" fill="#005F5A"/>
<path d="M15.8604 2.32123H15.2316L9.64204 13.7824H12.0875L13.1355 11.6787H17.677L18.6551 13.7824H21.1006L15.8604 2.32123ZM15.511 6.81864L16.7687 9.57511H14.1835L15.511 6.81864Z" fill="#005F5A"/>
<path d="M7.75546 7.4715C8.1048 6.96373 8.31441 6.31088 8.31441 5.65803C8.31441 3.84456 6.91703 2.39378 5.10044 2.39378H4.9607H2.30568H2.16594H0V4.49741V6.89119V8.99482V11.8238V13.7824H2.16594H2.30568H5.58952H5.72926C7.61572 13.7824 9.15284 12.1865 9.15284 10.3005C9.15284 9.1399 8.59389 8.05182 7.75546 7.4715ZM2.16594 4.42487H2.30568H4.9607C5.58952 4.42487 6.14847 4.93264 6.14847 5.58549C6.14847 6.23834 5.58952 6.74612 4.9607 6.74612H2.30568H2.16594V4.42487ZM2.30568 11.6788H2.16594V8.84974H2.30568H5.58952C6.35808 8.84974 6.9869 9.50259 6.9869 10.3005C6.9869 11.0984 6.35808 11.6788 5.58952 11.6788H2.30568Z" fill="#005F5A"/>
<path d="M49.677 2.39378V5.00518C50.6552 5.65803 51.284 6.74612 51.284 8.05182C51.284 10.0104 49.7469 11.6062 47.8604 11.6062C45.9739 11.6062 44.4368 10.0104 44.4368 8.05182C44.4368 6.81866 45.0656 5.73057 45.9739 5.07772V2.46632C43.7381 3.26425 42.1311 5.51296 42.1311 8.05182C42.1311 11.3161 44.7163 14 47.8604 14C51.0045 14 53.5896 11.3161 53.5896 8.05182C53.5896 5.44042 51.9827 3.19171 49.677 2.39378Z" fill="#005F5A"/>
<path d="M48.8383 0H46.882V6.23834H48.8383V0Z" fill="#F0643C"/>
</g>
<defs>
<clipPath id="clip0_15656_126366">
<rect width="64" height="14" fill="white"/>
</clipPath>
</defs>
</svg>
