<svg width="100" height="22" viewBox="0 0 100 22" fill="none" xmlns="http://www.w3.org/2000/svg">
<path d="M2.26004 15.29C1.68004 15.29 1.11999 15.08 0.709992 14.7C0.289992 14.32 0.040041 13.8 0.010041 13.25V19.6101C4.09869e-05 19.9001 0.0499433 20.18 0.159943 20.45C0.269943 20.72 0.439934 20.9599 0.649934 21.1599C0.859934 21.3699 1.10991 21.5299 1.37991 21.6399C1.65991 21.7499 1.96004 21.8101 2.26004 21.8101C2.56004 21.8101 2.84991 21.7499 3.12991 21.6399C3.40991 21.5299 3.66015 21.3699 3.87015 21.1599C4.08015 20.9599 4.24013 20.72 4.35013 20.45C4.46013 20.18 4.52004 19.9001 4.51004 19.6101V13.24C4.48004 13.8 4.23009 14.32 3.81009 14.7C3.39009 15.08 2.84004 15.29 2.26004 15.29Z" fill="#00C49A"/>
<path d="M2.26001 15.29C3.50001 15.29 4.52002 14.3299 4.52002 13.1299C4.52002 11.9399 3.50001 10.97 2.26001 10.97C1.01001 10.97 0 11.9399 0 13.1299C0 14.3299 1.01001 15.29 2.26001 15.29Z" fill="#7FE1CC"/>
<path d="M21.6199 4.52002C21.2099 4.52002 20.8097 4.41997 20.4597 4.21997C20.1097 4.01997 19.8296 3.7399 19.6296 3.3999C19.4396 3.0599 19.3399 2.67003 19.3599 2.28003C19.3699 1.89003 19.4997 1.51994 19.7197 1.18994L11.9297 11.5801L13.6697 13.9099C13.9697 14.2499 14.1497 14.6799 14.1897 15.1299C14.2197 15.5799 14.1099 16.0299 13.8599 16.4099L19.3599 9.06006V19.5C19.3899 18.94 19.6398 18.42 20.0598 18.04C20.4798 17.66 21.0299 17.4399 21.6099 17.4399C22.1899 17.4399 22.7497 17.66 23.1697 18.04C23.5897 18.42 23.8399 18.94 23.8699 19.5V2.46997C23.8399 3.02997 23.5897 3.54993 23.1697 3.92993C22.7497 4.30993 22.1899 4.52002 21.6199 4.52002Z" fill="#00B6AB"/>
<path d="M11.9399 13.1299C12.2699 13.1299 12.5999 13.2002 12.8999 13.3402C13.1999 13.4702 13.4599 13.67 13.6799 13.91L11.9399 11.5902L4.09008 1.10016C3.92008 0.870162 3.69994 0.680093 3.44994 0.530093C3.19994 0.380093 2.91987 0.280044 2.62987 0.230044C2.32987 0.190044 2.03999 0.200074 1.74999 0.260074C1.45999 0.320074 1.18994 0.440171 0.94994 0.610171C0.70994 0.770171 0.500087 0.980035 0.350087 1.22003C0.190087 1.46003 0.090028 1.73007 0.040028 2.01007C-0.00997196 2.29007 5.73434e-05 2.57016 0.0700573 2.85016C0.130057 3.12016 0.259921 3.38017 0.429921 3.61017L10.01 16.42C10.02 16.44 10.04 16.46 10.05 16.47C9.83004 16.15 9.69992 15.7699 9.67992 15.3799C9.65992 14.9899 9.75994 14.6101 9.94994 14.2601C10.1399 13.9201 10.43 13.64 10.78 13.44C11.13 13.24 11.5299 13.1299 11.9399 13.1299Z" fill="#00C49A"/>
<path d="M70.7598 2.91992C68.6798 1.13992 65.8598 0.199951 62.5898 0.199951H55.8398C56.4298 0.209951 56.9897 0.450098 57.3997 0.850098C57.8097 1.2501 58.0398 1.79011 58.0398 2.36011C58.0398 2.92011 57.8097 3.46011 57.3997 3.86011C56.9897 4.27011 56.4298 4.50001 55.8398 4.51001H62.5898C64.7298 4.51001 66.5198 5.06988 67.7598 6.12988C69.0698 7.24988 69.7297 8.89 69.7297 11C69.7297 13.11 69.0698 14.7301 67.7598 15.8401C66.5098 16.9001 64.7298 17.46 62.5898 17.46H58.0999V19.3799V19.3899C58.0999 19.4599 58.1099 19.5301 58.1099 19.6101C58.1099 20.1801 57.8697 20.7299 57.4497 21.1299C57.0197 21.5399 56.4499 21.77 55.8499 21.77H62.5898C65.8498 21.77 68.6698 20.8301 70.7498 19.0701C73.0298 17.1301 74.2397 14.34 74.2397 10.99C74.2397 7.64999 73.0398 4.85992 70.7598 2.91992Z" fill="#0099CE"/>
<path d="M58.0999 19.3799V8.84009C58.0799 8.27009 57.8397 7.74009 57.4197 7.34009C56.9997 6.95009 56.4298 6.72998 55.8398 6.72998C55.2498 6.72998 54.6898 6.95009 54.2698 7.34009C53.8498 7.74009 53.5998 8.27009 53.5898 8.84009V19.6101C53.5898 19.0501 53.8097 18.5201 54.2097 18.1201C54.6097 17.7101 55.1497 17.47 55.7297 17.45C56.3097 17.42 56.8798 17.6 57.3198 17.96C57.7598 18.32 58.0399 18.8299 58.0999 19.3799Z" fill="#00A7BD"/>
<path d="M85.9998 19.8402C85.9998 19.2702 86.2397 18.7201 86.6597 18.3101C87.0797 17.9101 87.6598 17.68 88.2498 17.68C86.8698 17.68 85.5199 17.2801 84.3699 16.5501C83.2299 15.8101 82.3298 14.7701 81.7998 13.5401C81.2798 12.3201 81.1397 10.98 81.4097 9.68C81.6797 8.38 82.3398 7.19008 83.3198 6.26008C83.7398 5.85008 83.9697 5.30005 83.9697 4.73005C83.9697 4.16005 83.7198 3.61003 83.2998 3.21003C82.8698 2.81003 82.2997 2.58016 81.6997 2.59016C81.0997 2.59016 80.5299 2.82005 80.1099 3.23005C78.5299 4.75005 77.4398 6.69012 76.9898 8.80012C76.5498 10.9101 76.7599 13.1002 77.5999 15.0902C78.4299 17.0902 79.8697 18.8101 81.7197 20.0301C83.5697 21.2601 85.7498 21.9401 87.9998 21.9901H88.0098C87.4598 21.9301 86.9498 21.6801 86.5698 21.2801C86.1998 20.8801 85.9998 20.3702 85.9998 19.8402Z" fill="#0099CE"/>
<path d="M88.25 4.32007C89.5 4.32007 90.51 3.34991 90.51 2.15991C90.51 0.969912 89.5 0 88.25 0C87.01 0 86 0.969912 86 2.15991C86 3.34991 87.01 4.32007 88.25 4.32007Z" fill="#7FC4EF"/>
<path d="M11.9397 17.45C13.1797 17.45 14.1897 16.49 14.1897 15.29C14.1897 14.1 13.1797 13.1299 11.9397 13.1299C10.6897 13.1299 9.67969 14.1 9.67969 15.29C9.67969 16.49 10.6897 17.45 11.9397 17.45Z" fill="#7FE1CC"/>
<path d="M21.6204 21.77C22.8604 21.77 23.8704 20.8001 23.8704 19.6101C23.8704 18.4201 22.8604 17.45 21.6204 17.45C20.3704 17.45 19.3604 18.4201 19.3604 19.6101C19.3604 20.8001 20.3704 21.77 21.6204 21.77Z" fill="#7FDAD5"/>
<path d="M21.6204 4.52002C22.8604 4.52002 23.8704 3.55011 23.8704 2.36011C23.8704 1.17011 22.8604 0.199951 21.6204 0.199951C20.3704 0.199951 19.3604 1.17011 19.3604 2.36011C19.3604 3.55011 20.3704 4.52002 21.6204 4.52002Z" fill="#7FDAD5"/>
<path d="M55.8499 21.76C57.0999 21.76 58.1099 20.8001 58.1099 19.6001C58.1099 18.4101 57.0999 17.45 55.8499 17.45C54.5999 17.45 53.5898 18.4101 53.5898 19.6001C53.5898 20.8001 54.5999 21.76 55.8499 21.76Z" fill="#7FD3DE"/>
<path d="M55.8398 4.51001C57.0898 4.51001 58.0999 3.55011 58.0999 2.36011C58.0999 1.17011 57.0898 0.209961 55.8398 0.209961C54.5998 0.209961 53.5898 1.17011 53.5898 2.36011C53.5898 3.55011 54.5998 4.51001 55.8398 4.51001Z" fill="#7FCCE6"/>
<path d="M88.4697 0.0100098C89.0397 0.0600098 89.5597 0.319971 89.9397 0.719971C90.3097 1.12997 90.5198 1.64995 90.5098 2.19995C90.4998 2.73995 90.2696 3.2599 89.8796 3.6499C89.4896 4.0399 88.9596 4.28006 88.3896 4.31006C90.2196 4.35006 91.9697 5.0801 93.2397 6.3501C94.5197 7.6101 95.2197 9.30006 95.2097 11.0601C95.1897 12.8101 94.4497 14.49 93.1497 15.73C91.8497 16.97 90.0898 17.6699 88.2598 17.6799C88.8398 17.6699 89.3998 17.88 89.8198 18.26C90.2498 18.64 90.4998 19.16 90.5298 19.72C90.5698 20.27 90.3698 20.82 89.9998 21.24C89.6198 21.66 89.0898 21.93 88.5098 21.99C91.5098 21.92 94.3697 20.7299 96.4697 18.6699C98.5697 16.6199 99.7397 13.85 99.7297 10.98C99.7297 8.10998 98.5497 5.35005 96.4397 3.30005C94.3397 1.25005 91.4697 0.0700098 88.4697 0.0100098Z" fill="#008AE0"/>
<path d="M88.25 22C89.5 22 90.51 21.0301 90.51 19.8401C90.51 18.6501 89.5 17.6799 88.25 17.6799C87.01 17.6799 86 18.6501 86 19.8401C86 21.0301 87.01 22 88.25 22Z" fill="#7FCCE6"/>
<path d="M36.6903 19.8402C36.6903 19.2702 36.9304 18.7201 37.3504 18.3101C37.7804 17.9101 38.3503 17.68 38.9503 17.68C37.5703 17.68 36.2204 17.2801 35.0704 16.5501C33.9204 15.8101 33.0303 14.7701 32.5003 13.5401C31.9703 12.3201 31.8304 10.98 32.1004 9.68C32.3704 8.38 33.0404 7.19008 34.0204 6.26008C34.4404 5.85008 34.6702 5.30005 34.6602 4.73005C34.6602 4.16005 34.4203 3.61003 33.9903 3.21003C33.5703 2.81003 32.9902 2.58016 32.3902 2.59016C31.8002 2.59016 31.2204 2.82005 30.8004 3.23005C29.2204 4.75005 28.1303 6.69012 27.6903 8.80012C27.2403 10.9101 27.4504 13.1002 28.2904 15.0902C29.1304 17.0902 30.5602 18.8101 32.4102 20.0301C34.2602 21.2601 36.4403 21.9401 38.6903 21.9901H38.7003C38.1503 21.9301 37.6404 21.6801 37.2704 21.2801C36.9004 20.8801 36.6903 20.3702 36.6903 19.8402Z" fill="#00B6AB"/>
<path d="M38.95 4.32007C40.2 4.32007 41.21 3.34991 41.21 2.15991C41.21 0.969912 40.2 0 38.95 0C37.7 0 36.6899 0.969912 36.6899 2.15991C36.6899 3.34991 37.7 4.32007 38.95 4.32007Z" fill="#7FD3DE"/>
<path d="M39.1702 0.0100098C39.7302 0.0600098 40.2501 0.319971 40.6301 0.719971C41.0101 1.12997 41.2102 1.64995 41.2002 2.19995C41.1902 2.73995 40.9703 3.2599 40.5803 3.6499C40.1803 4.0399 39.6503 4.28006 39.0803 4.31006C40.9203 4.35006 42.6602 5.0801 43.9402 6.3501C45.2102 7.6101 45.9201 9.30006 45.9001 11.0601C45.8901 12.8101 45.1503 14.49 43.8503 15.73C42.5503 16.97 40.7902 17.6699 38.9502 17.6799C39.5302 17.6799 40.0802 17.89 40.5002 18.27C40.9202 18.65 41.1702 19.17 41.2002 19.72C41.2302 20.27 41.0502 20.81 40.6702 21.23C40.3002 21.65 39.7802 21.92 39.2102 21.98C42.2002 21.9 45.0404 20.6999 47.1204 18.6499C49.2104 16.5899 50.3704 13.84 50.3604 10.98C50.3604 8.10998 49.1903 5.37007 47.0903 3.32007C45.0003 1.27007 42.1602 0.0800098 39.1702 0.0100098Z" fill="#00A7BD"/>
<path d="M38.95 22C40.2 22 41.21 21.0301 41.21 19.8401C41.21 18.6501 40.2 17.6799 38.95 17.6799C37.7 17.6799 36.6899 18.6501 36.6899 19.8401C36.6899 21.0301 37.7 22 38.95 22Z" fill="#7FDAD5"/>
</svg>
