<svg width="32" height="32" viewBox="0 0 32 32" fill="none" xmlns="http://www.w3.org/2000/svg">
<rect x="0.5" y="0.5" width="31" height="31" rx="15.5" fill="white"/>
<rect x="0.5" y="0.5" width="31" height="31" rx="15.5" stroke="#CCD3D3"/>
<path fill-rule="evenodd" clip-rule="evenodd" d="M9.00098 15.998C9.00098 12.1321 12.135 8.99805 16.001 8.99805C19.867 8.99805 23.001 12.1321 23.001 15.998C23.001 19.864 19.867 22.998 16.001 22.998C12.135 22.998 9.00098 19.864 9.00098 15.998Z" stroke="#005F5A" stroke-width="1.75" stroke-miterlimit="10" stroke-linecap="round" stroke-linejoin="round"/>
<path fill-rule="evenodd" clip-rule="evenodd" d="M13 16C13 14.3431 14.3431 13 16 13C17.6569 13 19 14.3431 19 16C19 17.6569 17.6569 19 16 19C14.3431 19 13 17.6569 13 16Z" stroke="#005F5A" stroke-width="1.75" stroke-miterlimit="10" stroke-linecap="round" stroke-linejoin="round"/>
<path d="M16 8.95348V7" stroke="#005F5A" stroke-width="1.75" stroke-miterlimit="10" stroke-linecap="round" stroke-linejoin="round"/>
<path d="M16 25.0025V23.0547" stroke="#005F5A" stroke-width="1.75" stroke-miterlimit="10" stroke-linecap="round" stroke-linejoin="round"/>
<path d="M7 16H8.98388" stroke="#005F5A" stroke-width="1.75" stroke-miterlimit="10" stroke-linecap="round" stroke-linejoin="round"/>
<path d="M23.0166 16H24.9995" stroke="#005F5A" stroke-width="1.75" stroke-miterlimit="10" stroke-linecap="round" stroke-linejoin="round"/>
</svg>
