<svg xmlns="http://www.w3.org/2000/svg" width="197.142" height="203.965" viewBox="0 0 197.142 203.965">
    <defs>
        <style>
            .desconexion-1{fill:#e3e3e3}.desconexion-2{fill:#f9f9f9}.desconexion-3{fill:#707070}
        </style>
    </defs>
    <g id="Grupo_2078" transform="translate(-129.858 -222.832)">
        <path id="Trazado_5777" d="M50.027 7.72c-4.066 0-10.927 12.452-12.96 16.772-1.271 2.541-5.083.762-3.812-1.779C35.542 17.631 43.674 3.4 50.027 3.4S64.512 17.631 66.8 22.459a2.106 2.106 0 1 1-3.812 1.779C60.955 19.918 54.093 7.72 50.027 7.72" class="desconexion-1" transform="rotate(149 75.146 143.554)"/>
        <path id="Trazado_5778" d="M50.027 7.72c-4.066 0-10.927 12.452-12.96 16.772-1.271 2.541-5.083.762-3.812-1.779C35.542 17.631 43.674 3.4 50.027 3.4S64.512 17.631 66.8 22.459a2.106 2.106 0 1 1-3.812 1.779C60.955 19.918 54.093 7.72 50.027 7.72" class="desconexion-1" transform="rotate(-115 286.303 116.123)"/>
        <path id="Trazado_5781" d="M50.027 7.72c-4.066 0-10.927 12.452-12.96 16.772-1.271 2.541-5.083.762-3.812-1.779C35.542 17.631 43.674 3.4 50.027 3.4S64.512 17.631 66.8 22.459a2.106 2.106 0 1 1-3.812 1.779C60.955 19.918 54.093 7.72 50.027 7.72" class="desconexion-1" transform="rotate(36 -410.521 385.39)"/>
        <path id="Trazado_5783" d="M50.027 7.72c-4.066 0-10.927 12.452-12.96 16.772-1.271 2.541-5.083.762-3.812-1.779C35.542 17.631 43.674 3.4 50.027 3.4S64.512 17.631 66.8 22.459a2.106 2.106 0 1 1-3.812 1.779C60.955 19.918 54.093 7.72 50.027 7.72" class="desconexion-1" transform="rotate(-125.03 232.524 64.853)"/>
        <g id="desconectar" transform="translate(47.511 233)">
            <path id="Trazado_5776" d="M43.9 0A43.9 43.9 0 1 1 0 43.9 43.9 43.9 0 0 1 43.9 0z" class="desconexion-1" transform="translate(135.338 2.849)"/>
            <g id="Grupo_2077" transform="translate(135.338 2.849)">
                <path id="Trazado_5767" d="M214.749 7.528a43.693 43.693 0 0 0-25.123 7.9l5.368 9.662 8.78 2.195 8.78 6.585 8.78 8.78 6.585 17.56-4.39 8.78-8.78 8.78-1.949 17.514c.645.028 1.294.045 1.946.045a43.745 43.745 0 0 0 29.987-11.842l-12.427-14.5 2.195-13.17-2.195-17.56 6.585-8.78 8.78 10.975L255.05 34a43.908 43.908 0 0 0-40.301-26.472z" class="desconexion-2" transform="translate(-170.848 -7.528)"/>
                <path id="Trazado_5768" d="M159.771 112.772l8.78-2.195-4.39-15.365-8.78-2.195-13.336-4.445a43.956 43.956 0 0 0 17.318 49.623l9.189-12.252z" class="desconexion-2" transform="translate(-140.016 -57.896)"/>
            </g>
            <path id="Trazado_5772" d="M249.171 432.431v-15.2a9.118 9.118 0 0 0-9.118-9.118h-3.039a9.118 9.118 0 0 0-9.118 9.118v15.2z" class="desconexion-1" transform="translate(-59.295 -253.641)"/>
            <path id="Trazado_5774" d="M202.842 6.388a2.849 2.849 0 1 0-2.881 4.917 41.179 41.179 0 0 1 16.073 17.3l-3.5 3.067-6.92-8.65a2.878 2.878 0 0 0-4.5.071l-6.585 8.78a2.849 2.849 0 0 0-.548 2.063l2.143 17.148-2.127 12.761a2.852 2.852 0 0 0 .647 2.323l10.582 12.346a40.855 40.855 0 0 1-24.745 9.27L181.96 74.4l8.074-8.073a2.852 2.852 0 0 0 .534-.74l4.39-8.78a2.848 2.848 0 0 0 .119-2.275l-6.585-17.562a2.856 2.856 0 0 0-.653-1.014l-8.78-8.78a2.86 2.86 0 0 0-.305-.265l-8.78-6.586a2.853 2.853 0 0 0-1.019-.485l-7.581-1.895-3.474-6.252A40.809 40.809 0 0 1 179.239 5.7a41.315 41.315 0 0 1 8.679.919 2.849 2.849 0 0 0 1.2-5.571A47.021 47.021 0 0 0 179.239 0a46.487 46.487 0 0 0-26.475 8.241l-.032.016a2.855 2.855 0 0 0-.5.35 46.735 46.735 0 0 0 24.154 84.8V108.975l-4.943 3.708a2.849 2.849 0 1 0 3.419 4.559l12.157-9.118a2.849 2.849 0 0 0-3.419-4.559l-1.52 1.14V93.41a46.753 46.753 0 0 0 20.762-87.022zm-49.616 8.628l3.766 6.778a2.851 2.851 0 0 0 1.8 1.38l8.222 2.055 8.158 6.118 8.2 8.2 5.932 15.819-3.628 7.256-8.453 8.452a2.849 2.849 0 0 0-.817 1.7l-1.642 14.781a40.751 40.751 0 0 1-15.929-5.194l7.318-9.758a2.849 2.849 0 0 0 .091-3.29l-6.538-9.806 4.858-1.214a2.879 2.879 0 0 0 2.048-3.547l-4.39-15.365a2.849 2.849 0 0 0-2.048-1.981l-8.674-2.168-10.472-3.491a41.244 41.244 0 0 1 12.199-16.726zM138.187 46.75a41.011 41.011 0 0 1 1.129-9.572l10.484 3.495c.07.023.139.043.21.061l7.184 1.8 3.128 10.95-5.923 1.48a2.849 2.849 0 0 0-1.679 4.345l7.664 11.491-6.284 8.38a41.005 41.005 0 0 1-15.913-32.43zM209.37 74.6l-9.541-11.132 1.971-11.86a2.847 2.847 0 0 0 .017-.822l-2.052-16.418 3.688-4.916 6.482 8.1a2.878 2.878 0 0 0 4.1.365l4.259-3.727a40.864 40.864 0 0 1-8.924 40.41z" class="desconexion-3"/>
            <path id="Trazado_5775" d="M236.692 355.75c.008-.087.013-.175.013-.264V337.25v-.092l4.943-3.707a2.849 2.849 0 0 0-3.419-4.559l-12.157 9.118a2.849 2.849 0 1 0 3.419 4.559l1.52-1.14v14.057c0 .089.005.177.013.264a11.983 11.983 0 0 0-10.651 11.893v15.2a2.849 2.849 0 0 0 2.849 2.849h3.229V395a2.849 2.849 0 1 0 5.7 0v-9.308h3.419V395a2.849 2.849 0 1 0 5.7 0v-9.308h3.229a2.849 2.849 0 0 0 2.849-2.849v-15.2a11.984 11.984 0 0 0-10.656-11.893zm4.952 24.24h-15.576v-12.347a6.275 6.275 0 0 1 6.268-6.268h3.039a6.275 6.275 0 0 1 6.268 6.268z" class="desconexion-3" transform="translate(-54.617 -204.049)"/>
        </g>
        <path id="Trazado_7" d="M39.3 5c-1.5 0-4.044 4.608-4.8 6.207a.778.778 0 1 1-1.411-.658C33.94 8.666 36.95 3.4 39.3 3.4s5.36 5.266 6.207 7.053a.779.779 0 1 1-1.411.658C43.345 9.513 40.805 5 39.3 5" class="desconexion-1" transform="rotate(51 -176.31 236.131)"/>
        <path id="Trazado_5779" d="M39.3 5c-1.5 0-4.044 4.608-4.8 6.207a.778.778 0 1 1-1.411-.658C33.94 8.666 36.95 3.4 39.3 3.4s5.36 5.266 6.207 7.053a.779.779 0 1 1-1.411.658C43.345 9.513 40.805 5 39.3 5" class="desconexion-1" transform="rotate(-89.03 328.186 57.789)"/>
        <path id="Trazado_5782" d="M39.3 5c-1.5 0-4.044 4.608-4.8 6.207a.778.778 0 1 1-1.411-.658C33.94 8.666 36.95 3.4 39.3 3.4s5.36 5.266 6.207 7.053a.779.779 0 1 1-1.411.658C43.345 9.513 40.805 5 39.3 5" class="desconexion-1" transform="rotate(65 -30.696 351.948)"/>
        <path id="Trazado_5780" d="M39.3 5c-1.5 0-4.044 4.608-4.8 6.207a.778.778 0 1 1-1.411-.658C33.94 8.666 36.95 3.4 39.3 3.4s5.36 5.266 6.207 7.053a.779.779 0 1 1-1.411.658C43.345 9.513 40.805 5 39.3 5" class="desconexion-1" transform="rotate(-121 224.597 155.69)"/>
        <circle id="Elipse_942" cx="2.5" cy="2.5" r="2.5" class="desconexion-3" transform="translate(146 287)"/>
        <circle id="Elipse_944" cx="3" cy="3" r="3" class="desconexion-3" transform="translate(137 299)"/>
        <circle id="Elipse_945" cx="3" cy="3" r="3" class="desconexion-3" transform="translate(263 362)"/>
        <circle id="Elipse_950" cx="3" cy="3" r="3" class="desconexion-3" transform="translate(321 314)"/>
        <circle id="Elipse_947" cx="3" cy="3" r="3" class="desconexion-3" transform="translate(163 388)"/>
        <circle id="Elipse_948" cx="1.5" cy="1.5" r="1.5" class="desconexion-3" transform="translate(166 379)"/>
        <circle id="Elipse_949" cx="1.5" cy="1.5" r="1.5" class="desconexion-3" transform="translate(290 332)"/>
        <circle id="Elipse_946" cx="3" cy="3" r="3" class="desconexion-3" transform="translate(294 274)"/>
        <circle id="Elipse_943" cx="2" cy="2" r="2" class="desconexion-3" transform="translate(319 252)"/>
    </g>
</svg>
