<svg width="100%" height="180" viewBox="0 0 214 180" fill="none" xmlns="http://www.w3.org/2000/svg">
<g clip-path="url(#clip0)">
<g opacity="0.2">
<path d="M39.3374 50.149C42.0577 45.1828 45.3886 40.4523 49.3503 36.0752C76.098 6.50939 121.493 3.68619 151.678 29.2729L152.073 28.8349C137.628 16.5729 119.363 10.3574 100.354 11.2999C80.5149 12.2825 62.2478 20.9411 48.915 35.6795C44.8801 40.1389 41.4492 44.9961 38.6445 50.149H39.3374Z" fill="white" stroke="white" stroke-linecap="round" stroke-linejoin="round"/>
<path d="M30.4146 81.3909H29.7862C29.6419 84.0162 29.6285 86.666 29.7595 89.3292C30.7011 108.356 38.6843 125.94 52.2991 139.12L52.6944 138.682C36.7635 123.239 29.2399 102.151 30.4146 81.3909Z" fill="white" stroke="white" stroke-linecap="round" stroke-linejoin="round"/>
<path d="M169.432 50.149C168.683 48.7707 167.891 47.4147 167.056 46.0853L166.623 46.5633C167.358 47.7415 168.05 48.9397 168.714 50.149H169.432Z" fill="white" stroke="white" stroke-linecap="round" stroke-linejoin="round"/>
<path d="M178.268 81.3909H177.639C178.743 100.473 172.512 119.969 158.713 135.223C136.104 160.214 100.17 166.091 71.3613 151.86L70.9282 152.338C82.2002 157.966 94.7825 160.638 107.709 159.998C127.546 159.016 145.815 150.357 159.15 135.621C172.483 120.885 179.285 101.829 178.303 81.9711C178.292 81.7754 178.279 81.582 178.268 81.3909Z" fill="white" stroke="white" stroke-linecap="round" stroke-linejoin="round"/>
<path d="M134.135 159.629C135.218 159.176 136.309 158.693 137.37 158.191L137.119 157.657C136.064 158.155 134.983 158.636 133.908 159.085L134.135 159.629Z" fill="white" stroke="white" stroke-linecap="round" stroke-linejoin="round"/>
<path d="M39.475 133.176L39.0043 133.527C39.706 134.472 40.4388 135.41 41.1783 136.317L41.6335 135.943C40.9007 135.043 40.1746 134.112 39.475 133.176Z" fill="white" stroke="white" stroke-linecap="round" stroke-linejoin="round"/>
<path d="M35.5381 127.365L35.0363 127.674C35.6514 128.672 36.2954 129.672 36.9549 130.644L37.4412 130.312C36.7883 129.348 36.1488 128.358 35.5381 127.365Z" fill="white" stroke="white" stroke-linecap="round" stroke-linejoin="round"/>
<path d="M26.9996 108.14L26.4333 108.307C26.7642 109.438 27.124 110.574 27.5037 111.686L28.0611 111.495C27.6836 110.39 27.3283 109.261 26.9996 108.14Z" fill="white" stroke="white" stroke-linecap="round" stroke-linejoin="round"/>
<path d="M48.8197 143.65L48.4177 144.079C49.2727 144.884 50.1587 145.68 51.0514 146.447L51.4356 146C50.5473 145.238 49.668 144.448 48.8197 143.65Z" fill="white" stroke="white" stroke-linecap="round" stroke-linejoin="round"/>
<path d="M32.1269 121.225L31.5984 121.489C32.1225 122.541 32.6798 123.597 33.2506 124.624L33.7657 124.337C33.1995 123.317 32.6465 122.27 32.1269 121.225Z" fill="white" stroke="white" stroke-linecap="round" stroke-linejoin="round"/>
<path d="M29.2712 114.796L28.7227 115.012C29.1512 116.107 29.6109 117.208 30.0884 118.279L30.6258 118.041C30.155 116.977 29.6975 115.885 29.2712 114.796Z" fill="white" stroke="white" stroke-linecap="round" stroke-linejoin="round"/>
<path d="M127.486 162.068C128.605 161.714 129.733 161.33 130.837 160.925L130.635 160.372C129.54 160.772 128.421 161.156 127.308 161.508L127.486 162.068Z" fill="white" stroke="white" stroke-linecap="round" stroke-linejoin="round"/>
<path d="M113.601 164.549L113.676 165.133C114.842 164.98 116.019 164.8 117.176 164.595L117.074 164.015C115.926 164.218 114.758 164.398 113.601 164.549Z" fill="white" stroke="white" stroke-linecap="round" stroke-linejoin="round"/>
<path d="M120.522 163.328L120.649 163.904C121.797 163.648 122.954 163.366 124.088 163.062L123.935 162.493C122.809 162.795 121.661 163.077 120.522 163.328Z" fill="white" stroke="white" stroke-linecap="round" stroke-linejoin="round"/>
<path d="M54.149 148.234L53.7848 148.697C54.7086 149.424 55.6612 150.139 56.6161 150.824L56.9581 150.344C56.0121 149.666 55.0661 148.957 54.149 148.234Z" fill="white" stroke="white" stroke-linecap="round" stroke-linejoin="round"/>
<path d="M59.8608 152.333L59.5388 152.827C60.5226 153.469 61.5352 154.099 62.5478 154.699L62.8476 154.192C61.8439 153.596 60.8401 152.971 59.8608 152.333Z" fill="white" stroke="white" stroke-linecap="round" stroke-linejoin="round"/>
<path d="M74.4659 159.843C73.7264 159.556 72.9892 159.258 72.263 158.951L72.0343 159.494C72.8626 159.847 73.7087 160.183 74.5525 160.507L74.4659 159.843Z" fill="white" stroke="white" stroke-linecap="round" stroke-linejoin="round"/>
<path d="M65.9144 155.917L65.6368 156.437C66.6761 156.991 67.7398 157.529 68.8013 158.035L69.0544 157.504C68.0018 156.999 66.9448 156.466 65.9144 155.917Z" fill="white" stroke="white" stroke-linecap="round" stroke-linejoin="round"/>
<path d="M43.9163 138.618L43.4766 139.011C44.2582 139.887 45.071 140.758 45.8904 141.599L46.3123 141.187C45.4974 140.351 44.6913 139.487 43.9163 138.618Z" fill="white" stroke="white" stroke-linecap="round" stroke-linejoin="round"/>
<path d="M41.8313 35.2105L41.376 34.837C40.6299 35.7485 39.8926 36.6866 39.1909 37.6247L39.6617 37.9781C40.359 37.0445 41.0896 36.113 41.8313 35.2105Z" fill="white" stroke="white" stroke-linecap="round" stroke-linejoin="round"/>
<path d="M51.2714 24.7268C50.381 25.4893 49.4927 26.2829 48.6333 27.0876L49.0352 27.5189C49.888 26.7208 50.7673 25.9339 51.6534 25.1759L51.2714 24.7268Z" fill="white" stroke="white" stroke-linecap="round" stroke-linejoin="round"/>
<path d="M46.1014 29.5619C45.2798 30.4 44.467 31.2692 43.6809 32.145L44.1184 32.5385C44.8978 31.6693 45.7061 30.8045 46.5211 29.9731L46.1014 29.5619Z" fill="white" stroke="white" stroke-linecap="round" stroke-linejoin="round"/>
<path d="M56.339 20.7388C55.5529 21.3079 54.7712 21.8925 54.0095 22.4883L54.3715 22.9529C55.0443 22.426 55.7327 21.9125 56.4256 21.4057L56.339 20.7388Z" fill="white" stroke="white" stroke-linecap="round" stroke-linejoin="round"/>
<path d="M89.3155 7.37634L89.2133 6.79614C88.1696 6.98065 87.1192 7.19184 86.0778 7.41858L86.1555 8.00545C87.2014 7.77648 88.2629 7.56308 89.3155 7.37634Z" fill="white" stroke="white" stroke-linecap="round" stroke-linejoin="round"/>
<path d="M106.632 165.16L106.708 165.747C107.856 165.696 109.015 165.62 110.159 165.52L110.108 164.933C108.957 165.033 107.787 165.111 106.632 165.16Z" fill="white" stroke="white" stroke-linecap="round" stroke-linejoin="round"/>
<path d="M37.1302 40.5057C36.4663 41.4772 35.8156 42.4775 35.196 43.4757L35.6957 43.7869C36.3108 42.7932 36.957 41.8017 37.6143 40.837L37.1302 40.5057Z" fill="white" stroke="white" stroke-linecap="round" stroke-linejoin="round"/>
<path d="M33.3952 46.5322C32.8201 47.557 32.2605 48.6107 31.7297 49.6644L32.256 49.929C32.7823 48.8842 33.3397 47.8393 33.9082 46.8212L33.3952 46.5322Z" fill="white" stroke="white" stroke-linecap="round" stroke-linejoin="round"/>
<path d="M25.5561 66.2657C25.2696 67.4084 25.0076 68.5754 24.7722 69.7314L25.3496 69.8492C25.5828 68.7021 25.8448 67.544 26.129 66.4102L25.5561 66.2657Z" fill="white" stroke="white" stroke-linecap="round" stroke-linejoin="round"/>
<path d="M30.2016 52.8655C29.7197 53.9392 29.2534 55.0396 28.8181 56.1333L29.3644 56.3511C29.7974 55.2641 30.2571 54.1748 30.7368 53.1078L30.2016 52.8655Z" fill="white" stroke="white" stroke-linecap="round" stroke-linejoin="round"/>
<path d="M27.5813 59.4589C27.1949 60.5726 26.8285 61.7085 26.4932 62.8378L27.0572 63.0068C27.3903 61.8864 27.7545 60.7571 28.1387 59.6523L27.5813 59.4589Z" fill="white" stroke="white" stroke-linecap="round" stroke-linejoin="round"/>
<path d="M179.955 108.62C180.293 107.489 180.611 106.337 180.897 105.195L180.324 105.05C180.04 106.184 179.724 107.327 179.389 108.449L179.955 108.62Z" fill="white" stroke="white" stroke-linecap="round" stroke-linejoin="round"/>
<path d="M175.881 53.4124L176.42 53.1746C175.945 52.1009 175.437 51.0205 174.913 49.9668L174.386 50.2291C174.906 51.2761 175.41 52.3476 175.881 53.4124Z" fill="white" stroke="white" stroke-linecap="round" stroke-linejoin="round"/>
<path d="M164.893 35.4995L165.351 35.126C164.609 34.2146 163.836 33.3076 163.057 32.4318L162.617 32.8252C163.39 33.6944 164.156 34.5947 164.893 35.4995Z" fill="white" stroke="white" stroke-linecap="round" stroke-linejoin="round"/>
<path d="M140.539 156.61C141.574 156.063 142.613 155.486 143.626 154.894L143.328 154.385C142.325 154.974 141.294 155.548 140.266 156.09L140.539 156.61Z" fill="white" stroke="white" stroke-linecap="round" stroke-linejoin="round"/>
<path d="M169.081 41.1348L169.568 40.8035C168.91 39.8299 168.222 38.8606 167.522 37.9181L167.049 38.2693C167.744 39.2074 168.428 40.17 169.081 41.1348Z" fill="white" stroke="white" stroke-linecap="round" stroke-linejoin="round"/>
<path d="M103.474 6.13818V5.54909C102.302 5.54687 101.109 5.57132 99.9344 5.62245L99.9611 6.21154C101.127 6.16041 102.308 6.13596 103.474 6.13818Z" fill="white" stroke="white" stroke-linecap="round" stroke-linejoin="round"/>
<path d="M92.7884 6.83845L92.9594 6.81622C94.1208 6.66506 95.2955 6.53835 96.4547 6.43831L96.4036 5.85144C95.2378 5.95148 94.0542 6.08041 92.8839 6.2338L92.7129 6.25603L92.7884 6.83845Z" fill="white" stroke="white" stroke-linecap="round" stroke-linejoin="round"/>
<path d="M110.494 6.4627L110.547 5.87583C109.377 5.76912 108.189 5.68909 107.014 5.63574L106.988 6.22484C108.153 6.27596 109.333 6.35822 110.494 6.4627Z" fill="white" stroke="white" stroke-linecap="round" stroke-linejoin="round"/>
<path d="M131.024 11.1532L131.23 10.6019C130.124 10.1884 128.996 9.79497 127.882 9.43262L127.699 9.99281C128.808 10.3507 129.925 10.742 131.024 11.1532Z" fill="white" stroke="white" stroke-linecap="round" stroke-linejoin="round"/>
<path d="M124.326 8.97915L124.481 8.41006C123.349 8.09662 122.192 7.8054 121.039 7.54309L120.908 8.11885C122.052 8.37894 123.2 8.66793 124.326 8.97915Z" fill="white" stroke="white" stroke-linecap="round" stroke-linejoin="round"/>
<path d="M117.458 7.40975L117.564 6.82955C116.405 6.61837 115.228 6.43164 114.067 6.2738L113.987 6.85845C115.141 7.01628 116.307 7.20079 117.458 7.40975Z" fill="white" stroke="white" stroke-linecap="round" stroke-linejoin="round"/>
<path d="M172.752 47.1169L173.265 46.8302C172.697 45.8031 172.097 44.7761 171.484 43.7758L170.982 44.0848C171.588 45.0762 172.186 46.0966 172.752 47.1169Z" fill="white" stroke="white" stroke-linecap="round" stroke-linejoin="round"/>
<path d="M162.735 139.296C163.518 138.42 164.296 137.517 165.042 136.608L164.587 136.232C163.847 137.135 163.074 138.031 162.295 138.9L162.735 139.296Z" fill="white" stroke="white" stroke-linecap="round" stroke-linejoin="round"/>
<path d="M167.231 133.823C167.935 132.882 168.63 131.915 169.294 130.942L168.808 130.608C168.149 131.573 167.458 132.535 166.758 133.467L167.231 133.823Z" fill="white" stroke="white" stroke-linecap="round" stroke-linejoin="round"/>
<path d="M171.233 127.974C171.855 126.974 172.461 125.946 173.038 124.922L172.525 124.633C171.952 125.651 171.351 126.671 170.733 127.663L171.233 127.974Z" fill="white" stroke="white" stroke-linecap="round" stroke-linejoin="round"/>
<path d="M146.637 153.042C147.621 152.404 148.605 151.738 149.562 151.057L149.222 150.577C148.269 151.253 147.295 151.918 146.318 152.549L146.637 153.042Z" fill="white" stroke="white" stroke-linecap="round" stroke-linejoin="round"/>
<path d="M174.706 121.792C175.237 120.74 175.752 119.664 176.236 118.591L175.699 118.348C175.219 119.413 174.708 120.482 174.182 121.527L174.706 121.792Z" fill="white" stroke="white" stroke-linecap="round" stroke-linejoin="round"/>
<path d="M152.395 148.943C153.319 148.223 154.241 147.469 155.136 146.705L154.754 146.256C153.865 147.016 152.95 147.763 152.033 148.479L152.395 148.943Z" fill="white" stroke="white" stroke-linecap="round" stroke-linejoin="round"/>
<path d="M157.778 144.348C158.637 143.546 159.49 142.715 160.312 141.876L159.892 141.463C159.077 142.294 158.231 143.121 157.376 143.917L157.778 144.348Z" fill="white" stroke="white" stroke-linecap="round" stroke-linejoin="round"/>
<path d="M181.775 73.6194L182.356 73.5305C182.179 72.3612 181.972 71.1875 181.746 70.0404L181.168 70.1538C181.393 71.2942 181.597 72.459 181.775 73.6194Z" fill="white" stroke="white" stroke-linecap="round" stroke-linejoin="round"/>
<path d="M177.622 115.325C178.059 114.231 178.477 113.113 178.863 111.999L178.308 111.806C177.924 112.911 177.508 114.022 177.075 115.107L177.622 115.325Z" fill="white" stroke="white" stroke-linecap="round" stroke-linejoin="round"/>
<path d="M178.441 59.9658L178.999 59.7768C178.619 58.6631 178.21 57.5427 177.782 56.449L177.233 56.6624C177.66 57.7472 178.064 58.8587 178.441 59.9658Z" fill="white" stroke="white" stroke-linecap="round" stroke-linejoin="round"/>
<path d="M180.409 66.7192L180.979 66.5792C180.702 65.4388 180.393 64.285 180.064 63.1558L179.498 63.3203C179.827 64.4429 180.133 65.5855 180.409 66.7192Z" fill="white" stroke="white" stroke-linecap="round" stroke-linejoin="round"/>
<path d="M183.122 80.5752C183.049 79.4081 182.945 78.2188 182.816 77.045L182.232 77.1095C182.358 78.2766 182.46 79.4548 182.536 80.6152L183.122 80.5752Z" fill="white" stroke="white" stroke-linecap="round" stroke-linejoin="round"/>
<path d="M181.683 101.731C181.919 100.58 182.132 99.4061 182.314 98.2435L181.732 98.1523C181.55 99.3061 181.339 100.471 181.106 101.614L181.683 101.731Z" fill="white" stroke="white" stroke-linecap="round" stroke-linejoin="round"/>
<path d="M182.789 94.7313C182.92 93.562 183.029 92.3749 183.109 91.2011L182.521 91.1611C182.441 92.326 182.336 93.5042 182.205 94.6646L182.789 94.7313Z" fill="white" stroke="white" stroke-linecap="round" stroke-linejoin="round"/>
<path d="M183.271 87.6598C183.298 86.4838 183.3 85.2901 183.275 84.1163L182.687 84.1297C182.711 85.2945 182.709 86.4794 182.682 87.6464L183.271 87.6598Z" fill="white" stroke="white" stroke-linecap="round" stroke-linejoin="round"/>
</g>
<path opacity="0.2" d="M137.081 56.7869C126.621 52.177 117.894 44.6948 109.752 37.0707C101.61 29.4467 93.7225 21.4525 84.1666 15.3177C78.0203 11.372 70.4772 8.14663 63.6761 9.59325C57.1314 10.9853 50.9953 14.519 47.8862 19.6955C45.547 23.5901 45.4822 29.5793 45.7734 34.2169C45.9755 37.4366 47.3459 40.6229 47.8862 43.8453C49.7663 55.0586 41.4435 64.633 31.9789 71.0656C27.5392 74.083 22.7296 76.7321 18.8201 80.2705C14.9105 83.809 11.901 88.451 11.9904 93.6901C12.079 98.883 15.1908 104.001 19.0688 108.275C26.945 116.957 39.0371 125.879 49.9698 131.145C74.1707 142.802 91.915 149.76 117.163 158.989C126.507 162.405 142.353 165.184 152.011 167.378C157.374 168.597 163.088 169.412 167.971 167.82C174.171 165.799 177.948 159.691 176.777 153.582C174.812 143.336 161.174 135.535 161.021 125.32C160.936 119.697 165.146 115.154 169.854 111.852C179.954 104.768 193.821 100.554 198.754 89.8155C202.142 82.44 200.105 72.8833 193.72 66.2012C187.027 59.1969 175.49 55.1307 166.982 58.8972C158.221 62.7756 146.316 60.8572 137.081 56.7869Z" fill="#004731"/>
<path fill-rule="evenodd" clip-rule="evenodd" d="M31.3329 136.271C32.8538 132.877 36.8804 129.78 40.6611 131.271C43.408 132.355 45.9757 133.77 48.7906 134.711C51.0404 135.463 53.3875 135.819 55.7572 135.879C58.0359 135.936 60.5264 134.91 62.7227 135.436C64.1221 135.771 65.7863 136.837 66.7902 137.877C68.0108 139.142 68.0318 138.813 69.7912 138.439C73.2391 137.706 76.648 137.201 80.2007 137.43C85.3177 137.758 90.8218 139.075 95.06 142.096C95.5981 142.48 97.6348 143.651 97.3711 144.526C97.0769 145.503 96.0962 144.473 95.7348 144.228C93.4283 142.663 91.4145 141.291 88.7261 140.376C78.3536 136.85 68.4595 140.501 57.9676 140.805C57.4187 140.836 56.1459 140.843 55.2967 140.866C53.9559 140.902 51.6681 140.458 50.4942 140.836C48.2831 141.547 51.9121 141.71 52.6194 141.713C53.5139 141.717 54.4715 141.708 55.2828 141.658C59.0318 141.448 63.1454 141.177 67.0116 140.958C64.8725 149.376 53.074 150.034 46.0686 148.999C40.2969 148.146 27.7769 144.251 31.3329 136.271Z" fill="#43DDBB"/>
<path fill-rule="evenodd" clip-rule="evenodd" d="M45.0879 87.5041C42.6277 93.3834 44.3974 98.873 48.6078 103.163C50.8769 105.475 53.6336 107.019 56.1856 108.965C60.0251 111.892 62.3911 115.172 63.7644 119.918C64.1897 121.387 64.7736 122.609 65.5326 123.654C66.0278 125.209 66.7262 126.7 67.8045 128.085C69.1814 129.854 71.229 131.204 73.5302 131.154C74.1488 131.141 75.456 130.987 76.2444 130.537C80.1916 135.754 85.2218 140.088 91.038 142.868C94.549 144.547 98.1019 146.147 101.664 147.715C102.62 148.136 104.313 148.611 102.995 147.346C101.79 146.189 99.2789 145.58 97.7654 144.868C90.3927 141.396 83.6959 138.227 78.4947 131.69C77.9496 131.004 77.4202 130.303 76.9037 129.589C76.9026 129.563 76.8983 129.536 76.8945 129.509C76.9116 129.501 76.9289 129.494 76.9458 129.486C76.918 129.443 76.8871 129.388 76.8533 129.325C76.8032 129.17 76.7196 129.015 76.6187 128.857C76.3913 128.397 76.1181 127.868 75.883 127.746C75.8812 127.745 75.8778 127.744 75.876 127.743C73.8334 124.299 72.0983 120.664 70.443 117.011C70.4547 117.038 68.484 112.965 70.0691 114.25C70.833 114.87 71.5497 117.491 72.0877 118.676C73.2891 121.305 74.8872 124.488 76.563 127.311C76.5728 127.581 76.996 128.171 77.3144 128.604C77.4708 128.834 77.633 129.056 77.768 129.262C82.3649 124.654 80.9927 118.535 78.3392 113.483C78.3362 113.477 78.3327 113.471 78.3295 113.466C77.6383 111.988 76.9662 110.492 76.6429 108.889C76.1032 106.213 76.8788 104.04 77.2819 101.418C78.3814 94.2655 72.0093 87.7218 66.7164 83.9693C60.7452 79.7357 48.5247 79.2264 45.0879 87.5041Z" fill="#43DDBB"/>
<path fill-rule="evenodd" clip-rule="evenodd" d="M21.1192 88.8996C24.1291 97.5991 30.9291 104.54 37.5298 110.659C44.9021 117.493 52.8286 123.572 61.7521 128.22C67.615 131.273 73.4535 134.465 79.5056 137.132C81.655 138.08 83.8521 138.943 86.0858 139.67C86.2694 139.73 91.2577 141.352 90.5454 140.095C90.1403 139.381 85.3754 138.403 84.6358 138.135C80.4703 136.623 76.4697 134.719 72.5405 132.676C66.0712 129.313 59.5172 126.198 53.3877 122.23C52.4725 121.638 51.4982 121.041 50.671 120.328C49.7914 119.571 50.0712 120.105 50.0791 119.11C50.0865 118.143 50.6283 117.221 50.5522 116.175C50.2499 112.026 46.1395 107.877 43.5437 104.957C40.5755 101.618 37.0719 98.718 33.5298 96.0208C30.9272 94.0395 28.2671 92.2135 25.4709 90.5191C24.5897 89.9851 23.635 89.4913 22.8274 88.8512C22.6095 88.6786 22.3045 88.2163 22.0852 88.1151C21.6208 87.9008 21.2131 88.0377 20.8195 87.8644C20.912 88.2115 21.0119 88.5568 21.1192 88.8996Z" fill="#43DDBB"/>
<path fill-rule="evenodd" clip-rule="evenodd" d="M83.8288 122.45C85.7457 117.911 91.7832 114.837 96.5434 114.612C100.381 114.431 104.13 116.713 106.744 119.377C108.494 121.162 110.716 124.238 109.435 126.813C107.831 130.035 103.784 128.158 101.433 127.032C98.3076 125.535 95.4224 124.548 92.0788 125.896C91.6661 126.063 91.2624 126.253 90.8587 126.442C90.5004 126.611 90.1421 126.779 89.7775 126.931C89.7193 126.955 89.6609 126.98 89.6023 127.005C88.4411 127.492 87.2215 128.004 85.9751 127.504C84.1688 126.78 84.356 125.649 85.4363 124.33C85.4711 124.287 85.5871 124.182 85.7448 124.04C86.4206 123.43 87.8626 122.128 86.9719 122.057C86.6364 122.031 86.2018 122.339 85.7657 122.786C84.9125 124.083 83.8998 125.632 83.7622 126.157C82.2766 131.812 88.3184 137.404 92.5318 140.225C92.9866 140.53 93.4485 140.824 93.9142 141.113L93.4359 142.047C92.2951 141.381 91.167 140.695 90.1063 139.905C86.0498 136.881 80.728 131.199 82.6383 125.693C82.7085 125.49 83.061 124.79 83.5431 123.971C83.524 123.456 83.6181 122.939 83.8288 122.45Z" fill="#216E5D"/>
<path d="M141.766 135.916L98.1291 154.727C94.4889 156.299 90.263 154.618 88.6914 150.974L48.5892 57.9463C47.0176 54.3062 48.6983 50.0802 52.3425 48.5086L95.9798 29.6979C99.6199 28.1262 103.846 29.8069 105.417 33.4511L145.52 126.479C147.087 130.123 145.407 134.345 141.766 135.916Z" fill="#262626"/>
<path d="M136.341 132.567L99.1756 148.586C95.5355 150.158 91.3095 148.477 89.7379 144.833L53.0901 59.8048C51.5185 56.1646 53.1991 51.9387 56.8433 50.3671L94.0083 34.348C97.6485 32.7764 101.874 34.4571 103.446 38.1013L140.098 123.134C141.661 126.774 139.985 131 136.341 132.567Z" fill="#F0643C"/>
<path d="M89.2166 42.4727L67.1495 51.9831C65.7395 52.5932 64.1032 51.9387 63.4932 50.5287L62.2367 47.7773L89.4024 35.8994L90.667 38.8164C91.277 40.2264 90.6266 41.8626 89.2166 42.4727Z" fill="#262626"/>
<path d="M80.3628 39.9835L73.1813 43.1904C72.7323 43.3909 72.5374 43.9329 72.7462 44.4005C72.9551 44.8681 73.4887 45.0848 73.9377 44.8843L81.1192 41.6773C81.5683 41.4768 81.7631 40.9348 81.5543 40.4672C81.345 39.9985 80.8119 39.783 80.3628 39.9835Z" fill="white"/>
<path d="M69.6974 45.7621C69.4886 45.2945 69.6985 44.7458 70.1661 44.537C70.6338 44.3281 71.1825 44.5381 71.3913 45.0057C71.6001 45.4733 71.3902 46.022 70.9225 46.2308C70.4549 46.4396 69.9062 46.2297 69.6974 45.7621Z" fill="white"/>
<path d="M148.307 121.849L114.055 109.971C110.896 108.876 109.219 105.426 110.318 102.262L138.817 20.0742C139.912 16.9148 143.362 15.2382 146.526 16.3371L180.778 28.215C183.937 29.3099 185.614 32.7602 184.515 35.9236L156.016 118.112C154.917 121.271 151.467 122.944 148.307 121.849Z" fill="#363636"/>
<path d="M147.737 120.245L115.497 109.066C112.524 108.036 110.976 104.695 112.047 101.612L139.875 21.3591C140.946 18.2725 144.227 16.608 147.2 17.6382L179.44 28.8172C182.414 29.8474 183.961 33.1886 182.891 36.2712L155.062 116.524C153.992 119.611 150.711 121.275 147.737 120.245Z" fill="#262626"/>
<path d="M139.558 26.7471L114.827 98.0696L155.132 112.045L179.862 40.7223L139.558 26.7471Z" fill="white"/>
<path d="M132.749 113.15C134.757 113.15 136.385 111.522 136.385 109.514C136.385 107.506 134.757 105.878 132.749 105.878C130.74 105.878 129.113 107.506 129.113 109.514C129.113 111.522 130.74 113.15 132.749 113.15Z" fill="white"/>
<path d="M166.985 28.7337L159.576 26.0928C159.113 25.9277 158.598 26.185 158.426 26.6674C158.254 27.1498 158.49 27.675 158.953 27.8402L166.362 30.4811C166.825 30.6462 167.34 30.3889 167.512 29.9065C167.685 29.423 167.448 28.8989 166.985 28.7337Z" fill="white"/>
<path d="M155.281 25.5455C155.453 25.0632 155.984 24.8114 156.466 24.9834C156.949 25.1554 157.2 25.6862 157.028 26.1686C156.856 26.651 156.325 26.9027 155.843 26.7307C155.361 26.5587 155.109 26.0279 155.281 25.5455Z" fill="white"/>
<path opacity="0.8" d="M80.4295 72.2581L76.4797 73.9706L81.9855 86.6689L85.9352 84.9564L80.4295 72.2581Z" fill="white"/>
<path opacity="0.8" d="M89.7064 68.2359L85.7574 69.9481L91.2632 82.6464L95.2122 80.9342L89.7064 68.2359Z" fill="white"/>
<path opacity="0.8" d="M99.0069 64.2033L95.0564 65.9161L100.562 78.6144L104.513 76.9016L99.0069 64.2033Z" fill="white"/>
<path d="M75.1899 73.9004L75.5816 74.8037C75.8463 75.4142 76.5585 75.6966 77.1675 75.4326L81.0046 73.7689C81.6144 73.5045 81.895 72.7916 81.6303 72.1811L81.2386 71.2778L75.1899 73.9004Z" fill="white"/>
<path d="M84.4889 69.8685L84.8806 70.7719C85.1452 71.3823 85.8574 71.6648 86.4664 71.4007L90.3265 69.727C90.9355 69.463 91.2169 68.7497 90.9522 68.1393L90.5606 67.236L84.4889 69.8685Z" fill="white"/>
<path d="M93.7654 65.8463L94.1571 66.7497C94.4217 67.3601 95.1339 67.6425 95.7437 67.3782L99.6038 65.7045C100.213 65.4404 100.493 64.7275 100.229 64.1171L99.837 63.2138L93.7654 65.8463Z" fill="white"/>
<path d="M103.403 59.8957L83.1201 58.5475L70.2392 74.2748L70.1971 74.2931L70.2061 74.3138L70.2028 74.3188L70.2074 74.3168L70.9299 75.9832L104.185 61.5642L103.453 59.8741L103.403 59.8957Z" fill="white"/>
<path d="M76.0987 71.177L84.2753 61.2109L97.138 62.0547L76.0987 71.177Z" fill="#F0643C"/>
<path d="M108.001 76.2984L79.0709 88.8418L79.8037 90.5319L108.733 77.9886L108.001 76.2984Z" fill="white"/>
<path d="M110.187 77.2688L78.2841 91.1016L79.0169 92.7917L110.92 78.959L110.187 77.2688Z" fill="white"/>
<path d="M86.9384 84.424L80.8898 87.0466L81.2695 87.9224L87.3182 85.2998L86.9384 84.424Z" fill="white"/>
<path d="M96.2383 80.3917L90.1666 83.0243L90.5463 83.9L96.618 81.2675L96.2383 80.3917Z" fill="white"/>
<path d="M105.514 76.3698L99.4657 78.9924L99.8454 79.8682L105.894 77.2456L105.514 76.3698Z" fill="white"/>
<path opacity="0.8" d="M87.1359 63.5398C87.5093 64.401 87.1151 65.4018 86.2548 65.7748C85.3946 66.1478 84.3949 65.7523 84.0212 64.8903C83.6478 64.0291 84.0423 63.029 84.9026 62.6561C85.7628 62.2831 86.7628 62.6794 87.1359 63.5398Z" fill="white"/>
<path d="M157.943 82.6877L130.22 72.713C129.135 72.3227 128.572 71.1268 128.962 70.042L134.033 55.9491C134.423 54.8643 135.619 54.3013 136.704 54.6916L164.427 64.6663C165.512 65.0566 166.075 66.2525 165.685 67.3373L160.614 81.4301C160.224 82.515 159.028 83.078 157.943 82.6877Z" fill="#005f5a"/>
<path d="M161.543 68.2471L154.574 65.7397C153.861 65.483 153.487 64.689 153.744 63.9755C154 63.262 154.794 62.8882 155.508 63.1449L162.477 65.6524C163.191 65.9091 163.564 66.7031 163.308 67.4166C163.051 68.13 162.257 68.5039 161.543 68.2471Z" fill="white"/>
<path opacity="0.5" d="M155.457 77.0739C155.066 78.1615 153.867 78.726 152.779 78.3347C151.691 77.9434 151.127 76.7444 151.518 75.6568C151.909 74.5691 153.108 74.0046 154.196 74.396C155.284 74.7873 155.848 75.9859 155.457 77.0739Z" fill="white"/>
<path opacity="0.5" d="M158.146 78.0413C157.754 79.1289 156.555 79.6934 155.468 79.3021C154.38 78.9108 153.816 77.7118 154.207 76.6242C154.598 75.5365 155.797 74.972 156.885 75.3634C157.973 75.7543 158.537 76.9533 158.146 78.0413Z" fill="white"/>
<path d="M139.37 65.8479L134.306 64.0257C133.996 63.9143 133.834 63.57 133.945 63.2605L134.339 62.1662C134.451 61.8566 134.795 61.6945 135.104 61.8059L140.169 63.628C140.478 63.7394 140.64 64.0837 140.529 64.3933L140.135 65.4876C140.024 65.7971 139.68 65.9592 139.37 65.8479Z" fill="#00563C"/>
<path d="M146.13 68.28L141.065 66.4579C140.756 66.3465 140.594 66.0022 140.705 65.6926L141.099 64.5983C141.21 64.2887 141.554 64.1266 141.864 64.238L146.928 66.0601C147.238 66.1715 147.4 66.5158 147.289 66.8254L146.895 67.9197C146.783 68.2291 146.439 68.3912 146.13 68.28Z" fill="#00563C"/>
<path d="M152.889 70.712L147.824 68.8899C147.515 68.7785 147.353 68.4342 147.464 68.1246L147.858 67.0303C147.969 66.7207 148.314 66.5586 148.623 66.67L153.687 68.4922C153.997 68.6035 154.159 68.9479 154.048 69.2574L153.654 70.3517C153.543 70.6613 153.198 70.8234 152.889 70.712Z" fill="#00563C"/>
<path d="M159.648 73.1441L154.584 71.322C154.274 71.2106 154.112 70.8663 154.224 70.5567L154.617 69.4624C154.729 69.1529 155.073 68.9908 155.383 69.1021L160.447 70.9243C160.757 71.0357 160.919 71.38 160.807 71.6896L160.414 72.7838C160.302 73.0933 159.958 73.2554 159.648 73.1441Z" fill="#00563C"/>
<path d="M145.078 73.163L132.629 68.6837C132.319 68.5723 132.157 68.228 132.269 67.9184L132.471 67.3556C132.583 67.0461 132.927 66.884 133.236 66.9953L145.686 71.4746C145.996 71.586 146.158 71.9303 146.046 72.2399L145.844 72.8027C145.732 73.1123 145.388 73.2744 145.078 73.163Z" fill="white"/>
<path d="M140.699 73.9884L131.883 70.8165C131.563 70.7013 131.395 70.3452 131.51 70.0251L131.699 69.5007C131.814 69.1805 132.17 69.0129 132.491 69.1281L141.307 72.3001C141.627 72.4153 141.794 72.7713 141.679 73.0914L141.49 73.6159C141.375 73.936 141.019 74.1036 140.699 73.9884Z" fill="white"/>
<path d="M133.084 31.939C134.416 35.2641 133.343 38.8236 130.687 39.8878C128.031 40.9521 124.799 39.1186 123.467 35.7934C122.136 32.4683 123.208 28.9088 125.862 27.8446C128.518 26.7777 131.753 28.6112 133.084 31.939Z" fill="#FBD56F"/>
<path opacity="0.1" d="M132.853 32.0321C134.122 35.1968 133.101 38.5865 130.573 39.5984C128.045 40.6102 124.968 38.8664 123.699 35.6991C122.431 32.5345 123.452 29.1448 125.98 28.1329C128.51 27.121 131.585 28.8675 132.853 32.0321Z" fill="black"/>
<g style="mix-blend-mode:multiply">
<path d="M132.069 32.344C133.119 34.9656 132.273 37.7706 130.181 38.6114C128.086 39.4496 125.538 38.0039 124.488 35.3823C123.437 32.7607 124.284 29.953 126.376 29.1149C128.468 28.2767 131.018 29.7224 132.069 32.344Z" fill="#FBD56F"/>
</g>
<path d="M132.033 32.5271C133.064 35.1006 132.233 37.8571 130.179 38.6787C128.124 39.5031 125.622 38.0837 124.591 35.5076C123.56 32.9342 124.391 30.1777 126.445 29.356C128.5 28.5343 131.002 29.9537 132.033 32.5271Z" fill="#FBD56F"/>
<path d="M120.96 7.4965C120.103 10.6239 117.41 12.6126 114.948 11.9369C112.486 11.2612 111.184 8.18023 112.041 5.05278C112.898 1.92533 115.59 -0.06333 118.052 0.612357C120.514 1.28536 121.817 4.36905 120.96 7.4965Z" fill="#FBD56F"/>
<path opacity="0.1" d="M120.746 7.43833C119.93 10.4149 117.368 12.3082 115.025 11.6662C112.681 11.0242 111.442 8.09033 112.257 5.11105C113.073 2.13445 115.635 0.241153 117.978 0.883143C120.322 1.52513 121.561 4.46174 120.746 7.43833Z" fill="#010101"/>
<g style="mix-blend-mode:multiply">
<path d="M120.014 7.23755C119.338 9.70234 117.216 11.2714 115.274 10.7381C113.332 10.2048 112.307 7.77637 112.983 5.30889C113.659 2.8441 115.781 1.275 117.723 1.80831C119.665 2.34162 120.692 4.77005 120.014 7.23755Z" fill="#FBD56F"/>
</g>
<path d="M119.891 7.349C119.228 9.77067 117.144 11.3099 115.239 10.7869C113.332 10.264 112.327 7.87829 112.99 5.45661C113.652 3.03494 115.737 1.49577 117.642 2.01872C119.549 2.54165 120.557 4.92998 119.891 7.349Z" fill="#FBD56F"/>
<path d="M126.605 64.7819C126.644 68.4749 123.68 71.5005 119.987 71.5386C116.294 71.5767 113.268 68.6129 113.23 64.9198C113.192 61.2268 116.156 58.2012 119.849 58.1631C123.542 58.125 126.567 61.0888 126.605 64.7819Z" fill="#FBD56F"/>
<g style="mix-blend-mode:multiply" opacity="0.1">
<path d="M119.987 71.2184C123.502 71.1821 126.323 68.3028 126.286 64.7873C126.25 61.2717 123.371 58.4512 119.855 58.4874C116.34 58.5237 113.519 61.403 113.555 64.9186C113.592 68.4341 116.471 71.2547 119.987 71.2184Z" fill="black"/>
</g>
<path d="M125.064 64.959C125.094 67.8168 122.8 70.1586 119.942 70.188C117.084 70.2175 114.742 67.9235 114.713 65.0658C114.683 62.2053 116.977 59.8662 119.835 59.8368C122.693 59.8073 125.035 62.1013 125.064 64.959Z" fill="#FBD56F"/>
<path d="M143.612 47.7083L135.619 55.1153C135.28 55.4287 134.752 55.4015 134.446 55.0541L134.006 54.5558C133.701 54.2083 133.727 53.6672 134.066 53.3539L142.058 45.9469C142.397 45.6335 142.925 45.6607 143.231 46.0082L143.671 46.5064C143.977 46.8566 143.951 47.395 143.612 47.7083Z" fill="#E2C064"/>
<path d="M109.532 18.5179L115.606 27.818C115.862 28.2114 115.75 28.7451 115.356 29.0005L114.791 29.3696C114.397 29.6249 113.865 29.513 113.606 29.1196L107.532 19.8195C107.276 19.4261 107.388 18.8923 107.783 18.637L108.348 18.2679C108.745 18.0125 109.277 18.1245 109.532 18.5179Z" fill="#E2C064"/>
<path d="M145.34 115.377L107.07 132.3C105.889 132.822 104.512 132.282 103.993 131.092L97.5146 116.227C96.9962 115.037 97.533 113.65 98.714 113.127L136.981 96.2043C138.162 95.6821 139.539 96.2228 140.058 97.4124L146.536 112.278C147.058 113.467 146.521 114.855 145.34 115.377Z" fill="#35B6B4"/>
<path d="M111.864 111.654L104.017 115.099C103.006 115.543 102.546 116.723 102.99 117.734L106.435 125.58C106.879 126.592 108.059 127.052 109.07 126.608L116.917 123.163C117.928 122.719 118.388 121.539 117.944 120.527L114.499 112.681C114.055 111.67 112.875 111.21 111.864 111.654Z" fill="#069382"/>
<path d="M118.901 112.001C118.784 112.001 118.671 111.932 118.618 111.813C118.551 111.652 118.621 111.466 118.775 111.397L135.678 103.806C135.834 103.736 136.016 103.809 136.084 103.966C136.151 104.127 136.081 104.312 135.927 104.382L119.024 111.973C118.984 111.992 118.944 112.001 118.901 112.001Z" fill="#069382" stroke="#069382" stroke-width="0.5"/>
<path d="M122.482 120.581C122.363 120.581 122.247 120.512 122.193 120.392C122.124 120.232 122.196 120.046 122.353 119.977L139.601 112.385C139.761 112.316 139.946 112.388 140.015 112.546C140.084 112.706 140.012 112.892 139.855 112.961L122.608 120.556C122.567 120.575 122.523 120.581 122.482 120.581Z" fill="#069382" stroke="#069382" stroke-width="0.5"/>
<path d="M120.692 116.291C120.574 116.291 120.459 116.222 120.406 116.102C120.337 115.941 120.409 115.755 120.564 115.686L129.595 111.67C129.754 111.601 129.937 111.674 130.006 111.831C130.074 111.992 130.003 112.178 129.847 112.248L120.817 116.263C120.776 116.282 120.733 116.291 120.692 116.291Z" fill="#069382" stroke="#069382" stroke-width="0.5"/>
<path d="M131.783 111.287C131.661 111.287 131.543 111.219 131.489 111.102C131.418 110.945 131.492 110.763 131.652 110.696L137.805 108.095C137.968 108.027 138.157 108.098 138.227 108.252C138.298 108.409 138.224 108.59 138.064 108.658L131.911 111.259C131.869 111.277 131.828 111.287 131.783 111.287Z" fill="#069382" stroke="#069382" stroke-width="0.5"/>
<path d="M162.142 57.2119L192.434 67.2498C193.369 67.5595 194.375 67.048 194.681 66.107L198.508 54.3476C198.814 53.4066 198.305 52.3929 197.37 52.0831L167.08 42.045C166.146 41.7353 165.14 42.2468 164.834 43.1878L161.007 54.9472C160.698 55.8884 161.207 56.9021 162.142 57.2119Z" fill="#35B6B4"/>
<path d="M187.731 52.0775L193.038 53.8205C194.088 54.1652 194.659 55.2953 194.314 56.3446L192.571 61.6514C192.226 62.7008 191.096 63.272 190.047 62.9274L184.74 61.1844C183.691 60.8397 183.12 59.7096 183.464 58.6602L185.207 53.3535C185.552 52.3041 186.682 51.7328 187.731 52.0775Z" fill="#069382"/>
<path d="M181.964 52.7098C182.053 52.7012 182.134 52.6403 182.165 52.5456C182.205 52.4188 182.137 52.2831 182.015 52.2418L168.628 47.7194C168.504 47.6783 168.371 47.7466 168.331 47.871C168.292 47.9978 168.359 48.1336 168.481 48.1749L181.868 52.6973C181.9 52.7087 181.931 52.7129 181.964 52.7098Z" fill="#069382" stroke="#069382" stroke-width="0.5"/>
<path d="M179.875 59.4851C179.966 59.4764 180.049 59.4153 180.081 59.3206C180.121 59.1937 180.053 59.058 179.929 59.017L166.279 54.5199C166.153 54.4791 166.018 54.5476 165.977 54.6721C165.936 54.799 166.004 54.9347 166.129 54.9757L179.778 59.4752C179.81 59.4866 179.844 59.4881 179.875 59.4851Z" fill="#069382" stroke="#069382" stroke-width="0.5"/>
<path d="M180.919 56.0974C181.009 56.0887 181.091 56.0276 181.123 55.9327C181.163 55.8056 181.095 55.6695 180.972 55.6283L173.822 53.2429C173.697 53.2019 173.563 53.2704 173.522 53.3952C173.482 53.5223 173.55 53.6583 173.673 53.6996L180.823 56.085C180.855 56.0964 180.889 56.1003 180.919 56.0974Z" fill="#069382" stroke="#069382" stroke-width="0.5"/>
<path d="M172.133 53.1122C172.226 53.1032 172.311 53.0432 172.343 52.9504C172.385 52.8261 172.316 52.6936 172.19 52.654L167.328 51.1313C167.199 51.0919 167.061 51.1595 167.019 51.2815C166.977 51.4058 167.046 51.5382 167.172 51.5779L172.034 53.1005C172.067 53.1115 172.099 53.1154 172.133 53.1122Z" fill="#069382" stroke="#069382" stroke-width="0.5"/>
<path opacity="0.2" d="M187.198 119.642C183.676 118.798 180.137 120.97 179.294 124.493C178.45 128.015 180.622 131.554 184.145 132.397C187.667 133.241 191.206 131.069 192.049 127.546C192.892 124.024 190.721 120.485 187.198 119.642Z" fill="#004731"/>
<path opacity="0.2" d="M19.6587 34.6025C12.9828 33.0043 6.27539 37.1206 4.67724 43.7965C3.07908 50.4724 7.19539 57.1798 13.8713 58.7779C20.5471 60.3761 27.2545 56.2598 28.8527 49.5839C30.4508 42.908 26.3345 36.2006 19.6587 34.6025Z" fill="#004731"/>
</g>
<defs>
<clipPath id="clip0">
<rect width="213.751" height="180" fill="white"/>
</clipPath>
</defs>
</svg>
