<svg width="100%" height="174" viewBox="0 0 206 174" fill="none" xmlns="http://www.w3.org/2000/svg">
<g clip-path="url(#clip0)">
<path opacity="0.2" d="M173.3 121.254C175.921 121.19 178.659 120.066 179.91 117.824C181.344 115.246 180.489 112.03 181.017 109.129C182.759 99.6299 198.075 96.7063 198.586 87.0529C198.79 83.2149 196.401 79.7105 193.932 76.6827C189.975 71.8436 185.371 67.2712 179.585 64.7773C170.803 60.99 160.203 62.3549 151.984 57.491C145.355 53.5672 141.442 46.2296 134.906 42.1562C129.931 39.0548 123.921 38.139 118.116 37.2976C114.985 36.8427 111.696 36.4045 108.772 37.524C103.335 39.6094 101.301 46.062 97.0007 49.9237C90.3621 55.8769 79.6618 54.5259 71.3833 50.8022C63.1049 47.0786 55.6255 41.3721 46.7825 39.3016C44.8924 38.8601 42.9068 38.5932 41.0318 39.0521C38.7525 39.6087 36.8957 41.1691 35.1998 42.7508C24.5886 52.6818 16.8708 65.206 12.822 79.0647C12.1294 81.447 11.5475 83.97 12.1364 86.3946C12.8806 89.4617 15.371 91.845 17.9883 93.7012C24.2722 98.1629 31.8663 100.654 37.9213 105.409C43.7613 109.996 47.7791 116.37 52.3882 122.146C61.5774 133.639 73.2993 142.96 86.66 149.398C89.7917 150.904 93.0961 152.266 96.5654 152.428C100.563 152.613 104.432 151.19 108.02 149.503C117.565 145.016 125.977 138.576 135.08 133.294C141.36 129.652 147.963 126.563 154.812 124.065C157.967 122.91 161.382 121.451 164.71 120.864C167.756 120.328 170.211 121.328 173.3 121.254Z" fill="#004731"/>
<path d="M143.297 153.75H63.9361C60.8305 153.75 58.3131 151.23 58.3131 148.121V107.737C58.3131 104.629 60.8305 102.109 63.9361 102.109H143.297C146.402 102.109 148.92 104.629 148.92 107.737V148.121C148.92 151.23 146.402 153.75 143.297 153.75Z" fill="#F0643C"/>
<path d="M139.253 113.826H119.303C117.261 113.826 115.589 112.153 115.589 110.108C115.589 108.064 117.261 106.391 119.303 106.391H139.253C141.295 106.391 142.967 108.064 142.967 110.108C142.967 112.153 141.295 113.826 139.253 113.826Z" fill="white"/>
<path opacity="0.5" d="M131.876 141.777C131.876 144.894 129.352 147.42 126.238 147.42C123.125 147.42 120.601 144.894 120.601 141.777C120.601 138.66 123.125 136.134 126.238 136.134C129.352 136.134 131.876 138.659 131.876 141.777Z" fill="white"/>
<path opacity="0.5" d="M139.573 141.777C139.573 144.894 137.048 147.42 133.935 147.42C130.822 147.42 128.297 144.894 128.297 141.777C128.297 138.66 130.822 136.134 133.935 136.134C137.048 136.132 139.573 138.659 139.573 141.777Z" fill="white"/>
<path d="M80.8654 127.98H66.3681C65.4819 127.98 64.7571 127.255 64.7571 126.368V123.232C64.7571 122.345 65.4819 121.619 66.3681 121.619H80.8654C81.7515 121.619 82.4764 122.345 82.4764 123.232V126.368C82.4764 127.255 81.7515 127.98 80.8654 127.98Z" fill="#005f5a"/>
<path d="M100.216 127.98H85.7185C84.8323 127.98 84.1074 127.255 84.1074 126.368V123.232C84.1074 122.345 84.8323 121.619 85.7185 121.619H100.216C101.102 121.619 101.827 122.345 101.827 123.232V126.368C101.826 127.255 101.101 127.98 100.216 127.98Z" fill="#005f5a"/>
<path d="M119.565 127.98H105.068C104.182 127.98 103.457 127.255 103.457 126.368V123.232C103.457 122.345 104.182 121.619 105.068 121.619H119.565C120.451 121.619 121.176 122.345 121.176 123.232V126.368C121.176 127.255 120.451 127.98 119.565 127.98Z" fill="#005f5a"/>
<path d="M138.916 127.98H124.419C123.532 127.98 122.808 127.255 122.808 126.368V123.232C122.808 122.345 123.532 121.619 124.419 121.619H138.916C139.802 121.619 140.527 122.345 140.527 123.232V126.368C140.526 127.255 139.801 127.98 138.916 127.98Z" fill="#005f5a"/>
<path d="M102.005 141.328H66.3669C65.4807 141.328 64.7559 140.603 64.7559 139.716V138.103C64.7559 137.216 65.4807 136.49 66.3669 136.49H102.005C102.891 136.49 103.616 137.216 103.616 138.103V139.716C103.616 140.603 102.891 141.328 102.005 141.328Z" fill="white"/>
<path d="M91.6586 147.42H66.4218C65.5054 147.42 64.7559 146.67 64.7559 145.753V144.25C64.7559 143.333 65.5054 142.582 66.4218 142.582H91.6586C92.5751 142.582 93.3246 143.333 93.3246 144.25V145.753C93.3246 146.67 92.5751 147.42 91.6586 147.42Z" fill="white"/>
<path d="M56.1769 145.169C56.4814 152.421 48.2015 158.292 51.6517 158.81C55.102 159.329 57.8183 156.993 59.393 155.225C60.9677 153.457 62.6782 152.934 62.2172 150.93C61.7562 148.927 61.7259 144.701 61.2443 143.32C60.7626 141.939 56.1769 145.169 56.1769 145.169Z" fill="white"/>
<path d="M126.539 36.3018H139.759V35.7002H126.539V36.3018Z" fill="#8ED16F"/>
<path opacity="0.6" d="M126.539 36.3018H139.759V35.7002H126.539V36.3018Z" fill="#39542C"/>
<path d="M126.539 35.7003H139.759V35.0988H126.539V35.7003Z" fill="#8ED16F"/>
<path d="M166.509 30.2865C166.509 30.2865 163.2 38.9354 167.401 42.0158C171.602 45.0962 152.378 45.9263 152.378 45.9263L154.987 43.6167C154.987 43.6167 156.832 36.8041 155.559 31.1167L166.509 30.2865Z" fill="#F7C4A7"/>
<path d="M149.974 51.3227L147.358 60.423C147.358 60.423 144.607 62.9952 142.357 60.423C140.108 57.8509 138.722 50.9548 138.586 49.4784C138.45 48.002 136.459 40.378 135.708 40.378C134.958 40.378 127.456 40.8693 126.58 37.8058C125.879 35.3417 134.254 36.5197 137.607 37.0727C138.02 37.1419 138.409 37.3125 138.737 37.5689C139.065 37.8252 139.321 38.1589 139.483 38.5389L144.625 50.6153C144.625 50.6153 147.348 47.5107 149.974 51.3227Z" fill="#F7C4A7"/>
<g style="mix-blend-mode:multiply">
<path d="M152.747 61.2001L150.327 51.7888C153.037 50.2038 154.36 52.4493 154.683 53.7701L152.747 61.2001Z" fill="#F7C4A7"/>
</g>
<path d="M172.759 147.585C172.759 147.585 177.499 153.664 178.594 153.539C179.69 153.415 182.24 155.895 180.784 156.652C179.327 157.41 170.939 157.892 166.8 154.668V149.809L172.759 147.585Z" fill="#ACA9C9"/>
<path d="M148.089 147.585C148.089 147.585 145.29 152.828 143.345 153.47C141.401 154.112 139.696 156.413 142.251 157.052C144.806 157.691 153.932 156.284 154.781 154.749V147.968L148.089 147.585Z" fill="#ACA9C9"/>
<path d="M144.767 99.6883L147.193 116.688V124.591C147.185 125.79 147.333 126.985 147.632 128.147C148.423 131.139 147.772 141.578 147.405 146.531C147.285 148.146 147.193 149.18 147.193 149.18C148.778 148.46 155.493 150.737 155.493 150.737L156.172 148.467L156.714 146.662C158.179 145.583 156.969 126.279 156.714 121.832C156.548 118.795 157.926 108.948 158.81 103.047C159.065 101.379 159.272 100.037 159.397 99.2293C159.476 98.7277 159.52 98.4493 159.52 98.4493C159.789 98.6648 160.012 98.9298 160.178 99.2293C160.388 99.5838 160.569 99.9545 160.717 100.338C163.173 106.435 164.292 123.866 164.292 125.418V141.811C164.286 143.428 164.512 145.038 164.963 146.594C165.265 147.729 165.486 148.883 165.624 150.047C165.798 151.349 165.88 152.398 165.88 152.398C166.002 151.678 173.57 148.44 173.57 148.44V121.102C173.57 121.102 173.935 110.317 175.035 99.6381C175.508 94.7804 175.032 89.8787 173.631 85.1968C173.327 84.176 173.023 83.3107 172.76 82.626C172.314 81.4598 171.995 80.8152 171.995 80.8152H147.065C146.646 80.8929 146.299 81.7206 145.985 82.9771C145.781 83.8198 145.602 84.8532 145.446 85.9868C144.984 89.325 144.719 93.4809 144.591 95.8836C144.527 97.1544 144.586 98.4284 144.767 99.6883Z" fill="#8D8D8D"/>
<path d="M162.706 42.1339C162.706 42.1339 165.981 41.3521 165.981 40.5126L168.109 41.7015C168.617 41.9847 169.193 42.1337 169.779 42.1339H174.879C175.412 42.1324 175.938 42.2542 176.413 42.4894C176.889 42.7245 177.299 43.0662 177.612 43.4862C178.783 45.0873 179.832 48.2444 177.043 53.6713C172.594 62.3231 174.572 83.5832 174.572 83.5832C174.572 83.5832 158.754 80.8182 145.652 85.026C145.652 85.026 147.63 75.5321 146.888 70.1253C146.146 64.7186 148.124 57.1652 148.124 57.1652L149.235 52.598C149.235 52.598 149.173 48.3249 144.6 50.4941C144.6 50.4941 143.938 44.4765 148.424 43.6169C148.548 43.5899 148.676 43.5814 148.804 43.5917C149.763 43.6898 154.232 44.004 155.664 41.6487C155.662 41.6512 159.247 43.6948 162.706 42.1339Z" fill="#35B6B4"/>
<g style="mix-blend-mode:multiply">
<path d="M155.797 32.5237L166.206 31.4661C165.671 33.4615 165.307 35.5221 165.12 37.6132C163.91 39.1778 162.255 40.0876 160.512 40.1466C158.77 40.2057 157.078 39.4093 155.802 37.9289C156.067 36.1422 156.065 34.3097 155.797 32.5237Z" fill="#F7C4A7"/>
</g>
<path d="M165.598 150.005C165.768 151.33 165.849 152.398 165.849 152.398C165.969 151.665 173.41 148.369 173.41 148.369V146.385C173.22 146.377 173.03 146.387 172.842 146.413C171.399 146.609 170.061 147.322 168.826 148.083C167.783 148.779 166.705 149.421 165.598 150.005Z" fill="#7C7C7C"/>
<path d="M146.969 149.09C148.667 148.395 155.857 150.593 155.857 150.593L156.584 148.403C155.329 148.178 154.083 147.897 152.858 147.563C152.286 147.416 151.727 147.233 151.185 147.016C150.823 146.845 150.451 146.691 150.07 146.556C149.132 146.27 148.156 146.391 147.194 146.534C147.068 148.093 146.969 149.09 146.969 149.09Z" fill="#7C7C7C"/>
<path opacity="0.4" d="M180.78 156.255C180.882 156.209 180.972 156.139 181.045 156.051C181.117 155.963 181.169 155.858 181.197 155.745C181.242 155.922 181.225 156.111 181.148 156.275C181.072 156.44 180.941 156.569 180.78 156.639C179.321 157.409 170.938 157.922 166.8 154.586V154.202C170.938 157.538 179.321 157.025 180.78 156.255Z" fill="white"/>
<path opacity="0.4" d="M142.251 156.638C144.796 157.314 153.932 155.826 154.781 154.202V154.607C153.929 156.231 144.806 157.719 142.251 157.043C141.208 156.76 140.874 156.194 140.979 155.574C141.06 156.033 141.442 156.412 142.251 156.638Z" fill="white"/>
<path d="M126.538 37.5049H139.758V36.3018H126.538V37.5049Z" fill="#43DDBB"/>
<path d="M126.538 38.1064H139.758V37.5049H126.538V38.1064Z" fill="#43DDBB"/>
<path d="M126.538 33.8956H139.758V33.2941H126.538V33.8956Z" fill="#43DDBB"/>
<path d="M126.538 34.4973H139.758V33.8958H126.538V34.4973Z" fill="#43DDBB"/>
<path d="M126.538 35.0988H139.758V34.4972H126.538V35.0988Z" fill="#43DDBB"/>
<path opacity="0.6" d="M126.538 35.7003H139.758V35.0988H126.538V35.7003Z" fill="#39542C"/>
<g style="mix-blend-mode:multiply">
<path d="M174.152 55.7668C174.152 55.7668 170.422 59.3415 164.36 55.7668C164.36 55.7668 157.716 52.0276 155.617 44.6838C153.517 37.3399 166.223 45.9364 166.223 45.9364C166.223 45.9364 168.905 45.9364 169.72 45.0427C170.534 44.1491 176.249 51.8331 174.152 55.7668Z" fill="#43DDBB"/>
</g>
<path d="M174.726 52.6794C174.726 52.6794 170.776 55.0798 164.358 52.6794C164.358 52.6794 157.323 50.1685 155.101 45.2372C152.878 40.3058 147.697 34.9049 147.697 34.9049C147.697 34.9049 138.687 31.5429 139.177 28.1833C139.668 24.8238 149.545 31.9044 149.545 31.9044L153.495 35.505L166.331 46.0683C166.331 46.0683 169.171 46.0683 170.033 45.4682C170.895 44.8681 176.947 50.038 174.726 52.6794Z" fill="#F7C4A7"/>
<path d="M160.49 37.5049C164.307 37.5049 167.401 34.4078 167.401 30.5873C167.401 26.7668 164.307 23.6697 160.49 23.6697C156.673 23.6697 153.579 26.7668 153.579 30.5873C153.579 34.4078 156.673 37.5049 160.49 37.5049Z" fill="#F7C4A7"/>
<path d="M164.311 31.6745C163.907 31.0414 164.728 30.2165 164.458 29.5237C164.209 28.8857 163.217 28.776 162.884 28.1804C162.622 27.6994 162.884 27.1087 162.78 26.5779C162.63 25.8925 161.854 25.4663 161.117 25.4314C160.38 25.3966 159.67 25.6582 158.97 25.8825C157.829 26.2489 156.628 26.5305 155.433 26.4009C154.237 26.2713 153.044 25.6533 152.512 24.6389C152.424 24.4912 152.378 24.3248 152.378 24.1554C152.399 23.7816 152.761 23.5249 152.994 23.2258C153.403 22.705 153.45 21.9947 153.823 21.4514C154.583 20.3448 155.433 18.4406 157.532 18.4406C161.869 18.0064 161.723 20.0034 163.768 20.0682C165.813 20.133 167.963 20.6838 169.319 22.1442C170.945 23.9012 171.018 26.4732 171.005 28.8159C171.005 29.7804 170.963 30.8296 170.315 31.5748C170.127 31.7916 169.896 31.971 169.715 32.1928C169.322 32.6913 169.217 33.3293 168.847 33.8352C168.192 34.7349 166.912 34.9542 165.771 35.0988C166.107 35.0564 165.829 32.9206 165.771 32.7237C165.551 31.7293 165.312 31.7592 164.311 31.6745Z" fill="#2F2E41"/>
<path d="M166.735 31.4899C166.311 32.581 165.31 33.2086 164.497 32.893C163.684 32.5773 163.369 31.4369 163.792 30.3457C164.216 29.2545 165.217 28.6269 166.03 28.9426C166.843 29.2595 167.159 30.3999 166.735 31.4899Z" fill="#F7C4A7"/>
<path d="M31.4287 141.242C40.7704 141.242 48.3433 139.953 48.3433 138.363C48.3433 136.773 40.7704 135.484 31.4287 135.484C22.0871 135.484 14.5142 136.773 14.5142 138.363C14.5142 139.953 22.0871 141.242 31.4287 141.242Z" fill="#43DDBB"/>
<path d="M38.4233 133.653C39.1477 132.976 39.8272 132.176 40.0359 131.203C40.2446 130.23 39.8327 129.063 38.9091 128.708C37.8741 128.309 36.7682 129.031 35.9297 129.761C35.0913 130.49 34.1303 131.322 33.033 131.168C33.5974 130.653 34.0198 129.999 34.2588 129.271C34.4978 128.543 34.5453 127.765 34.3968 127.012C34.3486 126.702 34.2175 126.41 34.0175 126.169C33.443 125.55 32.4015 125.816 31.7136 126.303C29.526 127.852 28.9156 130.844 28.9037 133.537C28.6831 132.565 28.8689 131.553 28.8635 130.557C28.858 129.56 28.5868 128.456 27.752 127.921C27.232 127.639 26.6472 127.501 26.0568 127.52C25.0735 127.483 23.9783 127.583 23.3067 128.307C22.4723 129.206 22.6887 130.716 23.4146 131.706C24.1405 132.697 25.2447 133.318 26.2611 134.002C27.0764 134.491 27.7717 135.158 28.2953 135.955C28.3568 136.066 28.4073 136.183 28.4461 136.304H34.6109C35.9947 135.598 37.2772 134.706 38.4233 133.653Z" fill="#43DDBB"/>
<path d="M26.77 152.368C22.7447 156.857 15.2121 156.188 16.4192 158.124C17.6263 160.06 23.0443 159.564 26.0918 159.402C31.1604 159.131 29.7592 156.225 30.162 155.189C30.566 154.152 26.77 152.368 26.77 152.368Z" fill="white"/>
<path d="M60.9303 88.8755C60.9303 88.8755 35.7813 108.215 36.1258 112.187C36.4704 116.159 54.6643 149.294 56.1759 149.304C57.6875 149.313 61.1183 147.61 61.6315 146.82C62.1447 146.032 60.6209 123.087 58.7235 120.745C56.8261 118.404 73.2634 94.9196 73.2634 94.9196L60.9303 88.8755Z" fill="#92919E"/>
<path d="M82.7878 84.7307C82.7878 84.7307 88.5321 97.8537 85.185 101.48C81.8379 105.106 70.0932 107.789 66.1407 113.74C57.4519 126.822 57.3427 136.096 45.4403 146.121C33.5379 156.146 30.1131 156.39 30.1131 156.39L26.1194 152.885C26.1194 152.885 39.4024 134.806 44.5766 120.301C49.7519 105.796 63.3795 88.7006 63.3795 88.7006L82.7878 84.7307Z" fill="#A7A5BD"/>
<path d="M59.3924 53.8456C59.3924 53.8456 58.1938 54.9629 56.6967 54.2403C55.1997 53.519 49.7307 49.6498 49.8969 48.7062C50.0631 47.7626 52.618 47.5367 52.618 47.5367C52.618 47.5367 60.534 53.8007 59.3924 53.8456Z" fill="#3F3D56"/>
<path d="M57.9513 53.6998C58.9764 53.5359 55.6026 50.8496 54.4998 49.7384C53.3971 48.6284 52.6849 48.1099 52.6849 48.1099C52.6849 48.1099 50.7985 48.3394 50.7985 48.7061C50.7985 49.0729 56.2068 53.3962 56.2068 53.3962C56.2068 53.3962 57.4891 53.7739 57.9513 53.6998Z" fill="white"/>
<path d="M64.5727 58.5321C64.5727 58.5321 62.6038 55.2009 61.6611 54.312C60.7185 53.423 57.5339 51.701 57.0511 51.6913C56.2249 51.673 59.8863 54.1456 59.8863 54.1456C59.8863 54.1456 59.3876 57.3662 59.8305 58.5321C60.2745 59.6979 64.933 61.2524 64.933 61.2524L64.5727 58.5321Z" fill="#F7C4A7"/>
<path d="M68.2339 62.0283C68.2339 62.0283 65.0166 57.1974 64.296 57.5301C63.5753 57.8629 61.6331 62.0283 61.6331 62.0283C61.6331 62.0283 67.2913 67.9146 67.2913 66.8034C67.2901 65.6934 68.2339 62.0283 68.2339 62.0283Z" fill="#24B6F7"/>
<path d="M77.1301 36.1564C77.1301 36.1564 80.4578 47.9277 82.6767 52.8145C84.8956 57.7014 86.0044 66.8071 85.5616 82.7985C85.1176 98.79 88.2245 98.3455 83.5647 100.344C78.9049 102.343 62.2639 99.0122 60.045 93.9031C57.8261 88.7953 61.5311 67.9972 67.0341 60.3646C72.4678 52.8303 74.9112 50.1477 74.9112 48.371C74.9112 46.5943 72.7639 39.043 72.7639 39.043L77.1301 36.1564Z" fill="#F7C4A7"/>
<path d="M60.045 93.9044C57.8261 88.7965 61.5311 67.9984 67.0341 60.3658C69.5647 56.8573 71.4464 54.4006 72.7347 52.5984C75.3685 51.0245 78.2777 49.5575 81.0692 48.7062C81.6273 50.2813 82.1805 51.7216 82.6767 52.8146C84.8956 57.7014 86.0044 66.8071 85.5616 82.7985C85.1176 98.79 88.2245 98.3455 83.5647 100.344C78.9049 102.345 62.2639 99.0134 60.045 93.9044Z" fill="#24B6F7"/>
<path d="M83.0467 46.5955C82.9909 45.6811 71.1395 50.3711 71.0654 51.2601C70.9914 52.1491 70.2927 55.4632 69.3112 57.2484C68.3298 59.0336 85.8115 69.0076 85.1686 64.1511C84.5256 59.2959 83.1947 49.0389 83.0467 46.5955Z" fill="#24B6F7"/>
<g style="mix-blend-mode:multiply">
<path d="M74.9016 48.5714C74.9077 48.5046 74.9113 48.4378 74.9113 48.3734C74.9113 46.5967 72.764 39.0455 72.764 39.0455L77.1302 36.1576C77.1302 36.1576 77.903 38.89 78.9524 42.2685C77.5961 46.3235 76.3271 47.7055 74.9016 48.5714Z" fill="#F7C4A7"/>
</g>
<path d="M66.1422 41.9006C66.949 45.5597 69.4736 48.1622 72.3913 47.4457C74.5313 46.921 77.8214 43.9251 76.766 39.5532C75.8876 35.9111 72.9275 33.4531 69.9929 34.1016C67.0606 34.7501 65.3355 38.2416 66.1422 41.9006Z" fill="#F7C4A7"/>
<path d="M61.0969 69.1716C58.0676 63.9338 57.7292 59.0421 55.5818 57.5144C52.5623 55.3649 50.0825 50.5594 51.1756 50.37C52.2687 50.1805 56.6955 54.2403 56.6955 54.2403C56.6955 54.2403 55.5442 52.6616 55.8184 52.5304C56.0938 52.3993 58.3236 54.0193 58.6694 55.9332C59.0151 57.8471 63.2988 66.6444 66.8922 69.4618C70.4869 72.2793 64.1262 74.4081 61.0969 69.1716Z" fill="#F7C4A7"/>
<path d="M80.7237 55.9745C86.092 57.3128 83.6366 73.5411 79.1102 83.1654C74.5839 92.7896 66.0796 84.4745 62.8986 82.1173C61.6915 81.2223 60.8957 80.3151 60.3728 79.533C61.3931 73.79 63.1437 67.6293 65.3043 63.2926C70.3717 69.2469 72.7811 53.995 80.7237 55.9745Z" fill="#0597D8"/>
<path d="M79.1102 54.8098C85.8615 55.4874 82.1649 72.3557 77.2286 79.1674C72.2922 85.979 65.2655 79.3896 63.0478 75.4658C60.8289 71.542 56.3365 64.87 56.3365 60.5297C56.3365 59.7148 58.001 59.5484 59.9979 59.6966C61.8783 59.8363 70.3729 71.542 70.3729 71.542C70.3729 71.542 73.2081 54.2172 79.1102 54.8098Z" fill="#24B6F7"/>
<path d="M68.8317 30.5422C61.7857 31.0243 62.6846 41.9565 62.6846 41.9565C62.6846 41.9565 68.4957 42.1253 70.2293 41.6213C71.9629 41.1174 73.7269 39.7596 73.7269 39.7596C73.7269 39.7596 74.7933 43.8996 77.7049 44.1315C80.6177 44.3623 80.6177 44.3623 80.6177 44.3623C80.6177 44.3623 82.5394 36.5014 81.0193 32.9577C77.8699 25.608 71.5796 29.2877 68.8317 30.5422Z" fill="#262626"/>
<path d="M76.5184 41.127C76.1011 42.2017 75.1148 42.8199 74.3141 42.509C73.5134 42.1981 73.2029 41.0748 73.6202 40C74.0375 38.9252 75.0238 38.3071 75.8245 38.618C76.6252 38.9301 76.9358 40.0534 76.5184 41.127Z" fill="#F7C4A7"/>
<path d="M79.9989 38.7528C79.9989 38.7528 81.6901 44.5942 84.0351 44.8929C86.3814 45.1917 101.38 46.0612 97.5462 61.8158C94.8809 72.7699 90.1543 74.5988 94.9391 78.6234C98.9256 81.9776 103.635 77.7793 103.635 77.7793C103.635 77.7793 105.94 90.2964 96.6254 90.1361C87.3107 89.9757 82.8632 80.173 86.658 71.179C90.4528 62.185 82.9336 59.8837 82.6266 54.8317C82.2882 49.266 82.6266 46.8493 82.6266 46.8493L79.9977 43.7125V38.7528H79.9989Z" fill="#262626"/>
<g opacity="0.1">
<path opacity="0.1" d="M167.709 148.63V121.675C167.709 121.675 168.072 111.041 169.166 100.511C170.26 89.9814 166.12 81.9493 166.12 81.9493H166.605C166.605 81.9493 170.73 89.9888 169.651 100.511C168.572 111.034 168.194 121.675 168.194 121.675V148.63C168.194 148.63 160.67 151.822 160.548 152.532C160.548 152.532 160.548 152.374 160.51 152.102C162.15 150.991 167.709 148.63 167.709 148.63Z" fill="black"/>
<path opacity="0.1" d="M142.649 149.208C142.42 149.213 142.194 149.258 141.982 149.342V149.223C142.203 149.201 142.427 149.196 142.649 149.208Z" fill="black"/>
<path opacity="0.1" d="M150.963 146.859C152.42 145.796 151.216 126.761 150.963 122.377C150.709 117.992 153.755 99.3242 153.755 99.3242C153.914 99.4442 154.055 99.5858 154.174 99.7446C153.727 102.534 151.229 118.393 151.45 122.377C151.704 126.752 152.907 145.786 151.45 146.859L150.237 150.877L149.795 150.734L150.963 146.859Z" fill="black"/>
</g>
<path opacity="0.1" d="M168.856 54.7096C168.856 54.7096 165.877 46.7415 163.561 46.5153C161.244 46.2891 167.972 46.5153 167.972 46.5153L170.178 50.6125L168.856 54.7096Z" fill="black"/>
<path d="M124.221 64.9155L128.379 63.2485L125.292 55.3095L121.134 56.9765L124.221 64.9155Z" fill="#43DDBB"/>
<path d="M125.675 59.761C125.316 58.8378 124.643 58.2423 124.172 58.4309C123.702 58.6196 123.611 59.521 123.97 60.4443C124.329 61.3675 125.002 61.963 125.473 61.7744C125.943 61.5857 126.034 60.6843 125.675 59.761Z" fill="#39542C"/>
<path d="M113.95 81.8798L117.668 84.3794L122.481 77.3539L118.763 74.8542L113.95 81.8798Z" fill="#43DDBB"/>
<path d="M119.022 80.1753C119.582 79.3583 119.694 78.4666 119.273 78.1837C118.853 77.9007 118.058 78.3337 117.498 79.1508C116.938 79.9678 116.825 80.8595 117.246 81.1424C117.667 81.4253 118.462 80.9923 119.022 80.1753Z" fill="#39542C"/>
<path d="M116.968 102.577L115.173 98.5212L107.192 101.746L108.987 105.801L116.968 102.577Z" fill="#43DDBB"/>
<path d="M110.373 102.789C110.576 103.248 111.493 103.316 112.421 102.941C113.349 102.566 113.937 101.89 113.734 101.431C113.531 100.972 112.614 100.904 111.686 101.279C110.758 101.654 110.17 102.33 110.373 102.789Z" fill="#39542C"/>
<g opacity="0.8">
<path d="M99.3157 150.1L96.502 155.166L106.636 160.508L109.45 155.443L99.3157 150.1Z" fill="#43DDBB"/>
<path d="M105.077 156.494C105.396 155.92 104.699 154.952 103.52 154.331C102.341 153.709 101.128 153.67 100.809 154.244C100.491 154.817 101.188 155.785 102.367 156.407C103.545 157.028 104.759 157.067 105.077 156.494Z" fill="#8ED16F"/>
<path opacity="0.6" d="M105.077 156.494C105.396 155.92 104.699 154.952 103.52 154.331C102.341 153.709 101.128 153.67 100.809 154.244C100.491 154.817 101.188 155.785 102.367 156.407C103.545 157.028 104.759 157.067 105.077 156.494Z" fill="black"/>
<path d="M91.9446 152.049L90.8662 157.711L102.196 159.759L103.274 154.096L91.9446 152.049Z" fill="#43DDBB"/>
<path d="M99.4415 156.407C99.5635 155.766 98.5944 155.053 97.2768 154.815C95.9592 154.577 94.7922 154.903 94.6701 155.544C94.548 156.185 95.5172 156.898 96.8348 157.136C98.1524 157.374 99.3194 157.048 99.4415 156.407Z" fill="#8ED16F"/>
<path opacity="0.6" d="M99.4415 156.407C99.5635 155.766 98.5944 155.053 97.2768 154.815C95.9592 154.577 94.7922 154.903 94.6701 155.544C94.548 156.185 95.5172 156.898 96.8348 157.136C98.1524 157.374 99.3194 157.048 99.4415 156.407Z" fill="black"/>
<path d="M93.0053 155.448L91.9269 161.111L103.257 163.159L104.335 157.496L93.0053 155.448Z" fill="#43DDBB"/>
<path d="M100.505 159.806C100.628 159.165 99.6584 158.453 98.3408 158.215C97.0232 157.976 95.8561 158.303 95.7341 158.944C95.612 159.585 96.5812 160.298 97.8988 160.536C99.2163 160.774 100.383 160.447 100.505 159.806Z" fill="#8ED16F"/>
<path opacity="0.6" d="M100.505 159.806C100.628 159.165 99.6584 158.453 98.3408 158.215C97.0232 157.976 95.8561 158.303 95.7341 158.944C95.612 159.585 96.5812 160.298 97.8988 160.536C99.2163 160.774 100.383 160.447 100.505 159.806Z" fill="black"/>
</g>
<path d="M109.378 147.138L106.564 152.203L116.698 157.546L119.512 152.48L109.378 147.138Z" fill="#43DDBB"/>
<path d="M115.139 153.531C115.458 152.958 114.761 151.989 113.582 151.368C112.404 150.747 111.19 150.708 110.871 151.281C110.553 151.854 111.25 152.823 112.429 153.444C113.607 154.066 114.821 154.104 115.139 153.531Z" fill="#8ED16F"/>
<path opacity="0.6" d="M115.139 153.531C115.458 152.958 114.761 151.989 113.582 151.368C112.404 150.747 111.19 150.708 110.871 151.281C110.553 151.854 111.25 152.823 112.429 153.444C113.607 154.066 114.821 154.104 115.139 153.531Z" fill="black"/>
<path d="M102.007 149.086L100.928 154.749L112.258 156.797L113.336 151.134L102.007 149.086Z" fill="#43DDBB"/>
<path d="M109.504 153.444C109.626 152.803 108.656 152.091 107.339 151.853C106.021 151.614 104.854 151.941 104.732 152.582C104.61 153.223 105.579 153.935 106.897 154.174C108.214 154.412 109.381 154.085 109.504 153.444Z" fill="#8ED16F"/>
<path opacity="0.6" d="M109.504 153.444C109.626 152.803 108.656 152.091 107.339 151.853C106.021 151.614 104.854 151.941 104.732 152.582C104.61 153.223 105.579 153.935 106.897 154.174C108.214 154.412 109.381 154.085 109.504 153.444Z" fill="black"/>
<path d="M103.067 152.486L101.989 158.149L113.319 160.196L114.397 154.533L103.067 152.486Z" fill="#43DDBB"/>
<path d="M110.567 156.844C110.69 156.203 109.72 155.49 108.403 155.252C107.085 155.014 105.918 155.341 105.796 155.982C105.674 156.622 106.643 157.335 107.961 157.573C109.278 157.811 110.445 157.485 110.567 156.844Z" fill="#8ED16F"/>
<path opacity="0.6" d="M110.567 156.844C110.69 156.203 109.72 155.49 108.403 155.252C107.085 155.014 105.918 155.341 105.796 155.982C105.674 156.622 106.643 157.335 107.961 157.573C109.278 157.811 110.445 157.485 110.567 156.844Z" fill="black"/>
<g opacity="0.4">
<path d="M111.747 154.84L108.933 159.905L119.068 165.248L121.881 160.183L111.747 154.84Z" fill="#43DDBB"/>
<path d="M117.502 161.232C117.821 160.659 117.124 159.69 115.945 159.069C114.766 158.448 113.553 158.409 113.234 158.982C112.916 159.555 113.613 160.524 114.792 161.145C115.97 161.767 117.184 161.805 117.502 161.232Z" fill="#39542C"/>
<path d="M104.374 156.79L103.296 162.453L114.625 164.501L115.704 158.838L104.374 156.79Z" fill="#43DDBB"/>
<path d="M111.871 161.149C111.993 160.508 111.024 159.795 109.706 159.557C108.389 159.319 107.222 159.645 107.1 160.286C106.978 160.927 107.947 161.64 109.264 161.878C110.582 162.116 111.749 161.79 111.871 161.149Z" fill="#39542C"/>
<path d="M105.435 160.19L104.357 165.853L115.686 167.9L116.765 162.237L105.435 160.19Z" fill="#43DDBB"/>
<path d="M112.935 164.548C113.057 163.907 112.088 163.195 110.77 162.957C109.452 162.718 108.285 163.045 108.163 163.686C108.041 164.327 109.01 165.039 110.328 165.278C111.646 165.516 112.813 165.189 112.935 164.548Z" fill="#39542C"/>
</g>
<path opacity="0.2" d="M19.8261 107.897C17.5584 107.354 15.28 108.753 14.7371 111.023C14.1942 113.293 15.5925 115.574 17.8602 116.118C20.1279 116.661 22.4064 115.261 22.9493 112.991C23.4922 110.721 22.0939 108.44 19.8261 107.897Z" fill="#004731"/>
<path opacity="0.2" d="M197.368 45.2678C193.572 44.358 189.757 46.7013 188.848 50.5018C187.939 54.3022 190.28 58.1206 194.077 59.0304C197.873 59.9402 201.688 57.5969 202.597 53.7964C203.506 49.996 201.165 46.1776 197.368 45.2678Z" fill="#004731"/>
<path opacity="0.2" d="M92.8308 3.12218C85.6353 1.39785 78.4058 5.83914 76.6832 13.0421C74.9607 20.245 79.3974 27.482 86.5929 29.2063C93.7884 30.9306 101.018 26.4894 102.741 19.2864C104.463 12.0835 100.026 4.84651 92.8308 3.12218Z" fill="#004731"/>
</g>
<defs>
<clipPath id="clip0">
<rect width="206" height="174" fill="white"/>
</clipPath>
</defs>
</svg>
