<svg width="100%" height="180" viewBox="0 0 236 180" fill="none" xmlns="http://www.w3.org/2000/svg">
<g clip-path="url(#clip0)">
<path opacity="0.2" d="M15.6604 70.0374C19.0747 65.1225 24.6753 61.2858 30.5391 57.7863C35.694 54.7093 41.1072 51.8394 46.7787 49.1763C48.3508 48.4366 49.9409 47.7151 51.5488 47.0118L52.6648 46.5277C53.6549 46.0965 54.6577 45.6746 55.6734 45.262L55.7955 45.2117C56.7827 44.8035 57.7759 44.403 58.775 44.0102C62.0447 42.7212 65.4708 41.4843 69.1292 40.6568C70.3759 40.3735 71.649 40.1363 72.9502 39.9624C73.6541 39.8672 74.3679 39.7912 75.0915 39.7343C76.277 39.6414 77.4813 39.6012 78.7225 39.6285C78.9299 39.6321 79.1387 39.6382 79.3471 39.6462C80.6128 39.694 81.8779 39.8107 83.1426 39.9859C87.7773 40.6291 92.3778 42.0719 96.7333 43.9145C98.9101 44.8355 101.026 45.857 103.052 46.9284C103.302 47.0594 103.549 47.1918 103.801 47.3168C110.685 51.0376 116.953 55.3514 123.911 58.9956C126.309 60.2521 128.78 61.4229 131.323 62.5078C132.565 63.0366 133.818 63.5461 135.084 64.0363C138.066 65.1815 141.119 66.2015 144.217 67.09C148.392 68.2991 152.773 69.2581 156.979 69.4344C157.539 69.4583 158.095 69.4674 158.648 69.4617C159.349 69.4552 160.044 69.4226 160.731 69.364C162.589 69.1842 164.435 68.8517 166.253 68.3694C166.61 68.2793 166.965 68.1862 167.319 68.0912C168.432 67.7926 169.535 67.479 170.649 67.1849C172.662 66.62 174.71 66.2272 176.774 66.0103C177.9 65.9093 179.028 65.8749 180.154 65.9074C183.137 65.9813 186.215 66.465 189.251 67.1755C190.714 67.5258 192.17 67.9101 193.599 68.338L193.643 68.3487C194.131 68.4948 194.62 68.6452 195.106 68.8037C197.327 69.5092 199.519 70.3019 201.655 71.1797C208.973 74.1882 215.647 78.1597 220.628 82.9733C227.393 89.5077 230.738 97.636 228.33 104.38C226.597 109.24 222.142 113.07 217.88 116.845C209.952 123.874 202.35 131.185 197.26 139.592C193.129 146.415 190.555 154.06 183.53 159.399C181.28 161.108 178.589 162.515 175.59 163.594C173.349 164.394 171.056 165.001 168.734 165.41C166.107 165.878 163.457 166.142 160.805 166.201C158.505 166.254 156.209 166.168 153.926 165.943C152.686 165.822 151.439 165.66 150.196 165.454C149.237 165.298 148.281 165.116 147.326 164.907L147.179 164.872C146.595 164.744 146.014 164.605 145.436 164.454C141.216 163.37 137.092 161.935 133.101 160.163C130.6 159.072 128.145 157.881 125.759 156.646C124.334 155.91 122.927 155.16 121.539 154.395C121.115 154.161 120.692 153.926 120.275 153.69C110.419 148.138 102.109 141.741 92.7362 135.879C92.6884 135.849 92.6425 135.819 92.5938 135.793C90.6659 134.607 88.6779 133.53 86.6378 132.567C85.1405 131.852 83.597 131.175 82.0171 130.527C79.5993 129.529 77.1076 128.602 74.5869 127.713L74.0306 127.517C70.3322 126.213 66.5763 125.002 62.9418 123.767C61.6517 123.329 60.3737 122.889 59.119 122.433C58.3221 122.15 57.5339 121.864 56.7544 121.574C56.1954 121.365 55.6344 121.155 55.0744 120.941C54.5145 120.728 53.922 120.502 53.3467 120.279C52.9725 120.135 52.6006 119.989 52.2277 119.839C49.9652 118.948 47.7177 118.018 45.5091 117.041C44.1656 116.447 42.8344 115.836 41.5251 115.206C40.5771 114.75 39.6405 114.285 38.7155 113.809C38.029 113.459 37.3509 113.101 36.6812 112.736C31.2352 109.785 26.2788 106.438 22.2461 102.556C11.7699 92.4943 9.12959 79.4362 15.6604 70.0374Z" fill="#004731"/>
<path opacity="0.2" d="M62.4028 26.4854C60.0433 25.9203 57.6725 27.3757 57.1077 29.7361C56.5428 32.0965 57.9977 34.4681 60.3573 35.0331C62.7168 35.5982 65.0875 34.1428 65.6524 31.7824C66.2173 29.422 64.7624 27.0504 62.4028 26.4854Z" fill="#004731"/>
<path opacity="0.2" d="M217.339 132.11C214.98 131.545 212.604 133.022 212.033 135.409C211.461 137.795 212.911 140.189 215.271 140.754C217.63 141.319 220.006 139.842 220.577 137.455C221.149 135.068 219.699 132.675 217.339 132.11Z" fill="#004731"/>
<path opacity="0.2" d="M222.444 38.3667C214.957 36.5738 207.435 41.1918 205.642 48.6814C203.85 56.1709 208.466 63.6959 215.953 65.4888C223.44 67.2818 230.963 62.6637 232.755 55.1742C234.547 47.6846 229.931 40.1597 222.444 38.3667Z" fill="#004731"/>
<path d="M151.556 0H87.0541C82.9905 0 79.6949 3.29671 79.6949 7.35862V140.394C79.6949 144.459 82.9905 147.756 87.0541 147.756H151.553C155.617 147.756 158.909 144.459 158.909 140.394V7.35862C158.912 3.29671 155.62 0 151.556 0Z" fill="#3F3D56"/>
<path d="M129.325 5.71692H112.018C110.936 5.71692 110.058 6.63138 110.058 7.75868C110.058 8.88599 110.936 9.80045 112.018 9.80045H129.325C130.407 9.80045 131.285 8.88599 131.285 7.75868C131.285 6.62875 130.407 5.71692 129.325 5.71692Z" fill="white"/>
<path d="M139.45 7.75868C139.45 8.88599 138.535 9.80045 137.409 9.80045C136.282 9.80045 135.368 8.88599 135.368 7.75868C135.368 6.63138 136.282 5.71692 137.409 5.71692C138.535 5.71955 139.45 6.63138 139.45 7.75868Z" fill="white"/>
<path d="M102.711 7.75868C102.711 6.63138 103.625 5.71692 104.752 5.71692C105.879 5.71692 106.793 6.63138 106.793 7.75868C106.793 8.88599 105.879 9.80045 104.752 9.80045C103.625 9.80045 102.711 8.88599 102.711 7.75868Z" fill="white"/>
<path d="M120.264 144.557C123.195 144.557 125.571 142.18 125.571 139.248C125.571 136.317 123.195 133.94 120.264 133.94C117.333 133.94 114.957 136.317 114.957 139.248C114.957 142.18 117.333 144.557 120.264 144.557Z" fill="white"/>
<path d="M118.983 51.9348H118.145H106.471V49.8879V47.8429H104.426V49.8879H102.379V51.9348H104.426H102.379V53.9816V56.0284V58.0734H104.426H106.572V56.0284H104.426V53.9816H106.471H118.145V67.8006H120.19V51.9348H118.983Z" fill="white"/>
<path d="M102.379 47.8429H98.2881V49.8575H102.379V47.8429Z" fill="white"/>
<path d="M118.176 49.8575H114.085V51.9352H118.176V49.8575Z" fill="white"/>
<path d="M114.085 47.8429H109.994V49.8575H114.085V47.8429Z" fill="white"/>
<path d="M116.099 36.5104H114.085V40.1619H116.099V36.5104Z" fill="white"/>
<path d="M120.001 34.3699H117.924V38.5251H120.001V34.3699Z" fill="white"/>
<path d="M122.266 49.8575H120.19V51.9352H122.266V49.8575Z" fill="white"/>
<path d="M126.294 51.6833H124.28V57.0977H126.294V51.6833Z" fill="white"/>
<path d="M120.189 47.8429H118.176V49.8575H120.189V47.8429Z" fill="white"/>
<path d="M124.28 47.8429V45.7653H122.236H120.19V47.8429H122.236H124.28Z" fill="white"/>
<path d="M128.213 58.0304H124.252V57.0869H122.204V62.5751H124.252V60.0845H126.188V62.1368H128.234V60.1179H130.259V55.7756H128.213V58.0304Z" fill="white"/>
<path d="M134.35 69.8152H132.336V71.8928H134.35V69.8152Z" fill="white"/>
<path d="M116.028 66.0377H113.959V67.79V69.8353V74.2223H116.028V69.8353H118.175V67.79H116.028V66.0377Z" fill="white"/>
<path d="M110.195 59.9937H100.398H98.3508V62.042V71.859V73.9074H100.398H110.195H112.242H112.26V71.859H112.242V62.042H112.26V59.9937H112.242H110.195ZM110.195 71.859H100.398V62.042H110.195V71.859Z" fill="white"/>
<path d="M138.441 71.8927H134.35V73.9073H138.441V71.8927Z" fill="white"/>
<path d="M126.546 71.9252V73.9704H128.623V71.9252V69.8782H126.546V71.9252Z" fill="white"/>
<path d="M124.658 71.8928H118.176V73.9075H124.658V71.8928Z" fill="white"/>
<path d="M132.336 53.761H130.259V55.7756H132.336V53.761Z" fill="white"/>
<path d="M134.35 51.6833H132.336V53.761H134.35V51.6833Z" fill="white"/>
<path d="M138.126 47.5911H133.909V49.6687H138.126V47.5911Z" fill="white"/>
<path d="M140.077 56.0274V53.9822V51.9352H138.033V53.9822H135.987V56.0274H138.033H140.077Z" fill="white"/>
<path d="M135.986 56.0273H133.909V58.105H135.986V56.0273Z" fill="white"/>
<path d="M138.001 58.105H135.987V60.1196H138.001V58.105Z" fill="white"/>
<path d="M138.033 66.2735V69.8152H140.077V63.8239H138.033V62.1973H135.987V66.2735H138.033Z" fill="white"/>
<path d="M130.271 65.7218H124.658V67.7694H130.271V69.8152H132.323V67.7694V62.1654H135.986V60.1196H130.271V62.1654V65.7218Z" fill="white"/>
<path d="M124.658 67.8005H120.19V69.8152H124.658V67.8005Z" fill="white"/>
<path d="M111.819 55.9015V58.0394H113.974V62.1343H116.036V58.0394H113.974V55.9015H111.819Z" fill="white"/>
<path d="M108.358 63.8972H102.253V70.0041H108.358V63.8972Z" fill="white"/>
<path d="M110.197 45.7653H112.244H112.262V43.7169H112.244V33.8999H112.262V31.8516H112.244H110.197H100.4H98.353V33.8999V43.7169V45.7653H100.4H110.197ZM100.4 33.8999H110.197V43.7169H100.4V33.8999Z" fill="white"/>
<path d="M108.358 35.7549H102.253V41.8618H108.358V35.7549Z" fill="white"/>
<path d="M140.263 33.8973V31.8516H140.245H138.202H128.424H126.381V33.8973V36.4742H121.93V38.52H119.988V41.7385H118.169V40.1293H116.125V41.7385H115.98H114.085V47.7952H116.129V43.7825H118.172H119.991H122.033V41.7368V38.5182H126.384V43.7019V45.7476H128.428H130.261V49.6376H126.327V51.6833H132.305V49.6376V45.7476H138.205H140.249H140.266V43.7019H140.249V33.8973H140.263ZM138.204 43.7019H128.426V33.8973H138.204V43.7019Z" fill="white"/>
<path d="M136.427 35.7549H130.259V41.8618H136.427V35.7549Z" fill="white"/>
<path d="M53.9471 61.3227C53.9471 61.3227 50.9318 79.14 65.7947 90.0162C80.6576 100.892 74.1367 134.731 74.1367 134.731" stroke="#535461" stroke-width="2" stroke-miterlimit="10"/>
<path d="M55.7998 54.2648C56.7621 57.9145 54.0844 61.8387 54.0844 61.8387C54.0844 61.8387 49.8492 59.8433 48.8869 56.1936C47.9246 52.5439 48.6869 49.1553 50.6023 48.6197C52.5178 48.084 54.8375 50.6151 55.7998 54.2648Z" fill="#43DDBB"/>
<path d="M53.0028 55.0441C52.7009 53.8981 52.0991 53.0688 51.6585 53.1918C51.218 53.3148 51.1055 54.3435 51.4073 55.4895C51.7091 56.6355 52.3109 57.4649 52.7515 57.3419C53.1921 57.2188 53.3046 56.1901 53.0028 55.0441Z" fill="#39542C"/>
<path d="M61.8345 69.533C59.2143 72.3946 54.4655 72.4077 54.4655 72.4077C54.4655 72.4077 53.9665 67.783 56.5905 64.9225C59.2146 62.062 62.5153 60.787 63.9595 62.0478C65.4037 63.3086 64.4547 66.6714 61.8345 69.533Z" fill="#43DDBB"/>
<path d="M59.5882 67.5288C60.4095 66.63 60.8041 65.6637 60.4694 65.3704C60.1348 65.0772 59.1978 65.5681 58.3765 66.4669C57.5552 67.3657 57.1607 68.3321 57.4953 68.6253C57.8299 68.9186 58.767 68.4276 59.5882 67.5288Z" fill="#39542C"/>
<path d="M67.2385 81.3799C64.6183 84.2415 59.8695 84.2546 59.8695 84.2546C59.8695 84.2546 59.3704 79.6299 61.9945 76.7694C64.6185 73.9089 67.9193 72.6339 69.3634 73.8947C70.8076 75.1555 69.86 78.5208 67.2385 81.3799Z" fill="#43DDBB"/>
<path d="M65.123 79.5285C65.946 78.6305 66.3421 77.6643 66.0078 77.3704C65.6735 77.0766 64.7354 77.5663 63.9124 78.4643C63.0895 79.3623 62.6934 80.3286 63.0277 80.6224C63.362 80.9163 64.3001 80.4265 65.123 79.5285Z" fill="#39542C"/>
<path d="M78.2282 92.776C75.608 95.6376 70.8592 95.6507 70.8592 95.6507C70.8592 95.6507 70.3602 91.026 72.9842 88.1655C75.6082 85.305 78.909 84.03 80.3532 85.2908C81.7974 86.5516 80.8524 89.9218 78.2282 92.776Z" fill="#43DDBB"/>
<path d="M76.1162 90.9302C76.9391 90.0322 77.3353 89.066 77.001 88.7722C76.6667 88.4783 75.7285 88.9681 74.9056 89.8661C74.0827 90.7641 73.6865 91.7303 74.0208 92.0242C74.3551 92.318 75.2932 91.8283 76.1162 90.9302Z" fill="#39542C"/>
<path d="M82.3797 106.373C79.7595 109.235 75.0107 109.248 75.0107 109.248C75.0107 109.248 74.5117 104.623 77.1357 101.763C79.7598 98.9022 83.0606 97.6272 84.5047 98.888C85.9489 100.149 85.0038 103.513 82.3797 106.373Z" fill="#43DDBB"/>
<path d="M80.1623 104.315C80.9836 103.416 81.3781 102.45 81.0435 102.157C80.7089 101.863 79.7719 102.354 78.9506 103.253C78.1293 104.152 77.7348 105.118 78.0694 105.412C78.404 105.705 79.341 105.214 80.1623 104.315Z" fill="#39542C"/>
<path d="M49.0202 80.6229C52.6858 81.7292 56.7947 79.2778 56.7947 79.2778C56.7947 79.2778 54.9552 75.0275 51.2896 73.9213C47.624 72.8151 44.1449 73.4194 43.5151 75.2664C42.8853 77.1135 45.3546 79.5167 49.0202 80.6229Z" fill="#43DDBB"/>
<path d="M52.286 77.7726C52.4304 77.3451 51.6146 76.7172 50.4638 76.37C49.3131 76.0229 48.2632 76.088 48.1188 76.5154C47.9744 76.9429 48.7902 77.5708 49.9409 77.918C51.0916 78.2651 52.1416 78.2 52.286 77.7726Z" fill="#39542C"/>
<path d="M68.049 119.28C71.7146 120.386 75.8235 117.935 75.8235 117.935C75.8235 117.935 73.984 113.684 70.3184 112.578C66.6528 111.472 63.1737 112.076 62.5439 113.923C61.9141 115.77 64.3834 118.173 68.049 119.28Z" fill="#43DDBB"/>
<path d="M71.3131 116.434C71.4575 116.007 70.6417 115.379 69.4909 115.032C68.3402 114.684 67.2903 114.75 67.1459 115.177C67.0015 115.605 67.8173 116.232 68.968 116.58C70.1188 116.927 71.1687 116.862 71.3131 116.434Z" fill="#39542C"/>
<path d="M58.0191 93.0623C61.8853 92.8932 64.9568 89.2524 64.9568 89.2524C64.9568 89.2524 61.7624 85.8892 57.8987 86.0569C54.0349 86.2247 50.9209 87.9197 50.9609 89.8668C51.001 91.8139 54.1528 93.2315 58.0191 93.0623Z" fill="#43DDBB"/>
<path d="M60.1467 89.3282C60.1389 88.8819 59.149 88.5631 57.9357 88.6163C56.7224 88.6696 55.7451 89.0746 55.7529 89.521C55.7607 89.9674 56.7506 90.2861 57.9639 90.2329C59.1772 90.1796 60.1545 89.7746 60.1467 89.3282Z" fill="#39542C"/>
<path d="M66.4872 105.721C70.3534 105.552 73.4249 101.911 73.4249 101.911C73.4249 101.911 70.2305 98.548 66.3668 98.7158C62.503 98.8835 59.389 100.579 59.429 102.526C59.4691 104.473 62.6414 105.898 66.4872 105.721Z" fill="#43DDBB"/>
<path d="M68.6168 101.988C68.609 101.542 67.6191 101.223 66.4058 101.276C65.1925 101.329 64.2152 101.735 64.223 102.181C64.2307 102.627 65.2207 102.946 66.434 102.893C67.6473 102.84 68.6246 102.435 68.6168 101.988Z" fill="#39542C"/>
<path d="M65.3521 143.897L63.8488 143.054C63.8488 143.054 63.1457 146.007 63.3755 148.112C63.3982 148.326 63.4854 148.527 63.6254 148.689C63.7654 148.851 63.9514 148.966 64.1583 149.018C67.6164 149.882 84.0984 153.565 95.4324 148.378C95.5967 148.302 95.7387 148.185 95.8443 148.038C95.95 147.89 96.0156 147.717 96.0348 147.537C96.1738 146.243 95.6816 143.574 95.4852 143.054C95.0624 141.935 65.3521 143.897 65.3521 143.897Z" fill="#FBD56F"/>
<path opacity="0.1" d="M65.3521 143.897L63.8488 143.054C63.8488 143.054 63.1457 146.007 63.3755 148.112C63.3982 148.326 63.4854 148.527 63.6254 148.689C63.7654 148.851 63.9514 148.966 64.1583 149.018C67.6164 149.882 84.0984 153.565 95.4324 148.378C95.5967 148.302 95.7387 148.185 95.8443 148.038C95.95 147.89 96.0156 147.717 96.0348 147.537C96.1738 146.243 95.6816 143.574 95.4852 143.054C95.0624 141.935 65.3521 143.897 65.3521 143.897Z" fill="black"/>
<path d="M79.6666 146.643C88.4028 146.643 95.4848 145.036 95.4848 143.054C95.4848 141.072 88.4028 139.465 79.6666 139.465C70.9304 139.465 63.8484 141.072 63.8484 143.054C63.8484 145.036 70.9304 146.643 79.6666 146.643Z" fill="#FBD56F"/>
<path d="M70.6944 136.937L69.1912 136.094C69.1912 136.094 68.4881 139.048 68.7179 141.153C68.7406 141.366 68.8278 141.567 68.9678 141.729C69.1078 141.891 69.2938 142.006 69.5007 142.058C72.9589 142.923 89.4409 146.606 100.775 141.418C100.939 141.343 101.081 141.226 101.187 141.078C101.292 140.931 101.358 140.758 101.377 140.577C101.516 139.284 101.024 136.614 100.828 136.094C100.405 134.975 70.6944 136.937 70.6944 136.937Z" fill="#FBD56F"/>
<path opacity="0.1" d="M70.6944 136.937L69.1912 136.094C69.1912 136.094 68.4881 139.048 68.7179 141.153C68.7406 141.366 68.8278 141.567 68.9678 141.729C69.1078 141.891 69.2938 142.006 69.5007 142.058C72.9589 142.923 89.4409 146.606 100.775 141.418C100.939 141.343 101.081 141.226 101.187 141.078C101.292 140.931 101.358 140.758 101.377 140.577C101.516 139.284 101.024 136.614 100.828 136.094C100.405 134.975 70.6944 136.937 70.6944 136.937Z" fill="black"/>
<path d="M85.0094 139.683C93.7455 139.683 100.828 138.076 100.828 136.094C100.828 134.112 93.7455 132.505 85.0094 132.505C76.2732 132.505 69.1912 134.112 69.1912 136.094C69.1912 138.076 76.2732 139.683 85.0094 139.683Z" fill="#FBD56F"/>
<path d="M64.7781 129.692L63.2748 128.85C63.2748 128.85 62.5717 131.803 62.8015 133.908C62.8242 134.121 62.9114 134.322 63.0514 134.484C63.1914 134.646 63.3774 134.761 63.5843 134.813C67.0424 135.678 83.5244 139.361 94.8583 134.173C95.0227 134.098 95.1647 133.981 95.2703 133.833C95.3759 133.686 95.4415 133.513 95.4607 133.332C95.5997 132.039 95.1076 129.37 94.9111 128.85C94.4884 127.73 64.7781 129.692 64.7781 129.692Z" fill="#FBD56F"/>
<path opacity="0.1" d="M64.7781 129.692L63.2748 128.85C63.2748 128.85 62.5717 131.803 62.8015 133.908C62.8242 134.121 62.9114 134.322 63.0514 134.484C63.1914 134.646 63.3774 134.761 63.5843 134.813C67.0424 135.678 83.5244 139.361 94.8583 134.173C95.0227 134.098 95.1647 133.981 95.2703 133.833C95.3759 133.686 95.4415 133.513 95.4607 133.332C95.5997 132.039 95.1076 129.37 94.9111 128.85C94.4884 127.73 64.7781 129.692 64.7781 129.692Z" fill="black"/>
<path d="M79.093 132.438C87.8292 132.438 94.9113 130.832 94.9113 128.849C94.9113 126.867 87.8292 125.26 79.093 125.26C70.3568 125.26 63.2748 126.867 63.2748 128.849C63.2748 130.832 70.3568 132.438 79.093 132.438Z" fill="#FBD56F"/>
<path d="M78.0881 123.878L76.5849 123.035C76.5849 123.035 75.8818 125.989 76.1116 128.093C76.1342 128.307 76.2214 128.508 76.3614 128.67C76.5014 128.832 76.6875 128.947 76.8944 128.999C80.3525 129.864 96.8345 133.546 108.168 128.359C108.333 128.284 108.475 128.166 108.58 128.019C108.686 127.871 108.752 127.699 108.771 127.518C108.91 126.224 108.418 123.555 108.221 123.035C107.798 121.916 78.0881 123.878 78.0881 123.878Z" fill="#FBD56F"/>
<path opacity="0.1" d="M78.0881 123.878L76.5849 123.035C76.5849 123.035 75.8818 125.989 76.1116 128.093C76.1342 128.307 76.2214 128.508 76.3614 128.67C76.5014 128.832 76.6875 128.947 76.8944 128.999C80.3525 129.864 96.8345 133.546 108.168 128.359C108.333 128.284 108.475 128.166 108.58 128.019C108.686 127.871 108.752 127.699 108.771 127.518C108.91 126.224 108.418 123.555 108.221 123.035C107.798 121.916 78.0881 123.878 78.0881 123.878Z" fill="black"/>
<path d="M92.4034 126.624C101.14 126.624 108.222 125.018 108.222 123.035C108.222 121.053 101.14 119.446 92.4034 119.446C83.6673 119.446 76.5852 121.053 76.5852 123.035C76.5852 125.018 83.6673 126.624 92.4034 126.624Z" fill="#FBD56F"/>
<path d="M69.0955 119.97L67.5922 119.127C67.5922 119.127 66.8891 122.081 67.1189 124.186C67.1416 124.399 67.2288 124.6 67.3688 124.762C67.5088 124.924 67.6948 125.039 67.9017 125.091C71.3598 125.956 87.8419 129.639 99.1759 124.451C99.3403 124.376 99.4822 124.259 99.5879 124.111C99.6935 123.964 99.7591 123.791 99.7783 123.61C99.9173 122.317 99.4252 119.648 99.2287 119.127C98.8059 118.008 69.0955 119.97 69.0955 119.97Z" fill="#FBD56F"/>
<path opacity="0.1" d="M69.0955 119.97L67.5922 119.127C67.5922 119.127 66.8891 122.081 67.1189 124.186C67.1416 124.399 67.2288 124.6 67.3688 124.762C67.5088 124.924 67.6948 125.039 67.9017 125.091C71.3598 125.956 87.8419 129.639 99.1759 124.451C99.3403 124.376 99.4822 124.259 99.5879 124.111C99.6935 123.964 99.7591 123.791 99.7783 123.61C99.9173 122.317 99.4252 119.648 99.2287 119.127C98.8059 118.008 69.0955 119.97 69.0955 119.97Z" fill="black"/>
<path d="M83.41 122.716C92.1462 122.716 99.2283 121.11 99.2283 119.127C99.2283 117.145 92.1462 115.538 83.41 115.538C74.6739 115.538 67.5918 117.145 67.5918 119.127C67.5918 121.11 74.6739 122.716 83.41 122.716Z" fill="#FBD56F"/>
<path d="M75.0993 112.426L73.5961 111.583C73.5961 111.583 72.893 114.537 73.1228 116.641C73.1455 116.855 73.2327 117.056 73.3727 117.218C73.5127 117.38 73.6987 117.495 73.9056 117.547C77.3637 118.412 93.8457 122.094 105.18 116.907C105.344 116.832 105.486 116.714 105.592 116.567C105.697 116.419 105.763 116.247 105.782 116.066C105.921 114.772 105.429 112.103 105.232 111.583C104.81 110.464 75.0993 112.426 75.0993 112.426Z" fill="#FBD56F"/>
<path opacity="0.1" d="M75.0993 112.426L73.5961 111.583C73.5961 111.583 72.893 114.537 73.1228 116.641C73.1455 116.855 73.2327 117.056 73.3727 117.218C73.5127 117.38 73.6987 117.495 73.9056 117.547C77.3637 118.412 93.8457 122.094 105.18 116.907C105.344 116.832 105.486 116.714 105.592 116.567C105.697 116.419 105.763 116.247 105.782 116.066C105.921 114.772 105.429 112.103 105.232 111.583C104.81 110.464 75.0993 112.426 75.0993 112.426Z" fill="black"/>
<path d="M89.4148 115.172C98.151 115.172 105.233 113.565 105.233 111.583C105.233 109.601 98.151 107.994 89.4148 107.994C80.6786 107.994 73.5966 109.601 73.5966 111.583C73.5966 113.565 80.6786 115.172 89.4148 115.172Z" fill="#FBD56F"/>
<path d="M78.0603 103.471L76.5571 102.628C76.5571 102.628 75.8539 105.582 76.0838 107.686C76.1064 107.9 76.1936 108.101 76.3336 108.263C76.4736 108.425 76.6596 108.54 76.8665 108.592C80.3247 109.457 96.8067 113.139 108.141 107.952C108.305 107.877 108.447 107.759 108.553 107.612C108.658 107.464 108.724 107.292 108.743 107.111C108.882 105.817 108.39 103.148 108.194 102.628C107.771 101.509 78.0603 103.471 78.0603 103.471Z" fill="#FBD56F"/>
<path opacity="0.1" d="M78.0603 103.471L76.5571 102.628C76.5571 102.628 75.8539 105.582 76.0838 107.686C76.1064 107.9 76.1936 108.101 76.3336 108.263C76.4736 108.425 76.6596 108.54 76.8665 108.592C80.3247 109.457 96.8067 113.139 108.141 107.952C108.305 107.877 108.447 107.759 108.553 107.612C108.658 107.464 108.724 107.292 108.743 107.111C108.882 105.817 108.39 103.148 108.194 102.628C107.771 101.509 78.0603 103.471 78.0603 103.471Z" fill="black"/>
<path d="M92.3758 106.218C101.112 106.218 108.194 104.611 108.194 102.628C108.194 100.646 101.112 99.0394 92.3758 99.0394C83.6396 99.0394 76.5575 100.646 76.5575 102.628C76.5575 104.611 83.6396 106.218 92.3758 106.218Z" fill="#FBD56F"/>
<path opacity="0.1" d="M114.364 101.5C114.364 101.5 107.131 104.934 106.515 106.431C105.899 107.929 114.364 101.5 114.364 101.5Z" fill="black"/>
<path opacity="0.1" d="M113.902 105.915C113.902 105.915 107.374 108.703 106.483 109.4C105.591 110.097 113.902 105.915 113.902 105.915Z" fill="black"/>
<path d="M100.187 151.516C106.658 151.516 111.903 145.912 111.903 138.999C111.903 132.085 106.658 126.481 100.187 126.481C93.7169 126.481 88.4717 132.085 88.4717 138.999C88.4717 145.912 93.7169 151.516 100.187 151.516Z" fill="#FBD56F"/>
<path opacity="0.1" d="M100.187 151.516C106.658 151.516 111.903 145.912 111.903 138.999C111.903 132.085 106.658 126.481 100.187 126.481C93.7169 126.481 88.4717 132.085 88.4717 138.999C88.4717 145.912 93.7169 151.516 100.187 151.516Z" fill="black"/>
<path d="M102.209 151.516C108.679 151.516 113.924 146.036 113.924 139.277C113.924 132.518 108.679 127.039 102.209 127.039C95.7385 127.039 90.4933 132.518 90.4933 139.277C90.4933 146.036 95.7385 151.516 102.209 151.516Z" fill="#FBD56F"/>
<path d="M139.104 151.483C146.672 151.483 152.807 150.44 152.807 149.153C152.807 147.866 146.672 146.822 139.104 146.822C131.537 146.822 125.402 147.866 125.402 149.153C125.402 150.44 131.537 151.483 139.104 151.483Z" fill="#43DDBB"/>
<path d="M144.771 145.34C145.358 144.791 145.908 144.144 146.077 143.356C146.246 142.569 145.913 141.624 145.164 141.336C144.326 141.013 143.43 141.598 142.751 142.189C142.071 142.779 141.293 143.453 140.404 143.328C140.861 142.911 141.203 142.382 141.397 141.792C141.591 141.203 141.629 140.573 141.509 139.964C141.47 139.712 141.364 139.476 141.202 139.281C140.736 138.78 139.893 138.995 139.335 139.389C137.563 140.643 137.069 143.065 137.059 145.245C136.88 144.459 137.031 143.64 137.026 142.833C137.022 142.026 136.802 141.132 136.126 140.699C135.705 140.471 135.231 140.359 134.753 140.374C133.956 140.345 133.069 140.425 132.525 141.011C131.849 141.74 132.024 142.962 132.612 143.764C133.2 144.566 134.095 145.068 134.918 145.622C135.579 146.018 136.142 146.558 136.566 147.203C136.616 147.293 136.657 147.388 136.688 147.486H141.682C142.803 146.914 143.842 146.192 144.771 145.34Z" fill="#43DDBB"/>
<path d="M177.363 146.164C177.363 146.164 184.045 146.906 185.636 146.164C187.227 145.421 187.757 147.135 183.62 149.196C179.484 151.257 177.681 152.849 176.302 152.317C174.924 151.787 173.969 149.125 174.182 147.591C174.394 146.057 177.363 146.164 177.363 146.164Z" fill="#ACA9C9"/>
<path d="M147.349 145.315C147.349 145.315 147.031 150.407 148.622 151.468C150.213 152.53 152.142 153.962 148.41 153.962C144.678 153.962 143.686 152.211 142.519 150.407C141.352 148.603 140.14 147.206 141.799 145.987C143.458 144.767 143.532 143.616 143.85 143.616C144.167 143.617 147.349 145.315 147.349 145.315Z" fill="#ACA9C9"/>
<path d="M169.405 97.5179C169.405 127.436 147.811 148.182 147.811 148.182C147.811 148.182 142.68 146.374 142.52 144.464C142.361 142.555 150.944 128.868 150.944 118.684C150.944 108.499 150.944 87.9701 150.944 87.9701L169.405 97.5179Z" fill="#618FD8"/>
<g style="mix-blend-mode:multiply">
<path d="M150.944 87.9701C150.944 87.9701 150.944 102.663 150.944 113.356C154.882 122.437 156.373 130.992 156.559 137.291C162.546 128.328 169.405 114.38 169.405 97.5179L150.944 87.9701Z" fill="#618FD8"/>
</g>
<path d="M150.952 82.8779C150.475 107.862 172.181 148.443 173.671 149.079C175.162 149.716 179.382 147.599 179.139 146.056C173.382 109.454 172.27 85.1062 172.27 85.1062L150.952 82.8779Z" fill="#618FD8"/>
<path d="M174.812 51.1338C174.812 51.1338 175.958 52.2006 177.389 51.511C178.821 50.8214 184.049 47.1259 183.889 46.224C183.73 45.3221 181.287 45.1066 181.287 45.1066C181.287 45.1066 173.719 51.0909 174.812 51.1338Z" fill="#3F3D56"/>
<path d="M176.19 50.9943C175.209 50.8371 178.435 48.2711 179.49 47.2097C180.544 46.1484 181.225 45.6534 181.225 45.6534C181.225 45.6534 183.028 45.8734 183.028 46.2232C183.028 46.5729 177.857 50.704 177.857 50.704C177.857 50.704 176.632 51.0647 176.19 50.9943Z" fill="white"/>
<path d="M169.86 55.6103C169.86 55.6103 171.742 52.4273 172.643 51.5782C173.545 50.7291 176.588 49.0837 177.05 49.0738C177.84 49.0562 174.34 51.4187 174.34 51.4187C174.34 51.4187 174.817 54.495 174.393 55.6092C173.968 56.7233 169.514 58.2081 169.514 58.2081L169.86 55.6103Z" fill="#F7C4A7"/>
<path d="M166.359 58.9516C166.359 58.9516 169.435 54.3366 170.125 54.6545C170.814 54.9723 172.67 58.9516 172.67 58.9516C172.67 58.9516 167.261 64.5752 167.261 63.5138C167.261 62.4525 166.359 58.9516 166.359 58.9516Z" fill="#35B6B4"/>
<path d="M157.854 34.2346C157.854 34.2346 154.673 45.4806 152.552 50.1495C150.431 54.8173 149.37 63.5183 149.794 78.7952C150.219 94.0733 147.249 93.6488 151.703 95.5581C156.158 97.4675 172.066 94.2845 174.187 89.4044C176.308 84.5244 172.766 64.6544 167.505 57.3635C162.311 50.1649 159.975 47.6023 159.975 45.9052C159.975 44.2081 162.028 36.9931 162.028 36.9931L157.854 34.2346Z" fill="#F7C4A7"/>
<path d="M174.187 89.4055C176.308 84.5255 172.767 64.6555 167.506 57.3646C165.087 54.0122 163.288 51.6662 162.056 49.9438C159.537 48.4403 156.756 47.0391 154.088 46.2252C153.555 47.7298 153.026 49.1057 152.551 50.1506C150.43 54.8184 149.369 63.5193 149.793 78.7963C150.218 94.0744 147.248 93.6499 151.702 95.5592C156.158 97.4686 172.066 94.2856 174.187 89.4055Z" fill="#43DDBB"/>
<path d="M152.198 44.2081C152.251 43.3348 163.582 47.8156 163.652 48.6647C163.722 49.5138 164.391 52.6792 165.33 54.3851C166.269 56.0909 149.556 65.619 150.17 60.9798C150.785 56.3406 152.057 46.542 152.198 44.2081Z" fill="#43DDBB"/>
<g style="mix-blend-mode:multiply">
<path d="M159.985 46.0943C159.979 46.0306 159.975 45.9668 159.975 45.9052C159.975 44.2081 162.028 36.9931 162.028 36.9931L157.853 34.2346C157.853 34.2346 157.115 36.8457 156.112 40.0737C157.409 43.9474 158.623 45.2684 159.985 46.0943Z" fill="#F7C4A7"/>
</g>
<path d="M169.559 39.7404C168.678 43.7394 165.916 46.5837 162.725 45.8017C160.384 45.2275 156.787 41.9533 157.94 37.1755C158.901 33.1951 162.139 30.5082 165.347 31.2165C168.556 31.9259 170.442 35.7413 169.559 39.7404Z" fill="#F7C4A7"/>
<path d="M173.182 65.7752C176.078 60.7719 176.402 56.0975 178.454 54.638C181.34 52.5846 183.712 47.9927 182.666 47.8123C181.62 47.6309 177.389 51.51 177.389 51.51C177.389 51.51 178.49 50.0021 178.226 49.8768C177.964 49.7514 175.832 51.2989 175.501 53.1279C175.17 54.957 171.076 63.361 167.64 66.0534C164.204 68.7459 170.286 70.7795 173.182 65.7752Z" fill="#F7C4A7"/>
<g style="mix-blend-mode:multiply">
<path d="M154.42 53.1686C149.287 54.4466 151.635 69.9502 155.962 79.1461C160.288 88.3409 168.42 80.3977 171.46 78.1452C172.615 77.2895 173.375 76.4228 173.875 75.6771C172.898 70.1899 171.225 64.3046 169.16 60.1615C164.316 65.8477 162.012 51.2768 154.42 53.1686Z" fill="#43DDBB"/>
</g>
<path d="M155.961 52.0555C149.507 52.7022 153.041 68.8184 157.761 75.3262C162.481 81.834 169.198 75.5385 171.319 71.7902C173.44 68.0419 177.735 61.6671 177.735 57.5206C177.735 56.7431 176.144 56.5836 174.236 56.7255C172.438 56.8585 164.317 68.043 164.317 68.043C164.317 68.043 161.605 51.489 155.961 52.0555Z" fill="#35B6B4"/>
<path d="M171.531 31.4013C175.477 33.0631 173.113 38.3205 171.033 38.5173C168.953 38.7142 166.546 34.8768 165.311 34.747C164.075 34.6172 165.561 36.8939 164.46 37.4142C163.361 37.9344 162.334 38.7989 162.014 40.1649C161.694 41.5309 160.814 44.5038 162.25 44.6347C163.686 44.7645 165.246 43.2038 166.222 43.1389C167.197 43.074 168.044 43.3556 168.044 43.3556C168.044 43.3556 165.567 46.7805 163.749 46.9763C161.93 47.171 159.946 44.5115 158.532 42.2645C157.118 40.0164 157.718 38.5184 157.718 38.5184C157.718 38.5184 156.272 40.1462 155.362 40.0164C154.452 39.8867 156.728 38.5855 156.793 34.7481C156.857 30.9107 158.548 28.8936 160.629 28.8936C162.709 28.8936 162.449 27.8344 165.627 27.918C168.491 27.9928 170.605 31.0119 171.531 31.4013Z" fill="#2F2E41"/>
<path d="M162.853 39.2432C162.946 40.2342 162.437 41.091 161.718 41.1581C160.999 41.2252 160.34 40.4762 160.249 39.4852C160.157 38.4942 160.666 37.6374 161.385 37.5703C162.104 37.5032 162.761 38.2523 162.853 39.2432Z" fill="#F7C4A7"/>
<path d="M190.115 25.3477C190.646 26.7148 190.192 28.1677 189.1 28.5923C188.008 29.0168 186.693 28.2524 186.162 26.8853C185.631 25.5182 186.085 24.0653 187.176 23.6407C188.268 23.2151 189.584 23.9795 190.115 25.3477Z" fill="#FBD56F"/>
<path opacity="0.1" d="M190.019 25.384C190.525 26.6852 190.093 28.0688 189.054 28.4724C188.015 28.8761 186.762 28.1491 186.257 26.8469C185.751 25.5457 186.183 24.1621 187.222 23.7585C188.262 23.3548 189.513 24.0829 190.019 25.384Z" fill="black"/>
<g style="mix-blend-mode:multiply">
<path d="M189.697 25.5092C190.116 26.587 189.757 27.732 188.898 28.0675C188.037 28.4018 187 27.7991 186.581 26.7212C186.162 25.6434 186.521 24.4973 187.38 24.163C188.24 23.8286 189.278 24.4313 189.697 25.5092Z" fill="#FBD56F"/>
</g>
<path d="M189.682 25.584C190.093 26.6421 189.741 27.7672 188.897 28.095C188.052 28.4239 187.034 27.8321 186.623 26.773C186.212 25.7149 186.564 24.5898 187.408 24.262C188.253 23.9342 189.271 24.526 189.682 25.584Z" fill="#FBD56F"/>
<path d="M185.255 15.2884C184.891 16.5653 183.781 17.3682 182.776 17.0812C181.771 16.7941 181.251 15.5271 181.615 14.2501C181.979 12.9732 183.089 12.1703 184.094 12.4574C185.099 12.7433 185.619 14.0115 185.255 15.2884Z" fill="#FBD56F"/>
<path opacity="0.1" d="M185.167 15.263C184.821 16.4784 183.764 17.2428 182.808 16.97C181.851 16.6973 181.356 15.4907 181.703 14.2743C182.049 13.0589 183.106 12.2945 184.062 12.5673C185.019 12.8401 185.514 14.0477 185.167 15.263Z" fill="#010101"/>
<g style="mix-blend-mode:multiply">
<path d="M184.869 15.1784C184.582 16.1848 183.707 16.8183 182.914 16.5917C182.121 16.3652 181.712 15.3665 181.999 14.359C182.286 13.3527 183.161 12.7192 183.954 12.9457C184.747 13.1723 185.157 14.171 184.869 15.1784Z" fill="#FBD56F"/>
</g>
<path d="M184.818 15.2235C184.537 16.2123 183.677 16.8337 182.9 16.6115C182.121 16.3894 181.72 15.4083 182.001 14.4195C182.283 13.4307 183.143 12.8093 183.92 13.0315C184.698 13.2537 185.101 14.2358 184.818 15.2235Z" fill="#FBD56F"/>
<path d="M187.324 38.7681C187.324 40.2804 186.098 41.5067 184.587 41.5067C183.075 41.5067 181.849 40.2804 181.849 38.7681C181.849 37.2558 183.075 36.0294 184.587 36.0294C186.098 36.0294 187.324 37.2558 187.324 38.7681Z" fill="#FBD56F"/>
<g style="mix-blend-mode:multiply" opacity="0.1">
<path d="M184.587 41.3747C186.026 41.3747 187.193 40.2077 187.193 38.768C187.193 37.3284 186.026 36.1614 184.587 36.1614C183.148 36.1614 181.981 37.3284 181.981 38.768C181.981 40.2077 183.148 41.3747 184.587 41.3747Z" fill="black"/>
</g>
<path d="M186.692 38.8341C186.692 40.0044 185.743 40.9536 184.574 40.9536C183.404 40.9536 182.455 40.0044 182.455 38.8341C182.455 37.6628 183.404 36.7147 184.574 36.7147C185.743 36.7147 186.692 37.6639 186.692 38.8341Z" fill="#FBD56F"/>
<path d="M194.355 31.9468L191.01 34.9109C190.868 35.0363 190.649 35.0231 190.524 34.8812L190.343 34.6777C190.218 34.5359 190.231 34.317 190.373 34.1916L193.719 31.2275C193.861 31.1021 194.079 31.1153 194.205 31.2572L194.385 31.4607C194.51 31.6036 194.497 31.8214 194.355 31.9468Z" fill="#E2C064"/>
<path d="M180.452 19.7901L182.854 23.5604C182.955 23.7198 182.908 23.9343 182.748 24.0355L182.52 24.1818C182.36 24.283 182.147 24.2357 182.045 24.0762L179.642 20.3059C179.541 20.1464 179.589 19.9319 179.748 19.8308L179.977 19.6845C180.137 19.5833 180.351 19.6306 180.452 19.7901Z" fill="#E2C064"/>
<path d="M152.509 0H88.0065C83.9429 0 80.6473 3.29671 80.6473 7.35862V140.394C80.6473 144.459 83.9429 147.756 88.0065 147.756H152.505C156.569 147.756 159.861 144.459 159.861 140.394V7.35862C159.865 3.29671 156.572 0 152.509 0Z" fill="#262626"/>
<path d="M130.278 5.71692H112.971C111.889 5.71692 111.011 6.63138 111.011 7.75868C111.011 8.88599 111.889 9.80045 112.971 9.80045H130.278C131.36 9.80045 132.238 8.88599 132.238 7.75868C132.238 6.62875 131.36 5.71692 130.278 5.71692Z" fill="white"/>
<path d="M140.402 7.75868C140.402 8.88599 139.488 9.80045 138.361 9.80045C137.234 9.80045 136.32 8.88599 136.32 7.75868C136.32 6.63138 137.234 5.71692 138.361 5.71692C139.488 5.71955 140.402 6.63138 140.402 7.75868Z" fill="white"/>
<path d="M103.663 7.75868C103.663 6.63138 104.577 5.71692 105.704 5.71692C106.831 5.71692 107.745 6.63138 107.745 7.75868C107.745 8.88599 106.831 9.80045 105.704 9.80045C104.577 9.80045 103.663 8.88599 103.663 7.75868Z" fill="white"/>
<path d="M121.216 144.557C124.147 144.557 126.523 142.18 126.523 139.248C126.523 136.317 124.147 133.94 121.216 133.94C118.285 133.94 115.91 136.317 115.91 139.248C115.91 142.18 118.285 144.557 121.216 144.557Z" fill="white"/>
<rect x="86.6157" y="15.9799" width="67.2316" height="112.648" rx="2" fill="#F0643C"/>
<path d="M119.935 51.9348H119.097H107.423V49.8879V47.8429H105.378V49.8879H103.331V51.9348H105.378H103.331V53.9816V56.0284V58.0734H105.378H107.525V56.0284H105.378V53.9816H107.423H119.097V67.8006H121.142V51.9348H119.935Z" fill="white"/>
<path d="M103.331 47.8429H99.2405V49.8575H103.331V47.8429Z" fill="white"/>
<path d="M119.128 49.8575H115.038V51.9352H119.128V49.8575Z" fill="white"/>
<path d="M115.038 47.8429H110.947V49.8575H115.038V47.8429Z" fill="white"/>
<path d="M117.052 36.5104H115.038V40.1619H117.052V36.5104Z" fill="white"/>
<path d="M120.953 34.3699H118.876V38.5251H120.953V34.3699Z" fill="white"/>
<path d="M123.219 49.8575H121.142V51.9352H123.219V49.8575Z" fill="white"/>
<path d="M127.247 51.6833H125.233V57.0977H127.247V51.6833Z" fill="white"/>
<path d="M121.142 47.8429H119.128V49.8575H121.142V47.8429Z" fill="white"/>
<path d="M125.233 47.8429V45.7653H123.188H121.142V47.8429H123.188H125.233Z" fill="white"/>
<path d="M129.165 58.0304H125.204V57.0869H123.156V62.5751H125.204V60.0845H127.14V62.1368H129.186V60.1179H131.212V55.7756H129.165V58.0304Z" fill="white"/>
<path d="M135.302 69.8152H133.288V71.8928H135.302V69.8152Z" fill="white"/>
<path d="M116.98 66.0377H114.911V67.79V69.8353V74.2223H116.98V69.8353H119.128V67.79H116.98V66.0377Z" fill="white"/>
<path d="M111.147 59.9937H101.351H99.3033V62.042V71.859V73.9074H101.351H111.147H113.195H113.212V71.859H113.195V62.042H113.212V59.9937H113.195H111.147ZM111.147 71.859H101.351V62.042H111.147V71.859Z" fill="white"/>
<path d="M139.393 71.8927H135.302V73.9073H139.393V71.8927Z" fill="white"/>
<path d="M127.499 71.9252V73.9704H129.575V71.9252V69.8782H127.499V71.9252Z" fill="white"/>
<path d="M125.61 71.8928H119.128V73.9075H125.61V71.8928Z" fill="white"/>
<path d="M133.288 53.761H131.212V55.7756H133.288V53.761Z" fill="white"/>
<path d="M135.302 51.6833H133.288V53.761H135.302V51.6833Z" fill="white"/>
<path d="M139.079 47.5911H134.862V49.6687H139.079V47.5911Z" fill="white"/>
<path d="M141.03 56.0274V53.9822V51.9352H138.985V53.9822H136.939V56.0274H138.985H141.03Z" fill="white"/>
<path d="M136.939 56.0273H134.862V58.105H136.939V56.0273Z" fill="white"/>
<path d="M138.953 58.105H136.939V60.1196H138.953V58.105Z" fill="white"/>
<path d="M138.985 66.2735V69.8152H141.03V63.8239H138.985V62.1973H136.939V66.2735H138.985Z" fill="white"/>
<path d="M131.224 65.7218H125.611V67.7694H131.224V69.8152H133.275V67.7694V62.1654H136.939V60.1196H131.224V62.1654V65.7218Z" fill="white"/>
<path d="M125.61 67.8005H121.142V69.8152H125.61V67.8005Z" fill="white"/>
<path d="M112.772 55.9015V58.0394H114.926V62.1343H116.989V58.0394H114.926V55.9015H112.772Z" fill="white"/>
<path d="M109.31 63.8972H103.205V70.0041H109.31V63.8972Z" fill="white"/>
<path d="M111.149 45.7653H113.197H113.214V43.7169H113.197V33.8999H113.214V31.8516H113.197H111.149H101.353H99.3054V33.8999V43.7169V45.7653H101.353H111.149ZM101.353 33.8999H111.149V43.7169H101.353V33.8999Z" fill="white"/>
<path d="M109.31 35.7549H103.205V41.8618H109.31V35.7549Z" fill="white"/>
<path d="M141.215 33.8973V31.8516H141.198H139.154H129.377H127.333V33.8973V36.4742H122.882V38.52H120.94V41.7385H119.121V40.1293H117.078V41.7385H116.932H115.038V47.7952H117.081V43.7825H119.124H120.944H122.985V41.7368V38.5182H127.337V43.7019V45.7476H129.38H131.214V49.6376H127.279V51.6833H133.257V49.6376V45.7476H139.158H141.201H141.219V43.7019H141.201V33.8973H141.215ZM139.156 43.7019H129.378V33.8973H139.156V43.7019Z" fill="white"/>
<path d="M137.379 35.7549H131.212V41.8618H137.379V35.7549Z" fill="white"/>
<path d="M53.8999 61.3227C53.8999 61.3227 50.8845 79.14 65.7475 90.0162C80.6104 100.892 74.0894 134.731 74.0894 134.731" stroke="#262626" stroke-width="2" stroke-miterlimit="10"/>
<path d="M55.7525 54.2648C56.7149 57.9145 54.0371 61.8387 54.0371 61.8387C54.0371 61.8387 49.802 59.8433 48.8397 56.1936C47.8773 52.5439 48.6396 49.1553 50.5551 48.6197C52.4705 48.084 54.7902 50.6151 55.7525 54.2648Z" fill="#43DDBB"/>
<path d="M52.9555 55.0441C52.6537 53.8981 52.0519 53.0688 51.6113 53.1918C51.1707 53.3148 51.0582 54.3435 51.36 55.4895C51.6618 56.6355 52.2637 57.4649 52.7042 57.3419C53.1448 57.2188 53.2573 56.1901 52.9555 55.0441Z" fill="#39542C"/>
<path d="M61.7873 69.533C59.1671 72.3946 54.4183 72.4077 54.4183 72.4077C54.4183 72.4077 53.9192 67.783 56.5433 64.9225C59.1673 62.062 62.4681 60.787 63.9123 62.0478C65.3564 63.3086 64.4075 66.6714 61.7873 69.533Z" fill="#43DDBB"/>
<path d="M59.541 67.5288C60.3623 66.63 60.7568 65.6637 60.4222 65.3704C60.0876 65.0772 59.1505 65.5681 58.3292 66.4669C57.5079 67.3657 57.1134 68.3321 57.448 68.6253C57.7827 68.9186 58.7197 68.4276 59.541 67.5288Z" fill="#39542C"/>
<path d="M67.1912 81.3799C64.571 84.2415 59.8222 84.2546 59.8222 84.2546C59.8222 84.2546 59.3232 79.6299 61.9472 76.7694C64.5713 73.9089 67.8721 72.6339 69.3162 73.8947C70.7604 75.1555 69.8128 78.5208 67.1912 81.3799Z" fill="#43DDBB"/>
<path d="M65.0758 79.5285C65.8987 78.6305 66.2948 77.6643 65.9605 77.3704C65.6263 77.0766 64.6881 77.5663 63.8652 78.4643C63.0422 79.3623 62.6461 80.3286 62.9804 80.6224C63.3147 80.9163 64.2528 80.4265 65.0758 79.5285Z" fill="#39542C"/>
<path d="M78.181 92.776C75.5608 95.6376 70.812 95.6507 70.812 95.6507C70.812 95.6507 70.3129 91.026 72.937 88.1655C75.561 85.305 78.8618 84.03 80.306 85.2908C81.7501 86.5516 80.8051 89.9218 78.181 92.776Z" fill="#43DDBB"/>
<path d="M76.0689 90.9302C76.8919 90.0322 77.288 89.066 76.9537 88.7722C76.6194 88.4783 75.6813 88.9681 74.8583 89.8661C74.0354 90.7641 73.6393 91.7303 73.9736 92.0242C74.3079 92.318 75.246 91.8283 76.0689 90.9302Z" fill="#39542C"/>
<path d="M82.3325 106.373C79.7123 109.235 74.9635 109.248 74.9635 109.248C74.9635 109.248 74.4644 104.623 77.0885 101.763C79.7125 98.9022 83.0133 97.6272 84.4575 98.888C85.9016 100.149 84.9565 103.513 82.3325 106.373Z" fill="#43DDBB"/>
<path d="M80.1151 104.315C80.9364 103.416 81.3309 102.45 80.9963 102.157C80.6617 101.863 79.7246 102.354 78.9033 103.253C78.082 104.152 77.6875 105.118 78.0221 105.412C78.3568 105.705 79.2938 105.214 80.1151 104.315Z" fill="#39542C"/>
<path d="M48.973 80.6229C52.6386 81.7292 56.7474 79.2778 56.7474 79.2778C56.7474 79.2778 54.908 75.0275 51.2423 73.9213C47.5767 72.8151 44.0977 73.4194 43.4679 75.2664C42.838 77.1135 45.3074 79.5167 48.973 80.6229Z" fill="#43DDBB"/>
<path d="M52.2387 77.7725C52.3831 77.345 51.5673 76.717 50.4166 76.3699C49.2658 76.0227 48.2159 76.0879 48.0715 76.5153C47.9271 76.9428 48.7429 77.5707 49.8937 77.9179C51.0444 78.265 52.0943 78.1999 52.2387 77.7725Z" fill="#39542C"/>
<path d="M68.0018 119.28C71.6674 120.386 75.7763 117.935 75.7763 117.935C75.7763 117.935 73.9368 113.684 70.2712 112.578C66.6055 111.472 63.1265 112.076 62.4967 113.923C61.8668 115.77 64.3362 118.173 68.0018 119.28Z" fill="#43DDBB"/>
<path d="M71.2658 116.434C71.4102 116.007 70.5944 115.379 69.4437 115.032C68.2929 114.684 67.243 114.75 67.0986 115.177C66.9542 115.605 67.77 116.232 68.9208 116.58C70.0715 116.927 71.1214 116.862 71.2658 116.434Z" fill="#39542C"/>
<path d="M57.9718 93.0623C61.8381 92.8932 64.9095 89.2524 64.9095 89.2524C64.9095 89.2524 61.7152 85.8892 57.8514 86.0569C53.9877 86.2247 50.8736 87.9197 50.9137 89.8668C50.9538 91.8139 54.1055 93.2315 57.9718 93.0623Z" fill="#43DDBB"/>
<path d="M60.0995 89.3282C60.0917 88.8819 59.1018 88.5631 57.8885 88.6164C56.6751 88.6696 55.6978 89.0746 55.7056 89.521C55.7134 89.9674 56.7033 90.2861 57.9167 90.2329C59.13 90.1796 60.1073 89.7746 60.0995 89.3282Z" fill="#39542C"/>
<path d="M66.4399 105.721C70.3062 105.552 73.3776 101.911 73.3776 101.911C73.3776 101.911 70.1833 98.548 66.3195 98.7158C62.4558 98.8835 59.3418 100.579 59.3818 102.526C59.4219 104.473 62.5942 105.898 66.4399 105.721Z" fill="#43DDBB"/>
<path d="M68.5696 101.988C68.5618 101.542 67.5719 101.223 66.3586 101.276C65.1452 101.329 64.1679 101.735 64.1757 102.181C64.1835 102.627 65.1734 102.946 66.3868 102.893C67.6001 102.84 68.5774 102.435 68.5696 101.988Z" fill="#39542C"/>
<path d="M66.3044 143.897L64.8012 143.054C64.8012 143.054 64.0981 146.007 64.3279 148.112C64.3506 148.326 64.4378 148.527 64.5778 148.689C64.7178 148.851 64.9038 148.966 65.1107 149.018C68.5688 149.882 85.0508 153.565 96.3848 148.378C96.5491 148.302 96.6911 148.185 96.7967 148.038C96.9024 147.89 96.968 147.717 96.9872 147.537C97.1262 146.243 96.634 143.574 96.4376 143.054C96.0148 141.935 66.3044 143.897 66.3044 143.897Z" fill="#FBD56F"/>
<path opacity="0.1" d="M66.3044 143.897L64.8012 143.054C64.8012 143.054 64.0981 146.007 64.3279 148.112C64.3506 148.326 64.4378 148.527 64.5778 148.689C64.7178 148.851 64.9038 148.966 65.1107 149.018C68.5688 149.882 85.0508 153.565 96.3848 148.378C96.5491 148.302 96.6911 148.185 96.7967 148.038C96.9024 147.89 96.968 147.717 96.9872 147.537C97.1262 146.243 96.634 143.574 96.4376 143.054C96.0148 141.935 66.3044 143.897 66.3044 143.897Z" fill="black"/>
<path d="M80.619 146.643C89.3551 146.643 96.4372 145.036 96.4372 143.054C96.4372 141.072 89.3551 139.465 80.619 139.465C71.8828 139.465 64.8008 141.072 64.8008 143.054C64.8008 145.036 71.8828 146.643 80.619 146.643Z" fill="#FBD56F"/>
<path d="M71.6468 136.937L70.1436 136.094C70.1436 136.094 69.4405 139.048 69.6703 141.153C69.693 141.366 69.7802 141.567 69.9202 141.729C70.0601 141.891 70.2462 142.006 70.4531 142.058C73.9112 142.923 90.3933 146.606 101.727 141.418C101.892 141.343 102.034 141.226 102.139 141.078C102.245 140.931 102.311 140.758 102.33 140.577C102.469 139.284 101.977 136.614 101.78 136.094C101.357 134.975 71.6468 136.937 71.6468 136.937Z" fill="#FBD56F"/>
<path opacity="0.1" d="M71.6468 136.937L70.1436 136.094C70.1436 136.094 69.4405 139.048 69.6703 141.153C69.693 141.366 69.7802 141.567 69.9202 141.729C70.0601 141.891 70.2462 142.006 70.4531 142.058C73.9112 142.923 90.3933 146.606 101.727 141.418C101.892 141.343 102.034 141.226 102.139 141.078C102.245 140.931 102.311 140.758 102.33 140.577C102.469 139.284 101.977 136.614 101.78 136.094C101.357 134.975 71.6468 136.937 71.6468 136.937Z" fill="black"/>
<path d="M85.9618 139.683C94.6979 139.683 101.78 138.076 101.78 136.094C101.78 134.112 94.6979 132.505 85.9618 132.505C77.2256 132.505 70.1436 134.112 70.1436 136.094C70.1436 138.076 77.2256 139.683 85.9618 139.683Z" fill="#FBD56F"/>
<path d="M65.7304 129.692L64.2272 128.85C64.2272 128.85 63.5241 131.803 63.7539 133.908C63.7766 134.121 63.8638 134.322 64.0038 134.484C64.1438 134.646 64.3298 134.761 64.5367 134.813C67.9948 135.678 84.4768 139.361 95.8108 134.173C95.9751 134.098 96.1171 133.981 96.2227 133.833C96.3283 133.686 96.3939 133.513 96.4131 133.332C96.5521 132.039 96.06 129.37 95.8636 128.85C95.4408 127.73 65.7304 129.692 65.7304 129.692Z" fill="#FBD56F"/>
<path opacity="0.1" d="M65.7304 129.692L64.2272 128.85C64.2272 128.85 63.5241 131.803 63.7539 133.908C63.7766 134.121 63.8638 134.322 64.0038 134.484C64.1438 134.646 64.3298 134.761 64.5367 134.813C67.9948 135.678 84.4768 139.361 95.8108 134.173C95.9751 134.098 96.1171 133.981 96.2227 133.833C96.3283 133.686 96.3939 133.513 96.4131 133.332C96.5521 132.039 96.06 129.37 95.8636 128.85C95.4408 127.73 65.7304 129.692 65.7304 129.692Z" fill="black"/>
<path d="M80.0454 132.438C88.7816 132.438 95.8636 130.832 95.8636 128.849C95.8636 126.867 88.7816 125.26 80.0454 125.26C71.3092 125.26 64.2272 126.867 64.2272 128.849C64.2272 130.832 71.3092 132.438 80.0454 132.438Z" fill="#FBD56F"/>
<path d="M79.0405 123.878L77.5373 123.035C77.5373 123.035 76.8342 125.989 77.064 128.093C77.0866 128.307 77.1738 128.508 77.3138 128.67C77.4538 128.832 77.6399 128.947 77.8468 128.999C81.3049 129.864 97.7869 133.546 109.121 128.359C109.285 128.284 109.427 128.166 109.533 128.019C109.638 127.871 109.704 127.699 109.723 127.518C109.862 126.224 109.37 123.555 109.174 123.035C108.751 121.916 79.0405 123.878 79.0405 123.878Z" fill="#FBD56F"/>
<path opacity="0.1" d="M79.0405 123.878L77.5373 123.035C77.5373 123.035 76.8342 125.989 77.064 128.093C77.0866 128.307 77.1738 128.508 77.3138 128.67C77.4538 128.832 77.6399 128.947 77.8468 128.999C81.3049 129.864 97.7869 133.546 109.121 128.359C109.285 128.284 109.427 128.166 109.533 128.019C109.638 127.871 109.704 127.699 109.723 127.518C109.862 126.224 109.37 123.555 109.174 123.035C108.751 121.916 79.0405 123.878 79.0405 123.878Z" fill="black"/>
<path d="M93.3558 126.624C102.092 126.624 109.174 125.018 109.174 123.035C109.174 121.053 102.092 119.446 93.3558 119.446C84.6197 119.446 77.5376 121.053 77.5376 123.035C77.5376 125.018 84.6197 126.624 93.3558 126.624Z" fill="#FBD56F"/>
<path d="M70.0479 119.97L68.5446 119.127C68.5446 119.127 67.8415 122.081 68.0713 124.186C68.094 124.399 68.1812 124.6 68.3212 124.762C68.4612 124.924 68.6472 125.039 68.8541 125.091C72.3122 125.956 88.7943 129.639 100.128 124.451C100.293 124.376 100.435 124.259 100.54 124.111C100.646 123.964 100.712 123.791 100.731 123.61C100.87 122.317 100.378 119.648 100.181 119.127C99.7583 118.008 70.0479 119.97 70.0479 119.97Z" fill="#FBD56F"/>
<path opacity="0.1" d="M70.0479 119.97L68.5446 119.127C68.5446 119.127 67.8415 122.081 68.0713 124.186C68.094 124.399 68.1812 124.6 68.3212 124.762C68.4612 124.924 68.6472 125.039 68.8541 125.091C72.3122 125.956 88.7943 129.639 100.128 124.451C100.293 124.376 100.435 124.259 100.54 124.111C100.646 123.964 100.712 123.791 100.731 123.61C100.87 122.317 100.378 119.648 100.181 119.127C99.7583 118.008 70.0479 119.97 70.0479 119.97Z" fill="black"/>
<path d="M84.3624 122.716C93.0986 122.716 100.181 121.11 100.181 119.127C100.181 117.145 93.0986 115.538 84.3624 115.538C75.6263 115.538 68.5442 117.145 68.5442 119.127C68.5442 121.11 75.6263 122.716 84.3624 122.716Z" fill="#FBD56F"/>
<path d="M76.0517 112.426L74.5485 111.583C74.5485 111.583 73.8454 114.537 74.0752 116.641C74.0979 116.855 74.1851 117.056 74.3251 117.218C74.465 117.38 74.6511 117.495 74.858 117.547C78.3161 118.412 94.7981 122.094 106.132 116.907C106.296 116.832 106.438 116.714 106.544 116.567C106.65 116.419 106.715 116.247 106.734 116.066C106.873 114.772 106.381 112.103 106.185 111.583C105.762 110.464 76.0517 112.426 76.0517 112.426Z" fill="#FBD56F"/>
<path opacity="0.1" d="M76.0517 112.426L74.5485 111.583C74.5485 111.583 73.8454 114.537 74.0752 116.641C74.0979 116.855 74.1851 117.056 74.3251 117.218C74.465 117.38 74.6511 117.495 74.858 117.547C78.3161 118.412 94.7981 122.094 106.132 116.907C106.296 116.832 106.438 116.714 106.544 116.567C106.65 116.419 106.715 116.247 106.734 116.066C106.873 114.772 106.381 112.103 106.185 111.583C105.762 110.464 76.0517 112.426 76.0517 112.426Z" fill="black"/>
<path d="M90.3672 115.172C99.1034 115.172 106.186 113.565 106.186 111.583C106.186 109.601 99.1034 107.994 90.3672 107.994C81.631 107.994 74.549 109.601 74.549 111.583C74.549 113.565 81.631 115.172 90.3672 115.172Z" fill="#FBD56F"/>
<path d="M79.0127 103.471L77.5095 102.628C77.5095 102.628 76.8063 105.582 77.0361 107.686C77.0588 107.9 77.146 108.101 77.286 108.263C77.426 108.425 77.612 108.54 77.8189 108.592C81.2771 109.457 97.7591 113.139 109.093 107.952C109.257 107.877 109.399 107.759 109.505 107.612C109.611 107.464 109.676 107.292 109.695 107.111C109.834 105.817 109.342 103.148 109.146 102.628C108.723 101.509 79.0127 103.471 79.0127 103.471Z" fill="#FBD56F"/>
<path opacity="0.1" d="M79.0127 103.471L77.5095 102.628C77.5095 102.628 76.8063 105.582 77.0361 107.686C77.0588 107.9 77.146 108.101 77.286 108.263C77.426 108.425 77.612 108.54 77.8189 108.592C81.2771 109.457 97.7591 113.139 109.093 107.952C109.257 107.877 109.399 107.759 109.505 107.612C109.611 107.464 109.676 107.292 109.695 107.111C109.835 105.817 109.342 103.148 109.146 102.628C108.723 101.509 79.0127 103.471 79.0127 103.471Z" fill="black"/>
<path d="M93.3281 106.218C102.064 106.218 109.146 104.611 109.146 102.628C109.146 100.646 102.064 99.0394 93.3281 99.0394C84.592 99.0394 77.5099 100.646 77.5099 102.628C77.5099 104.611 84.592 106.218 93.3281 106.218Z" fill="#FBD56F"/>
<path opacity="0.1" d="M115.316 101.5C115.316 101.5 108.083 104.934 107.467 106.431C106.852 107.929 115.316 101.5 115.316 101.5Z" fill="black"/>
<path opacity="0.1" d="M114.854 105.915C114.854 105.915 108.326 108.703 107.435 109.4C106.544 110.097 114.854 105.915 114.854 105.915Z" fill="black"/>
<path d="M101.14 151.516C107.61 151.516 112.855 145.912 112.855 138.999C112.855 132.085 107.61 126.481 101.14 126.481C94.6693 126.481 89.4241 132.085 89.4241 138.999C89.4241 145.912 94.6693 151.516 101.14 151.516Z" fill="#FBD56F"/>
<path opacity="0.1" d="M101.14 151.516C107.61 151.516 112.855 145.912 112.855 138.999C112.855 132.085 107.61 126.481 101.14 126.481C94.6693 126.481 89.4241 132.085 89.4241 138.999C89.4241 145.912 94.6693 151.516 101.14 151.516Z" fill="black"/>
<path d="M103.161 151.516C109.632 151.516 114.877 146.036 114.877 139.277C114.877 132.518 109.632 127.039 103.161 127.039C96.6909 127.039 91.4457 132.518 91.4457 139.277C91.4457 146.036 96.6909 151.516 103.161 151.516Z" fill="#FBD56F"/>
<path d="M140.057 151.483C147.625 151.483 153.759 150.44 153.759 149.153C153.759 147.866 147.625 146.822 140.057 146.822C132.489 146.822 126.354 147.866 126.354 149.153C126.354 150.44 132.489 151.483 140.057 151.483Z" fill="#43DDBB"/>
<path d="M145.723 145.34C146.31 144.791 146.86 144.144 147.03 143.356C147.199 142.569 146.865 141.624 146.117 141.336C145.278 141.013 144.382 141.598 143.703 142.189C143.024 142.779 142.245 143.453 141.356 143.328C141.814 142.911 142.156 142.382 142.349 141.792C142.543 141.203 142.582 140.573 142.461 139.964C142.422 139.712 142.316 139.476 142.154 139.281C141.689 138.78 140.845 138.995 140.288 139.389C138.515 140.643 138.021 143.065 138.011 145.245C137.833 144.459 137.983 143.64 137.979 142.833C137.974 142.026 137.755 141.132 137.078 140.699C136.657 140.471 136.183 140.359 135.705 140.374C134.908 140.345 134.021 140.425 133.477 141.011C132.801 141.74 132.976 142.962 133.565 143.764C134.153 144.566 135.047 145.068 135.87 145.622C136.531 146.018 137.094 146.558 137.518 147.203C137.568 147.293 137.609 147.388 137.641 147.486H142.635C143.756 146.914 144.795 146.192 145.723 145.34Z" fill="#43DDBB"/>
<path d="M178.316 146.164C178.316 146.164 184.997 146.906 186.588 146.164C188.179 145.421 188.709 147.135 184.573 149.196C180.437 151.257 178.634 152.849 177.255 152.317C175.876 151.787 174.922 149.125 175.134 147.591C175.346 146.057 178.316 146.164 178.316 146.164Z" fill="#ACA9C9"/>
<path d="M148.301 145.315C148.301 145.315 147.984 150.407 149.575 151.468C151.165 152.53 153.094 153.962 149.362 153.962C145.631 153.962 144.638 152.211 143.471 150.407C142.305 148.603 141.092 147.206 142.751 145.987C144.41 144.767 144.484 143.616 144.803 143.616C145.119 143.617 148.301 145.315 148.301 145.315Z" fill="#ACA9C9"/>
<path d="M170.358 97.5179C170.358 127.436 148.763 148.182 148.763 148.182C148.763 148.182 143.632 146.374 143.473 144.464C143.313 142.555 151.897 128.868 151.897 118.684C151.897 108.499 151.897 87.9701 151.897 87.9701L170.358 97.5179Z" fill="#BEBFC1"/>
<g style="mix-blend-mode:multiply">
<path d="M151.897 87.9701C151.897 87.9701 151.897 102.663 151.897 113.356C155.834 122.437 157.326 130.992 157.512 137.291C163.498 128.328 170.358 114.38 170.358 97.5179L151.897 87.9701Z" fill="#ACAEB1"/>
</g>
<path d="M151.904 82.8779C151.427 107.862 173.133 148.443 174.624 149.079C176.115 149.716 180.334 147.599 180.091 146.056C174.335 109.454 173.222 85.1062 173.222 85.1062L151.904 82.8779Z" fill="#DEDEDE"/>
<path d="M175.765 51.1338C175.765 51.1338 176.91 52.2006 178.342 51.511C179.773 50.8214 185.001 47.1259 184.842 46.224C184.682 45.3221 182.239 45.1066 182.239 45.1066C182.239 45.1066 174.672 51.0909 175.765 51.1338Z" fill="#3F3D56"/>
<path d="M177.143 50.9943C176.162 50.8371 179.388 48.2711 180.442 47.2097C181.496 46.1484 182.177 45.6534 182.177 45.6534C182.177 45.6534 183.98 45.8734 183.98 46.2232C183.98 46.5729 178.809 50.704 178.809 50.704C178.809 50.704 177.585 51.0647 177.143 50.9943Z" fill="white"/>
<path d="M170.812 55.6103C170.812 55.6103 172.694 52.4273 173.596 51.5782C174.497 50.7291 177.541 49.0837 178.003 49.0738C178.792 49.0562 175.292 51.4187 175.292 51.4187C175.292 51.4187 175.77 54.495 175.345 55.6092C174.921 56.7233 170.467 58.2081 170.467 58.2081L170.812 55.6103Z" fill="#F7C4A7"/>
<path d="M167.312 58.9516C167.312 58.9516 170.387 54.3366 171.077 54.6545C171.767 54.9723 173.623 58.9516 173.623 58.9516C173.623 58.9516 168.213 64.5752 168.213 63.5138C168.213 62.4525 167.312 58.9516 167.312 58.9516Z" fill="#35B6B4"/>
<path d="M158.807 34.2346C158.807 34.2346 155.625 45.4806 153.504 50.1495C151.383 54.8173 150.322 63.5183 150.747 78.7952C151.171 94.0733 148.201 93.6488 152.655 95.5581C157.11 97.4675 173.018 94.2845 175.139 89.4044C177.26 84.5244 173.719 64.6544 168.458 57.3635C163.263 50.1649 160.928 47.6023 160.928 45.9052C160.928 44.2081 162.98 36.9931 162.98 36.9931L158.807 34.2346Z" fill="#F7C4A7"/>
<path d="M175.14 89.4055C177.26 84.5255 173.719 64.6555 168.458 57.3646C166.039 54.0122 164.241 51.6662 163.008 49.9438C160.489 48.4403 157.709 47.0391 155.04 46.2252C154.507 47.7298 153.978 49.1057 153.503 50.1506C151.382 54.8184 150.321 63.5193 150.746 78.7963C151.17 94.0744 148.2 93.6499 152.654 95.5592C157.111 97.4686 173.019 94.2856 175.14 89.4055Z" fill="#35B6B4"/>
<path d="M153.15 44.2081C153.203 43.3348 164.534 47.8156 164.604 48.6647C164.675 49.5138 165.343 52.6792 166.282 54.3851C167.221 56.0909 150.508 65.619 151.123 60.9798C151.737 56.3406 153.009 46.542 153.15 44.2081Z" fill="#35B6B4"/>
<g style="mix-blend-mode:multiply">
<path d="M160.938 46.0943C160.931 46.0306 160.928 45.9668 160.928 45.9052C160.928 44.2081 162.98 36.9931 162.98 36.9931L158.806 34.2346C158.806 34.2346 158.067 36.8457 157.064 40.0737C158.362 43.9474 159.575 45.2684 160.938 46.0943Z" fill="#F7C4A7"/>
</g>
<path d="M170.512 39.7404C169.63 43.7394 166.868 46.5837 163.678 45.8017C161.337 45.2275 157.739 41.9533 158.893 37.1755C159.854 33.1951 163.092 30.5082 166.3 31.2165C169.508 31.9259 171.395 35.7413 170.512 39.7404Z" fill="#F7C4A7"/>
<path d="M174.134 65.7752C177.03 60.7719 177.355 56.0975 179.406 54.638C182.293 52.5846 184.664 47.9927 183.618 47.8123C182.573 47.6309 178.341 51.51 178.341 51.51C178.341 51.51 179.443 50.0021 179.179 49.8768C178.916 49.7514 176.784 51.2989 176.453 53.1279C176.122 54.957 172.028 63.361 168.592 66.0534C165.156 68.7459 171.238 70.7795 174.134 65.7752Z" fill="#F7C4A7"/>
<g style="mix-blend-mode:multiply">
<path d="M155.372 53.1686C150.24 54.4466 152.587 69.9502 156.914 79.1461C161.241 88.3409 169.372 80.3977 172.413 78.1452C173.567 77.2895 174.328 76.4228 174.827 75.6771C173.851 70.1899 172.177 64.3046 170.112 60.1615C165.268 65.8477 162.965 51.2768 155.372 53.1686Z" fill="#43DDBB"/>
</g>
<path d="M156.914 52.0555C150.46 52.7022 153.994 68.8184 158.714 75.3262C163.434 81.834 170.15 75.5385 172.271 71.7902C174.392 68.0419 178.688 61.6671 178.688 57.5206C178.688 56.7431 177.097 56.5836 175.188 56.7255C173.39 56.8585 165.27 68.043 165.27 68.043C165.27 68.043 162.557 51.489 156.914 52.0555Z" fill="#35B6B4"/>
<path d="M172.483 31.4013C176.429 33.0631 174.065 38.3205 171.985 38.5173C169.905 38.7142 167.498 34.8768 166.264 34.747C165.028 34.6172 166.513 36.8939 165.413 37.4142C164.313 37.9344 163.286 38.7989 162.966 40.1649C162.646 41.5309 161.767 44.5038 163.203 44.6347C164.639 44.7645 166.199 43.2038 167.174 43.1389C168.149 43.074 168.997 43.3556 168.997 43.3556C168.997 43.3556 166.52 46.7805 164.701 46.9763C162.883 47.171 160.898 44.5115 159.484 42.2645C158.07 40.0164 158.671 38.5184 158.671 38.5184C158.671 38.5184 157.225 40.1462 156.314 40.0164C155.404 39.8867 157.68 38.5855 157.745 34.7481C157.81 30.9107 159.501 28.8936 161.581 28.8936C163.661 28.8936 163.402 27.8344 166.579 27.918C169.443 27.9928 171.557 31.0119 172.483 31.4013Z" fill="#2F2E41"/>
<path d="M163.806 39.2432C163.898 40.2342 163.389 41.091 162.67 41.1581C161.951 41.2252 161.293 40.4762 161.201 39.4852C161.109 38.4942 161.618 37.6374 162.337 37.5703C163.056 37.5032 163.714 38.2523 163.806 39.2432Z" fill="#F7C4A7"/>
<path d="M191.067 25.3477C191.598 26.7148 191.144 28.1677 190.052 28.5923C188.961 29.0168 187.646 28.2524 187.115 26.8853C186.583 25.5182 187.038 24.0653 188.128 23.6407C189.22 23.2151 190.536 23.9795 191.067 25.3477Z" fill="#FBD56F"/>
<path opacity="0.1" d="M190.971 25.384C191.477 26.6852 191.045 28.0688 190.006 28.4724C188.967 28.8761 187.715 28.1491 187.209 26.8469C186.703 25.5457 187.135 24.1621 188.174 23.7585C189.214 23.3548 190.466 24.0829 190.971 25.384Z" fill="black"/>
<g style="mix-blend-mode:multiply">
<path d="M190.649 25.5092C191.068 26.587 190.71 27.732 189.85 28.0675C188.989 28.4018 187.952 27.7991 187.534 26.7212C187.115 25.6434 187.473 24.4973 188.333 24.163C189.193 23.8286 190.23 24.4313 190.649 25.5092Z" fill="#FBD56F"/>
</g>
<path d="M190.634 25.584C191.045 26.6421 190.693 27.7672 189.849 28.095C189.005 28.4239 187.987 27.8321 187.575 26.773C187.164 25.7149 187.516 24.5898 188.36 24.262C189.205 23.9342 190.223 24.526 190.634 25.584Z" fill="#FBD56F"/>
<path d="M186.208 15.2884C185.844 16.5653 184.733 17.3682 183.728 17.0812C182.723 16.7941 182.203 15.5271 182.567 14.2501C182.931 12.9732 184.042 12.1703 185.047 12.4574C186.051 12.7433 186.572 14.0115 186.208 15.2884Z" fill="#FBD56F"/>
<path opacity="0.1" d="M186.119 15.263C185.773 16.4784 184.717 17.2428 183.76 16.97C182.804 16.6973 182.309 15.4907 182.655 14.2743C183.001 13.0589 184.058 12.2945 185.015 12.5673C185.971 12.8401 186.466 14.0477 186.119 15.263Z" fill="#010101"/>
<g style="mix-blend-mode:multiply">
<path d="M185.821 15.1784C185.534 16.1848 184.659 16.8183 183.866 16.5917C183.074 16.3652 182.665 15.3665 182.952 14.359C183.239 13.3527 184.114 12.7192 184.906 12.9457C185.699 13.1723 186.109 14.171 185.821 15.1784Z" fill="#FBD56F"/>
</g>
<path d="M185.771 15.2235C185.489 16.2123 184.629 16.8337 183.852 16.6115C183.074 16.3894 182.672 15.4083 182.954 14.4195C183.235 13.4307 184.095 12.8093 184.872 13.0315C185.651 13.2537 186.053 14.2358 185.771 15.2235Z" fill="#FBD56F"/>
<path d="M188.277 38.7681C188.277 40.2804 187.051 41.5067 185.539 41.5067C184.027 41.5067 182.801 40.2804 182.801 38.7681C182.801 37.2558 184.027 36.0294 185.539 36.0294C187.051 36.0294 188.277 37.2558 188.277 38.7681Z" fill="#FBD56F"/>
<g style="mix-blend-mode:multiply" opacity="0.1">
<path d="M185.539 41.3747C186.978 41.3747 188.145 40.2077 188.145 38.768C188.145 37.3284 186.978 36.1614 185.539 36.1614C184.1 36.1614 182.934 37.3284 182.934 38.768C182.934 40.2077 184.1 41.3747 185.539 41.3747Z" fill="black"/>
</g>
<path d="M187.645 38.8341C187.645 40.0044 186.696 40.9536 185.526 40.9536C184.356 40.9536 183.407 40.0044 183.407 38.8341C183.407 37.6628 184.356 36.7147 185.526 36.7147C186.696 36.7147 187.645 37.6639 187.645 38.8341Z" fill="#FBD56F"/>
<path d="M195.308 31.9468L191.962 34.9109C191.82 35.0363 191.601 35.0231 191.476 34.8812L191.296 34.6777C191.17 34.5359 191.184 34.317 191.326 34.1916L194.671 31.2275C194.813 31.1021 195.032 31.1153 195.157 31.2572L195.337 31.4607C195.463 31.6036 195.45 31.8214 195.308 31.9468Z" fill="#E2C064"/>
<path d="M181.404 19.7901L183.806 23.5604C183.908 23.7198 183.86 23.9343 183.701 24.0355L183.472 24.1818C183.313 24.283 183.099 24.2357 182.997 24.0762L180.595 20.3059C180.494 20.1464 180.541 19.9319 180.7 19.8308L180.929 19.6845C181.09 19.5833 181.303 19.6306 181.404 19.7901Z" fill="#E2C064"/>
<path opacity="0.2" d="M180.85 20.0633C176.9 19.1173 172.931 21.5538 171.985 25.5055C171.04 29.4572 173.475 33.4275 177.426 34.3735C181.376 35.3195 185.345 32.883 186.29 28.9313C187.236 24.9796 184.8 21.0093 180.85 20.0633Z" fill="#004731"/>
</g>
<defs>
<clipPath id="clip0">
<rect width="236" height="180" fill="white"/>
</clipPath>
</defs>
</svg>
