<?xml version="1.0" encoding="utf-8"?>
<!-- Generator: Adobe Illustrator 26.2.1, SVG Export Plug-In . SVG Version: 6.00 Build 0)  -->
<svg version="1.1" id="Capa_1" xmlns="http://www.w3.org/2000/svg" xmlns:xlink="http://www.w3.org/1999/xlink" x="0px" y="0px"
	 viewBox="0 0 550 150" style="enable-background:new 0 0 550 150;" xml:space="preserve">
<style type="text/css">
	.st0{fill:none;opacity: 0.5;}
	.st1{fill:none;stroke:#FFFFFF;stroke-width:0.75;stroke-miterlimit:10;opacity: 0.5;}
	.st2{fill:url(#SVGID_1_);opacity: 0.5;}
</style>
<pattern  width="283.5" height="283.5" patternUnits="userSpaceOnUse" id="Nueva_muestra_de_motivo_5" viewBox="53 -336.8 283.5 283.5" style="overflow:visible;">
	<g>
		<rect x="53" y="-336.8" class="st0" width="283.5" height="283.5"/>
		<rect x="53" y="-336.8" class="st0" width="283.5" height="283.5"/>
		<path class="st1" d="M251.5-113.3l-75,56.4c1.1-9.3,2.2-18.7,3.3-28c1.2-10.7,2.5-21.3,3.9-32l6.5-2.3l2-0.7
			c5.8-2.1,9.8-7,10.9-12.7c5.1,2,10.2,4.1,15.3,6.1l-18.2,15.9l9.4,9.4l22.7-19.8C238.7-118.4,245.1-115.9,251.5-113.3z"/>
		<path class="st1" d="M203.1-132.6c-1.1,5.7-5.1,10.7-10.9,12.7l-2,0.7l-6.5,2.3l-14.3,5.1l-17-47.8l15.9-5.6
			c7.9-2.8,15.4,0,17.7,6.5c0.7,2,0.8,4.1,0.4,6.2c7-0.1,13.6,4.2,16,11.2C203.5-138.5,203.7-135.5,203.1-132.6z"/>
		<polygon class="st1" points="257,-168.4 262.2,-156.8 208.1,-136.7 203.4,-148.4 		"/>
		<path class="st1" d="M245.7-180.5c-2.2,3.8-5.9,6.8-10,9.3c-1.6,1-3.3,1.8-5.1,2.6c-1,0.5-2,0.9-3,1.3c0.7,0.6,1.1,1.5,1,2.3
			c0,0.5-0.2,1-0.4,1.4c-0.7,1.2-2.1,2-3.5,2.6c-7,3.1-16,3.4-24.2,1.3c-3.8-1-7.3-2.4-10.7-4.2c2.8,0.1,5.6-0.3,8-1.2
			c4.5-1.8,7.7-5.2,10-8.8c2.3-3.6,3.8-7.6,6-11.3c2.2-3.7,5.1-7,8.5-10c2-1.7,4.4-3.3,7.1-4.2c3,4.7,6.1,9.3,9.2,14l2.8-12.1
			c1.8,1.2,3.4,2.8,4.4,4.5C248.3-189.1,247.9-184.4,245.7-180.5z"/>
		<path class="st1" d="M300-276.6l-22.8,89.1c-0.3,0.1-0.6,0.1-0.8,0.2c-3.7,1.2-6.4,4.5-7.1,8.6l-20.5-4.5l15.3-53.3c0,0,0,0,0,0
			c1.5-1,2.9-2.3,4.2-3.7c2.4-2.5,4.2-5.6,5.5-8.8c0.5-1.3,0.9-2.5,1.2-3.9c1.1,0.9,2.4,1.3,3.8,0.9c2.6-0.6,4.9-3.4,6.1-6.6
			c0-0.1,0.1-0.2,0.1-0.3c1.1-3.4,1.1-7.2,0.4-10.5c-0.7-3.3-2.1-6.1-3.7-8.7c-1.2-2-2.6-3.9-4.1-5.6l1-3.5l20.2,4.2
			c0,0.8,0.1,1.6,0.2,2.4C299.3-279.3,299.6-277.9,300-276.6z"/>
		<path class="st1" d="M284.9-259c0,0.1-0.1,0.2-0.1,0.3c-1.2,3.3-3.5,6-6.1,6.6c-1.3,0.3-2.7,0-3.8-0.9c-0.3,1.3-0.7,2.6-1.2,3.9
			c-1.3,3.3-3.2,6.3-5.5,8.8c-5.1,5.5-12,8.3-18.9,9.1l5.8-24.6c-11.5,3.8-23,7.5-34.5,11.3c-2.5-5.5-2.8-12.4-0.7-18.6
			c2.5-7.4,8.4-13.7,15.3-16.4c4.8-1.9,10.1-2.1,15.1-3.3c4.9-1.4,7.9-4.3,9.7-7.1c0.2-0.2,0.3-0.5,0.4-0.8c0.4-0.8,0.8-1.5,1.1-2.3
			c0.2-0.6,0.4-1.1,0.6-1.6c0.2-0.7,0.4-1.4,0.5-1.9c0-0.2,0-0.4,0.1-0.5c0,0,0,0,0,0c1.5-5.2,4.4-1.1,4.4-1
			c4.2,7.6,10.5,14,10.5,14l0,0.1c1.5,1.8,2.9,3.7,4.2,5.7c1.6,2.6,3,5.4,3.7,8.7C286.1-266.2,286.1-262.4,284.9-259z"/>
		<path class="st1" d="M255.1-255.7l-5.8,24.6l-7.8,33.5v0l-2.8,12.1c-3.1-4.7-6.1-9.3-9.2-14c-0.9-1.4-1.8-2.8-2.7-4.1
			c-2.4-3.7-4.8-7.4-7.2-11.1l11.2-10.8L210.1-241c3.5-1.1,7-2.3,10.5-3.4C232.1-248.2,243.6-252,255.1-255.7z"/>
		<path class="st1" d="M230.8-225.5l-11.2,10.8l-20,19.3c-0.4-0.3-0.8-0.5-1.2-0.7c1.2-1.4,2-3.2,2.2-5c0.6-4.1-1.3-7.8-4.8-10.1
			l8.1-34.3l6.2,4.7L230.8-225.5z"/>
		<path class="st1" d="M203.5-273.2c-2.8,4.1-7.1,7.3-11.7,9.1c2.3,1.4,5,2.3,7.9,2.7c3.7,0.5,7.8,0.1,11.7-1.5
			c3.8-1.7,7.4-4.8,9-8.5c1.9-4.2,1.1-9-2.1-11.4c-2.8-2.2-7.2-2.5-11.1-0.8C207-280.1,205.8-276.4,203.5-273.2z"/>
		<path class="st1" d="M157.3-95.4c-3.2,4.6-8,8.2-13.2,10.2c2.6,1.5,5.6,2.6,8.8,3c4.2,0.6,8.8,0.2,13.1-1.7
			c4.3-1.9,8.3-5.4,10.1-9.5c2.2-4.8,1.2-10.1-2.3-12.8c-3.1-2.5-8.1-2.7-12.5-0.9C161.2-103.2,159.8-99,157.3-95.4z"/>
		<polygon class="st1" points="242.5,-129.9 232.3,-121 209.6,-101.2 200.2,-110.6 218.5,-126.5 232.8,-139.1 		"/>
		<path class="st1" d="M206.4-180.7c-1.2,8.2-8.8,13.9-17,12.8l-1.9-0.3L168-171l1.8-12.6l17.8,6L172.1-200l2.2-15.9l14.9,2.1
			c2.5,0.3,4.7,1.2,6.5,2.4c3.5,2.3,5.4,6,4.8,10.1c-0.3,1.9-1.1,3.6-2.2,5c0.4,0.2,0.8,0.4,1.2,0.7
			C204.4-192.5,207.3-186.7,206.4-180.7z"/>
		<path class="st1" d="M187.7-177.6l-17.8-6l-18.2-6.1c1-4.1-0.2-8.3-3.2-11.6l12.7-14.6l11,15.9L187.7-177.6z"/>
		<path class="st1" d="M180.8-257.9c1.2-2.2,1.7-4.6,1.6-7.1c-0.4-8.2-8-13.9-17.9-13.4l-19.9,1.1l3.2,59.9l26.1-1.4l2.5-0.1
			c10.9-0.6,19.4-10,18.8-20.9C194.8-248.5,188.8-255.6,180.8-257.9z"/>
		<path class="st1" d="M332.9-86.9l-5.2,4.8c-1.6-1.2-3.6-2-5.8-2c-5.3,0-9.6,4.3-9.6,9.6c0,1.9,0.5,3.6,1.4,5.1l-5.4,5
			c-4.1-1.4-8.4-2.1-12.6-1.9l10.9-41.4L332.9-86.9z"/>
		<path class="st1" d="M320.8-105.9l-81.2-36.5l31.7-7.5c1.8,1.1,3.8,2,5.8,2.7c4.1,1.4,9.1,2.1,12.3-0.8c1-0.9,1.7-2,2-3.2
			c0.3,0.1,0.6,0.1,0.9,0.2c3.3,0.5,6.9-0.2,9.1-2.8c0.9-1,1.5-2.3,1.7-3.6l9-2.1l0.7,1.2l4.5-2.5l0.4-0.1l0.4,7.3
			c-1,2.9-0.9,5.9,0.5,7.9L320.8-105.9z"/>
		<path class="st1" d="M303-157.5c-0.3,1.3-0.8,2.6-1.7,3.6c-2.1,2.5-5.8,3.3-9.1,2.8c-0.3,0-0.6-0.1-0.9-0.2
			c-0.4,1.2-1.1,2.3-2,3.2c-3.2,2.9-8.2,2.2-12.3,0.8c-2-0.7-4-1.6-5.8-2.7c-0.7-0.4-1.3-0.9-1.9-1.4c-2.2-1.8-4-4.4-4.5-7.2
			c-0.7-4.1,1.6-9.5,5.2-12.8c-0.7-2-1.1-4.1-1-5.9c0-0.5,0.1-0.9,0.2-1.4c0.7-4,3.4-7.4,7.1-8.6c0.3-0.1,0.6-0.2,0.8-0.2
			c3-0.7,6.5-0.1,9.5,1.7c3.3,1.9,6,4.9,7.8,8.4c0.9,1.8,1.5,3.7,1.6,5.6c1.5,1.2,2.8,2.6,3.9,4.1c1.5,2,2.7,4.3,3,6.8
			C303.3-159.8,303.2-158.6,303-157.5z"/>
		<path class="st1" d="M364.2-269.6c-2.9,7.7-9.9,14.1-18.2,16.5c-3.1,0.9-6.3,1.3-9.5,1.2c-0.5-3,0.6-3.9,1.8-6.8
			c1.2-3,0-6.8-2.5-8.8c-3.2-2.5-7.8-2.7-11.6-1.2c-4.4,1.7-7.9,5.4-9.6,9.8c-6.7-4.3-12.3-10.5-14.6-17.7c-0.4-1.3-0.7-2.6-0.9-4
			c-0.1-0.8-0.2-1.6-0.2-2.4c-0.1-2.8,0.3-5.6,1.2-8.4c0.4-1.3,1-2.7,1.6-4c-1.7,0.1-3.4-0.5-4.5-1.5c-2.1-2.1-2.4-5.8-1.2-9.3
			c0-0.1,0.1-0.2,0.1-0.4c1.4-3.6,4.1-6.7,7.3-9c3.1-2.3,6.6-3.8,10.1-5c2.8-0.9,5.6-1.7,8.4-2.2l0-0.1c0,0,11-1.4,20.7-5.2
			c0.1,0,6-1.6,3.6,3.6c0,0,0,0,0,0c-0.1,0.2-0.2,0.3-0.3,0.5c-0.3,0.5-0.6,1.2-0.9,1.9c-0.2,0.5-0.4,1.1-0.6,1.7
			c-0.2,0.8-0.5,1.6-0.6,2.6c0,0.3-0.1,0.6-0.1,0.9c-0.3,3.5,0.6,7.7,4.5,11.9c4.1,4.1,9.2,7.6,12.6,12.1
			C365.8-286.2,367.1-277.4,364.2-269.6z"/>
		<path class="st1" d="M385.3-115.7c-3.1,7.6-10.3,13.8-18.6,16c-3.1,0.8-6.3,1.1-9.5,1c-0.4-3,0.7-3.8,1.9-6.7
			c1.2-3,0.1-6.8-2.3-8.9c-3.1-2.6-7.7-2.9-11.5-1.5c-4.5,1.5-8.1,5.2-9.8,9.6c-7.8-5.3-13.9-13.1-14.9-22.1
			c-0.4-3.6,0.1-7.3,1.3-10.8c0.5-1.3,1-2.7,1.7-3.9c-1.7,0-3.3-0.5-4.4-1.7c-0.2-0.3-0.5-0.6-0.7-0.9c-1.3-2.1-1.4-5.1-0.5-7.9
			c0.1-0.2,0.1-0.3,0.2-0.5c0-0.1,0.1-0.2,0.1-0.4c1.5-3.5,4.3-6.6,7.5-8.8c3.2-2.2,6.7-3.6,10.2-4.7c2.8-0.9,5.6-1.5,8.4-2l0.1-0.1
			c0,0,11-1.1,20.9-4.6c0.1,0,6-1.5,3.5,3.7c0,0,0,0,0,0c-0.1,0.2-0.2,0.3-0.3,0.5c-0.3,0.5-0.7,1.1-1,1.9c-0.2,0.5-0.5,1.1-0.7,1.7
			c-0.3,0.8-0.5,1.6-0.7,2.6c-0.1,0.3-0.1,0.6-0.1,0.9c-0.4,3.5,0.4,7.7,4.2,12c3.9,4.2,9,7.8,12.3,12.5
			C387.4-132.3,388.5-123.4,385.3-115.7z"/>
		<path class="st1" d="M317.6-228.1c-0.8,2.7,1,5.7,3.5,7c2.5,1.3,5.5,1.4,8.3,1.1c5.6-0.6,10.9-2.8,15.5-5.9c3-2.1,8.1-7,1.9-5.5
			c-5.9,1.4-10.2,1.2-16-0.1C326.5-232.6,319.2-233.8,317.6-228.1z"/>
		<path class="st1" d="M350.6-235.8c-9.7,5.8-23.3,4-31.2-4.1c-3.2-3.4-5.6-7.8-5.9-12.4c-0.1-2.2,0.2-4.5,1-6.6
			c1.7-4.4,5.2-8.2,9.6-9.8c3.8-1.4,8.4-1.3,11.6,1.2c2.5,2,3.7,5.8,2.5,8.8c-1.1,3-2.2,3.8-1.8,6.8c0.1,0.4,0.2,0.8,0.3,1.3
			C338.6-243.8,344-238.1,350.6-235.8z"/>
		<path class="st1" d="M337.7-172.1l-2.2,1.2l-18.3,10l-4.5,2.5l-0.7-1.2l-28-51.1l17.4-9.5c8.6-4.7,17.9-2.9,21.8,4.3
			c1.2,2.2,1.7,4.7,1.6,7.1c3.6-0.6,7.2-0.2,10.5,1.1l-4.3,15l7.6,2.5l3.7-12.8c1.2,1.2,2.3,2.7,3.2,4.3
			C350.8-189.4,347.2-177.3,337.7-172.1z"/>
		<polygon class="st1" points="346.5,-217.3 342.4,-203.2 338.7,-190.5 331,-192.9 335.3,-207.9 338.7,-219.5 		"/>
		<path class="st1" d="M370.9-82.3c-9.8,5.5-23.4,3.4-31.1-5c-3.1-3.4-5.3-7.9-5.5-12.6c-0.1-2.2,0.4-4.5,1.2-6.5
			c1.8-4.4,5.4-8,9.8-9.6c3.8-1.3,8.4-1.1,11.5,1.5c2.5,2.1,3.6,5.9,2.3,8.9c-1.2,2.9-2.3,3.8-1.9,6.7c0,0.4,0.1,0.9,0.2,1.3
			C359-90.6,364.3-84.7,370.9-82.3z"/>
		<path class="st1" d="M80.7-269.6c-2.9,7.7-9.9,14.1-18.2,16.5c-3.1,0.9-6.3,1.3-9.5,1.2c-0.5-3,0.6-3.9,1.8-6.8
			c1.2-3-0.1-6.8-2.6-8.8c-3.2-2.5-7.8-2.7-11.5-1.2c-4.4,1.7-7.9,5.4-9.6,9.8c-7.9-5.1-14.3-12.7-15.5-21.7
			c-0.5-3.6-0.1-7.3,1-10.8c0.4-1.3,1-2.7,1.6-4c-1.7,0.1-3.3-0.5-4.5-1.5c-2.1-2.1-2.4-5.8-1.2-9.3c0-0.1,0.1-0.2,0.1-0.4
			c1.4-3.6,4.1-6.7,7.3-9c3.2-2.3,6.6-3.8,10.1-5c2.8-0.9,5.6-1.7,8.4-2.2l0.1-0.1c0,0,11-1.4,20.7-5.2c0.1,0,6-1.6,3.7,3.6
			c0,0,0,0,0,0c-0.1,0.2-0.2,0.3-0.3,0.5c-0.3,0.5-0.6,1.2-0.9,1.9c-0.2,0.5-0.4,1.1-0.6,1.7c-0.2,0.8-0.5,1.6-0.6,2.6
			c0,0.3-0.1,0.6-0.1,0.9c-0.3,3.5,0.6,7.7,4.5,11.9c4.1,4.1,9.2,7.6,12.6,12.1C82.4-286.2,83.6-277.4,80.7-269.6z"/>
		<path class="st1" d="M103.9-196.8c3.7,4.5,4.4,11.6,0.6,16c-2,2.3-5,3.6-7.9,4.4c-2.7,0.7-5.6,1.1-8.4,0.9
			c-9.2-0.6-17.8-7.2-20.6-16c-0.6-1.9-1-3.9-0.3-5.8c0.3-1,1-1.8,1.8-2.4c0-0.9,0.1-1.7,0.3-2.5c-3.2-1-4.7-4.7-4.9-8
			c-0.5-7.7,4.2-15.4,11.3-18.4c3.9-1.6,8.4-1.9,12.2,0c1.8,0.9,3.2,2.1,4.1,3.4c0.3-0.1,0.7-0.1,1-0.2l-13,28.3l28.3-11.7
			c-0.2,3.5-1.2,7-3.2,10c-0.4,0.6-0.9,1.2-1.4,1.8C103.7-197,103.8-196.9,103.9-196.8z"/>
		<path class="st1" d="M34.1-228.1c-0.8,2.7,1,5.7,3.5,7c2.5,1.3,5.5,1.4,8.3,1.1c5.6-0.6,10.9-2.8,15.5-5.9c3-2.1,8.1-7,1.9-5.5
			c-5.9,1.4-10.2,1.2-16-0.1C43.1-232.6,35.7-233.8,34.1-228.1z"/>
		<path class="st1" d="M67.1-235.8c-9.7,5.8-23.3,4-31.2-4.1c-3.2-3.4-5.6-7.8-5.9-12.4c-0.1-2.2,0.2-4.5,1-6.6
			c1.7-4.4,5.2-8.2,9.6-9.8c3.8-1.4,8.4-1.3,11.5,1.2c2.5,2,3.7,5.8,2.6,8.8c-1.1,3-2.2,3.8-1.8,6.8c0.1,0.4,0.2,0.8,0.3,1.3
			C55.1-243.8,60.5-238.1,67.1-235.8z"/>
		<polygon class="st1" points="120.9,-298.4 62.4,-245.5 75.4,-231.1 134.8,-283.1 		"/>
		<path class="st1" d="M136.1-254.1c1.1-3.1,2.3-3.1,4.7-4.8c2.2-1.6,3.1-4.6,2.3-6.9c-1-3-4.1-4.9-7.3-5.4
			c-5.6-1-11.8,1.9-14.7,6.7c-1.9,3.2-2.3,7.1-1.6,10.6c1.7,8.6,10.1,15.2,19.4,15.2C135.3-242.9,134.2-248.9,136.1-254.1z"/>
		<path class="st1" d="M54.2-172.1l-2.2,1.2l-22.8,12.5L0.5-210.8l17.4-9.5c8.6-4.7,17.8-2.9,21.8,4.3c1.2,2.2,1.7,4.7,1.6,7.1
			c3.6-0.6,7.2-0.2,10.5,1.1l-4.3,15l7.6,2.5l3.7-12.8c1.2,1.2,2.3,2.7,3.2,4.3C67.3-189.4,63.8-177.3,54.2-172.1z"/>
		<polygon class="st1" points="63,-217.3 58.9,-203.3 55.2,-190.5 47.6,-192.9 51.9,-207.9 55.2,-219.5 		"/>
		<path class="st1" d="M150.8-162c-4.1,9.1-14.8,13.2-23.9,9.1l-2.1-0.9l-1.8-0.8l-2.6-4.8l-2.3,2.6l-12-5.4c0.7-0.6,1.5-1,2.3-1.3
			c1.4-0.5,2.9-0.5,4.4-0.6c1.5-0.1,3-0.3,4.3-1c1.3-0.7,2.4-2.1,2.3-3.6c-0.1-1.8-1.8-3.2-3.5-3.8c-3-1.1-6.4-0.8-9.2,0.7l9.6-21.4
			c1.3-0.3,2.5-1,3.3-2c1.2-1.4,1.8-3.3,1.4-5.2c-0.1-0.7-0.4-1.3-0.8-1.8l5-11.1l16.6,7.4c2.6,1.2,4.8,2.8,6.5,4.6
			c3,3.4,4.2,7.6,3.2,11.6c-0.2,0.7-0.4,1.3-0.7,2c-0.9,2.1-2.4,3.8-4.3,5.1C152.1-177.5,154.1-169.2,150.8-162z"/>
		<path class="st1" d="M119.8-195.2c-0.9,1-2.1,1.7-3.3,2c-1.5,0.4-3,0.2-4.3-0.5c-1.6-0.9-2.7-2.6-2.9-4.4c-0.2-1.8,0.5-3.7,1.7-5
			c2.6-2.7,7.5-2.2,9.5,0.8c0.4,0.5,0.6,1.2,0.8,1.8C121.6-198.5,121-196.6,119.8-195.2z"/>
		<polygon class="st1" points="144.5,-223.8 108.3,-208.8 80,-197.2 93,-225.5 106.6,-255.1 		"/>
		<path class="st1" d="M54.2-75.5c-0.8,2.7,0.9,5.7,3.3,7.1c2.4,1.4,5.4,1.6,8.2,1.3c5.6-0.5,11-2.5,15.6-5.5c3.1-2,8.3-6.8,2-5.5
			c-5.9,1.2-10.3,0.9-16-0.6C63.2-79.7,56-81.2,54.2-75.5z"/>
		<path class="st1" d="M87.4-82.3c-9.9,5.5-23.4,3.4-31.1-5c-3.2-3.4-5.4-7.9-5.5-12.6c-0.1-2.2,0.4-4.5,1.2-6.5c1,0.7,2,1.3,3,1.9
			c5.6,3.2,12.1,5.4,18.7,5.7c0,0.4,0.1,0.9,0.2,1.3C75.6-90.6,80.8-84.7,87.4-82.3z"/>
		<path class="st1" d="M133.9-134.3l-16.6,14.2l-13.6-4.4c0.1-4.3-1-8.5-3.1-12.3l17.6-20l2.3-2.6l2.6,4.8L133.9-134.3z"/>
		<path class="st1" d="M156.3-126.3l-4.6,3.8c-1.3-1.2-3.1-2-4.9-2.3c-2.5-0.5-5.2-0.2-7.6,0.6c-3,1.1-5.6,3-7.3,5.6
			c-0.5,0.9-1,1.8-1.3,2.8c-0.9,2.5-1,5.2-0.6,7.8c0.2,1,0.4,1.9,0.8,2.8l-9.5,7.9h0c-4.7,0-8.6,3.4-9.5,7.8L95.5-75.9L82.9-90.7
			l34.4-29.5l16.6-14.2l8.9-7.7L156.3-126.3z"/>
		<path class="st1" d="M151.6-112.4c-2.4,1.7-3.6,1.6-4.8,4.7c-2,5.2-1.1,11.2,2.3,15.4c-8.2-0.2-15.6-5.7-18.2-12.9
			c-0.3-0.9-0.6-1.9-0.8-2.8c-0.4-2.6-0.3-5.3,0.6-7.8c0.3-1,0.8-1.9,1.3-2.8c1.6-2.6,4.3-4.6,7.3-5.6c2.4-0.9,5.1-1.1,7.6-0.6
			c1.8,0.4,3.6,1.2,4.9,2.3c1,0.9,1.8,2,2.2,3.3C154.7-116.9,153.8-113.9,151.6-112.4z"/>
		<path class="st1" d="M101.9-115.7c-3.1,7.6-10.3,13.8-18.7,16c-9.6,2.5-19.9,0-28.2-4.8c-9.2-5.3-16.8-13.8-17.9-24
			c-0.4-3.6,0.1-7.3,1.3-10.8c0.5-1.3,1.1-2.7,1.7-3.9c-1.7,0-3.3-0.5-4.4-1.7c-2.1-2.2-2.3-5.9-1-9.3c0-0.1,0.1-0.2,0.1-0.4
			c1.5-3.5,4.3-6.6,7.5-8.8c3.2-2.2,6.7-3.6,10.2-4.7c2.8-0.9,5.6-1.5,8.4-2l0.1-0.1c0,0,11-1.1,20.9-4.6c0.1,0,6-1.5,3.5,3.7
			c0,0,0,0,0,0c-0.1,0.2-0.2,0.3-0.3,0.5c-0.3,0.5-0.7,1.1-1,1.9c-0.2,0.5-0.5,1.1-0.7,1.7c0,0.1,0,0.1-0.1,0.2
			c-0.2,0.7-0.4,1.5-0.6,2.3c-0.1,0.3-0.1,0.6-0.1,0.9c-0.2,1.5-0.1,3.1,0.3,4.8c0.5,2.3,1.7,4.7,3.8,7.2c3.9,4.2,9,7.8,12.3,12.5
			C104-132.3,105-123.4,101.9-115.7z"/>
		<path class="st1" d="M299.7-91.6c0.3,10.9-8.4,20.1-19.4,20.4l-2.5,0.1l-26.2,0.7l-1.5-60l19.9-0.5c9.9-0.3,17.3,5.6,17.5,13.9
			c0.1,2.5-0.6,5-1.8,7.1C293.7-107.6,299.5-100.3,299.7-91.6z"/>
		<path class="st1" d="M164.7-48.2c0.5-0.6,1-1.2,1.4-1.8c3.6-5.4,4.3-12.6,1.6-18.4c-1.5-3.3-4.1-6.2-7.6-7.5
			c-2.3-0.8-4.7-0.9-7.1-0.5c-1-1.3-2.4-2.5-4.1-3.4c-3.8-1.9-8.4-1.6-12.2,0c-7.1,3-11.9,10.7-11.3,18.4c0.2,3.3,1.8,7,4.9,8
			c-0.2,0.8-0.3,1.7-0.3,2.5c-0.8,0.6-1.5,1.3-1.8,2.4c-0.6,1.9-0.2,3.9,0.3,5.7c2.8,8.8,11.4,15.5,20.6,16c2.8,0.2,5.7-0.2,8.4-0.9
			c3-0.8,5.9-2.1,7.9-4.4c3.8-4.4,3.1-11.5-0.6-16C164.8-48,164.8-48.1,164.7-48.2z"/>
		<path class="st1" d="M323.9-54.9c-3.1-0.6-6.3-0.4-9.2,0.7c-5.4,1.9-9.6,6.5-12.9,11.5c-3.3,5-5.8,10.6-8.9,15.6
			c-3.2,5.1-7.1,9.6-11.5,13.4c-3.6,3-7.8,5.7-12.5,5.5c-6-0.3-11.5-5.7-13.3-12c-1.9-6.3-0.5-13.1,2.7-18.4
			c0.4-0.7,0.8-1.3,1.3-1.9l10.4,3.3l-4.9-9.2c2-1.6,4.1-3.1,6.3-4.4c2-1.2,4.1-2.2,6.2-3.1c1.2-0.5,2.4-1,3.6-1.4
			c-0.7-1-0.9-2.3-0.7-3.5c0.1-0.7,0.4-1.4,0.7-2c1-1.6,2.7-2.5,4.4-3.3c3.2-1.4,6.7-2.1,10.2-2.2c4.2-0.2,8.5,0.5,12.6,1.9
			c1.5,0.5,3.1,1.2,4.5,1.9C316.8-60.6,320.6-58,323.9-54.9z"/>
		<path class="st1" d="M113.4-18.8l-2.2,1.2L88.4-5.1L59.7-57.5L77.1-67c8.7-4.7,17.9-2.9,21.8,4.3c1.2,2.2,1.7,4.7,1.6,7.1
			c3.6-0.6,7.2-0.2,10.5,1.1l-4.3,15l7.6,2.5l3.7-12.8c1.2,1.2,2.3,2.7,3.2,4.3C126.5-36.1,122.9-24,113.4-18.8z"/>
		<polygon class="st1" points="122.2,-64 118.1,-49.9 114.3,-37.1 106.7,-39.6 111,-54.6 114.4,-66.2 		"/>
		<path class="st1" d="M211.9-13.2C207.8-4.1,197.1,0,188-4L186-5l-20.5-9.1c0.6-0.3,1.2-0.6,1.8-0.8c1.7-0.6,3.6-0.6,5.4-0.7
			c1.8-0.1,3.7-0.3,5.3-1.2s2.9-2.5,2.8-4.4c-0.1-2.2-2.2-3.9-4.3-4.7c-2.2-0.8-4.6-1-6.9-0.6l7.9-17.8c1.3-0.3,2.5-1,3.3-2
			c1.2-1.4,1.8-3.3,1.4-5.2c-0.1-0.7-0.4-1.3-0.8-1.8l5-11.1l16.6,7.4c8.2,3.7,12,11.4,8.9,18.2c-0.9,2.1-2.4,3.8-4.2,5.1
			C213.2-28.6,215.1-20.4,211.9-13.2z"/>
		<path class="st1" d="M180.8-46.3c-0.9,1-2.1,1.7-3.3,2c-1.5,0.4-3,0.2-4.3-0.5c-1.6-0.9-2.7-2.6-2.9-4.4c-0.2-1.8,0.5-3.7,1.7-5
			c2.7-2.7,7.6-2.2,9.5,0.8c0.4,0.5,0.6,1.2,0.8,1.8C182.6-49.7,182-47.7,180.8-46.3z"/>
		<polygon class="st1" points="269.8,-37.4 259.4,-40.7 205.6,-58 238.8,-95.8 264.9,-46.5 		"/>
		<path class="st1" d="M164.7-331.7c0.5-0.6,1-1.2,1.4-1.8c3.6-5.4,4.3-12.6,1.6-18.4c-1.5-3.3-4.1-6.2-7.6-7.5
			c-2.3-0.8-4.7-0.9-7.1-0.5c-1-1.3-2.4-2.5-4.1-3.4c-3.8-1.9-8.4-1.6-12.2,0c-7.1,3-11.9,10.7-11.3,18.4c0.2,3.3,1.8,7,4.9,8
			c-0.2,0.8-0.3,1.7-0.3,2.5c-0.8,0.6-1.5,1.3-1.8,2.4c-0.6,1.9-0.2,3.9,0.3,5.7c2.8,8.8,11.4,15.5,20.6,16c2.8,0.2,5.7-0.2,8.4-0.9
			c3-0.8,5.9-2.1,7.9-4.4c3.8-4.4,3.1-11.5-0.6-16C164.8-331.5,164.8-331.6,164.7-331.7z"/>
		<path class="st1" d="M257.6-299.1c-0.9,2.3-2.6,4.4-4.8,6c-3,2.2-7,3.5-10.9,3.7c-2,0.1-4-0.1-5.8-0.8c-1.7,0.9-3.5,1.5-5.4,1.9
			c-2.4,0.5-5,0.7-7.4,0c-2.4-0.7-4.6-2.3-5.7-4.5c-1.4-3-0.6-6.6,1.2-9.4c0.2-0.3,0.4-0.5,0.5-0.8c-0.9-0.9-1.7-1.9-2.1-3.2
			c-1.3-4.1,1.3-8.4,4.3-11.5c2-2.1,4.2-4,6.8-5.3c2.6-1.3,5.6-1.9,8.4-1.2c4.1,1,8,5.3,9.6,10c2.1,0.1,4.2,0.7,5.8,1.5
			c0.9,0.5,1.7,1,2.4,1.7c-0.1,2.4,0.1,4.8,0.8,7.2C256-302.2,256.7-300.6,257.6-299.1z"/>
		<path class="st1" d="M323.9-338.4c-3.1-0.6-6.3-0.4-9.2,0.7c-5.4,1.9-9.6,6.5-12.9,11.5c-3.3,5-5.8,10.6-8.9,15.6
			c-3.2,5.1-7.1,9.6-11.5,13.4c-3,2.6-6.5,4.9-10.4,5.4c-0.7,0.1-1.4,0.1-2.1,0.1c-2.4-0.1-4.7-1.1-6.8-2.6
			c-1.7-1.2-3.2-2.9-4.4-4.7c-0.9-1.5-1.7-3-2.2-4.7c-0.7-2.4-1-4.8-0.8-7.2c0.2-4,1.5-7.9,3.5-11.2c0.4-0.7,0.8-1.3,1.3-1.9
			l10.4,3.3l-4.9-9.2c2-1.6,4.1-3.1,6.3-4.4c2-1.2,4.1-2.2,6.2-3.1c1.2-0.5,2.4-1,3.6-1.4c-0.7-1-0.9-2.3-0.7-3.5
			c0.1-0.7,0.4-1.4,0.7-2c1-1.6,2.7-2.6,4.4-3.3c8.5-3.6,18.6-2.7,27.3,1.5C316.8-344.1,320.6-341.5,323.9-338.4z"/>
		<path class="st1" d="M194.9-272.8c2.6-0.7,5.4-2.4,6.3-5.3c0.6-1.9,0.4-4.3-1.7-4.7c-1.7-0.3-4,1-5.7,1.2
			c-2.6,0.3-5.4-0.3-7.8-1.1c-4.1-1.4-7.9-4-10.8-7.3c-0.2,2.4,0,4.9,0.8,7.1C178.7-275.2,187.3-270.6,194.9-272.8z"/>
		<path class="st1" d="M113.4-302.2l-2.2,1.2l-22.9,12.5l-28.7-52.4l17.4-9.5c8.7-4.7,17.9-2.9,21.8,4.3c1.2,2.2,1.7,4.7,1.6,7.1
			c3.6-0.6,7.2-0.2,10.5,1.1l-4.3,15l7.6,2.4l3.7-12.8c1.2,1.2,2.3,2.7,3.2,4.3C126.5-319.6,122.9-307.5,113.4-302.2z"/>
		<polygon class="st1" points="122.2,-347.5 118.1,-333.4 114.3,-320.6 106.7,-323.1 111,-338 114.4,-349.7 		"/>
		<path class="st1" d="M211.9-296.6c-4.1,9.1-14.8,13.2-23.9,9.1l-2.1-0.9l-21.1-9.4c0.7-0.5,1.6-1,2.4-1.3c1.7-0.6,3.6-0.6,5.4-0.7
			c1.8-0.1,3.7-0.3,5.3-1.2c1.6-0.9,2.9-2.5,2.8-4.4c-0.1-2.2-2.2-3.9-4.3-4.7c-2.1-0.8-4.4-1-6.6-0.7l7.6-17c1.3-0.3,2.5-1,3.3-2
			c1.2-1.4,1.8-3.3,1.4-5.2c-0.1-0.7-0.4-1.3-0.8-1.9l5-11.1l16.6,7.4c8.2,3.7,12,11.4,8.9,18.2c-0.9,2.1-2.4,3.8-4.2,5.1
			C213.2-312.1,215.1-303.8,211.9-296.6z"/>
		<path class="st1" d="M180.8-329.8c-0.9,1-2.1,1.7-3.3,2c-1.4,0.4-3,0.2-4.3-0.5c-1.6-0.9-2.7-2.6-2.9-4.4c-0.2-1.8,0.5-3.7,1.7-5
			c2.7-2.7,7.6-2.2,9.5,0.8c0.4,0.5,0.6,1.2,0.8,1.9C182.6-333.1,182-331.2,180.8-329.8z"/>
		<path class="st1" d="M180.8-305.4c0.1,1.8-1.2,3.5-2.8,4.4c-1.6,0.9-3.5,1.1-5.3,1.2c-1.8,0.1-3.7,0.1-5.4,0.7
			c-0.9,0.3-1.7,0.7-2.4,1.3c-1.3,1-2.4,2.2-3,3.7c-1.2,2.7-1,6-2.6,8.4c-1.3,1.9-3.5,3-5.8,3.2c-2.3,0.2-4.6-0.4-6.6-1.5
			c-1.5-0.7-2.8-1.7-3.8-3c-0.5-0.8-1-1.6-1.1-2.5v0c-0.8-2.8-3.3-3.5-4.8-3.6c-0.5,0-0.9,0-1.3,0c-1.6-0.1-3.2-0.3-4.5-1.1
			c-1.3-0.8-2.2-2.5-1.9-4c0.4-1.6,1.9-2.6,3.4-3.2c5.4-2.5,11.6-3.2,17.5-2c2.1,0.4,4.3,1.1,6.4,0.5c2.7-0.7,4.5-3.2,6.6-4.9
			c1.9-1.5,4.2-2.5,6.6-2.8c2.2-0.3,4.5-0.1,6.6,0.7C178.6-309.3,180.7-307.6,180.8-305.4z"/>
		<polygon class="st1" points="269.8,-320.8 259.4,-324.2 205.6,-341.5 238.8,-379.2 264.9,-330 		"/>
		<circle class="st1" cx="303.4" cy="-235.8" r="9.6"/>
		<path class="st1" d="M331.5-74.5c0,5.3-4.3,9.6-9.6,9.6c-3.4,0-6.5-1.8-8.2-4.5c-0.9-1.5-1.4-3.2-1.4-5.1c0-5.3,4.3-9.6,9.6-9.6
			c2.2,0,4.2,0.7,5.8,2C330-80.4,331.5-77.6,331.5-74.5z"/>
		<path class="st1" d="M130.9-87.7c0,5.3-4.3,9.6-9.6,9.6s-9.6-4.3-9.6-9.6c0-0.6,0.1-1.2,0.2-1.8c0.8-4.5,4.7-7.8,9.5-7.8h0
			C126.6-97.3,130.9-93,130.9-87.7z"/>
		<path class="st1" d="M119.6-168.6c0.1,1.5-1,2.9-2.3,3.6c-1.3,0.7-2.9,0.9-4.3,1c-1.5,0.1-3,0.1-4.4,0.6c-0.8,0.3-1.6,0.7-2.3,1.3
			c-0.9,0.8-1.6,1.7-2.1,2.8c-0.9,2.2-0.8,4.9-2.1,6.9c-1,1.6-2.9,2.5-4.8,2.6c-1.9,0.2-3.8-0.4-5.4-1.2c-1.2-0.6-2.3-1.4-3.1-2.5
			c-0.5-0.6-0.8-1.3-0.9-2.1v0c-0.7-2.3-2.7-2.9-4-3c-0.2,0-0.5,0-0.7,0c-0.4-1.7-0.5-3.3-0.3-4.8c0-0.3,0.1-0.6,0.1-0.9
			c0.1-0.8,0.3-1.6,0.6-2.3c3.6-1,7.4-1.2,11.1-0.5c1.8,0.3,3.6,0.9,5.3,0.5c2.2-0.6,3.7-2.6,5.4-4c0.5-0.4,1-0.7,1.6-1c0,0,0,0,0,0
			c2.8-1.5,6.2-1.8,9.2-0.7C117.8-171.8,119.5-170.5,119.6-168.6z"/>
	</g>
</pattern>
<pattern  id="SVGID_1_" xlink:href="#Nueva_muestra_de_motivo_5" patternTransform="matrix(1 0 0 1 -23.6838 183.4577)">
</pattern>
<rect class="st2" width="550" height="150"/>
</svg>
