<?xml version="1.0" standalone="no"?>
<!DOCTYPE svg PUBLIC "-//W3C//DTD SVG 20010904//EN"
 "http://www.w3.org/TR/2001/REC-SVG-20010904/DTD/svg10.dtd">
<svg version="1.0" xmlns="http://www.w3.org/2000/svg"
 width="700.000000pt" height="700.000000pt" viewBox="0 0 700.000000 700.000000"
 preserveAspectRatio="xMidYMid meet">
<metadata>
Created by potrace 1.14, written by Peter Selinger 2001-2017
</metadata>
<g transform="translate(0.000000,700.000000) scale(0.100000,-0.100000)"
fill="#000000" stroke="none">
<path d="M3004 5431 l1 -1546 488 -1 487 -1 0 1547 0 1547 -488 0 -488 0 0
-1546z"/>
<path d="M4399 5777 c0 -7 -1 -298 -1 -647 l-1 -635 52 -36 c316 -220 578
-590 679 -960 26 -93 49 -206 58 -284 10 -77 11 -350 2 -435 -13 -132 -64
-341 -108 -445 -7 -16 -19 -46 -28 -65 -146 -349 -427 -661 -757 -842 -130
-71 -325 -147 -419 -164 -17 -3 -50 -9 -72 -14 -84 -19 -123 -22 -289 -25
-167 -3 -281 9 -425 44 -25 7 -53 13 -63 16 -10 2 -56 18 -102 35 -520 191
-922 631 -1075 1176 -16 56 -31 126 -35 155 -4 30 -8 56 -10 60 -17 26 -25
329 -12 457 31 316 162 643 366 910 91 120 284 310 367 362 l24 15 0 648 0
648 -22 -6 c-61 -19 -206 -83 -323 -144 -437 -226 -796 -555 -1093 -998 -23
-34 -42 -65 -42 -68 0 -4 -9 -19 -20 -35 -11 -15 -47 -81 -81 -146 -106 -205
-198 -446 -244 -644 -14 -58 -28 -116 -32 -130 -3 -14 -7 -32 -9 -40 -7 -39
-16 -99 -20 -135 -2 -22 -6 -49 -8 -60 -19 -89 -27 -469 -12 -625 51 -561 249
-1078 585 -1530 86 -116 105 -139 216 -258 264 -285 637 -545 975 -682 30 -12
69 -29 86 -36 72 -31 297 -99 394 -118 62 -12 138 -26 170 -31 19 -3 46 -7 60
-10 150 -25 580 -26 715 -1 21 4 77 13 138 22 78 11 286 66 402 106 284 96
635 289 844 462 405 337 676 694 879 1158 82 188 165 461 197 653 9 51 26 187
33 250 9 94 9 470 -1 570 -90 900 -560 1701 -1285 2188 -188 127 -410 239
-614 313 -29 10 -38 10 -39 1z"/>
</g>
</svg>
